Uncut Sans-Regular.ufo
<glyph name="exclam" format="2">
	<advance width="344"/>
	<unicode hex="0021"/>
	<outline>
		<contour>
			<point x="116" y="166" type="line"/>
			<point x="174" y="166" type="line"/>
			<point x="244" y="700" type="line"/>
			<point x="166" y="700" type="line"/>
		</contour>
		<contour>
			<point x="100" y="0" type="line"/>
			<point x="190" y="0" type="line"/>
			<point x="190" y="90" type="line"/>
			<point x="100" y="90" type="line"/>
		</contour>
	</outline>
</glyph>
<glyph name="numbersign" format="2">
	<advance width="711"/>
	<unicode hex="0023"/>
	<outline>
		<contour>
			<point x="339" y="0" type="line"/>
			<point x="412" y="0" type="line"/>
			<point x="626" y="716" type="line"/>
			<point x="553" y="716" type="line"/>
		</contour>
		<contour>
			<point x="40" y="182" type="line"/>
			<point x="611" y="182" type="line"/>
			<point x="611" y="250" type="line"/>
			<point x="40" y="250" type="line"/>
		</contour>
		<contour>
			<point x="84" y="0" type="line"/>
			<point x="157" y="0" type="line"/>
			<point x="371" y="716" type="line"/>
			<point x="298" y="716" type="line"/>
		</contour>
		<contour>
			<point x="100" y="432" type="line"/>
			<point x="671" y="432" type="line"/>
			<point x="671" y="500" type="line"/>
			<point x="100" y="500" type="line"/>
		</contour>
	</outline>
</glyph>
<glyph name="dollar" format="2">
	<advance width="591"/>
	<unicode hex="0024"/>
	<outline>
		<contour>
			<point x="310" y="-16" type="curve" smooth="yes"/>
			<point x="450" y="-16"/>
			<point x="541" y="81"/>
			<point x="541" y="181" type="curve" smooth="yes"/>
			<point x="541" y="445"/>
			<point x="162" y="364"/>
			<point x="162" y="538" type="curve" smooth="yes"/>
			<point x="162" y="608"/>
			<point x="220" y="643"/>
			<point x="300" y="643" type="curve" smooth="yes"/>
			<point x="390" y="643"/>
			<point x="436" y="588"/>
			<point x="436" y="498" type="curve"/>
			<point x="514" y="508" type="line"/>
			<point x="514" y="628"/>
			<point x="430" y="716"/>
			<point x="300" y="716" type="curve" smooth="yes"/>
			<point x="180" y="716"/>
			<point x="84" y="648"/>
			<point x="84" y="538" type="curve" smooth="yes"/>
			<point x="84" y="290"/>
			<point x="463" y="387"/>
			<point x="463" y="181" type="curve" smooth="yes"/>
			<point x="463" y="101"/>
			<point x="390" y="57"/>
			<point x="310" y="57" type="curve" smooth="yes"/>
			<point x="190" y="57"/>
			<point x="123" y="146"/>
			<point x="123" y="276" type="curve"/>
			<point x="45" y="266" type="line"/>
			<point x="45" y="116"/>
			<point x="130" y="-16"/>
		</contour>
		<contour>
			<point x="267" y="-116" type="line"/>
			<point x="330" y="-116" type="line"/>
			<point x="330" y="800" type="line"/>
			<point x="267" y="800" type="line"/>
		</contour>
	</outline>
</glyph>
<glyph name="ampersand" format="2">
	<advance width="663"/>
	<unicode hex="0026"/>
	<outline>
		<contour>
			<point x="276" y="-16" type="curve" smooth="yes"/>
			<point x="486" y="-16"/>
			<point x="581" y="204"/>
			<point x="577" y="374" type="curve"/>
			<point x="499" y="374" type="line"/>
			<point x="502" y="250"/>
			<point x="446" y="57"/>
			<point x="276" y="57" type="curve" smooth="yes"/>
			<point x="196" y="57"/>
			<point x="138" y="108"/>
			<point x="138" y="168" type="curve" smooth="yes"/>
			<point x="138" y="348"/>
			<point x="496" y="352"/>
			<point x="496" y="542" type="curve" smooth="yes"/>
			<point x="496" y="632"/>
			<point x="422" y="716"/>
			<point x="312" y="716" type="curve" smooth="yes"/>
			<point x="202" y="716"/>
			<point x="128" y="632"/>
			<point x="128" y="542" type="curve" smooth="yes"/>
			<point x="128" y="462"/>
			<point x="197" y="389"/>
			<point x="224" y="360" type="curve" smooth="yes"/>
			<point x="561" y="0" type="line"/>
			<point x="653" y="0" type="line"/>
			<point x="317" y="360" type="line" smooth="yes"/>
			<point x="289" y="389"/>
			<point x="206" y="472"/>
			<point x="206" y="542" type="curve" smooth="yes"/>
			<point x="206" y="602"/>
			<point x="252" y="643"/>
			<point x="312" y="643" type="curve" smooth="yes"/>
			<point x="372" y="643"/>
			<point x="418" y="602"/>
			<point x="418" y="542" type="curve" smooth="yes"/>
			<point x="418" y="392"/>
			<point x="60" y="388"/>
			<point x="60" y="168" type="curve" smooth="yes"/>
			<point x="60" y="58"/>
			<point x="146" y="-16"/>
		</contour>
	</outline>
</glyph>
<glyph name="quotesingle" format="2">
	<advance width="263"/>
	<unicode hex="0027"/>
	<outline>
		<contour>
			<point x="105" y="489" type="line"/>
			<point x="158" y="489" type="line"/>
			<point x="173" y="709" type="line"/>
			<point x="90" y="709" type="line"/>
		</contour>
	</outline>
</glyph>
<glyph name="parenleft" format="2">
	<advance width="335"/>
	<unicode hex="0028"/>
	<outline>
		<contour>
			<point x="237" y="-110" type="curve"/>
			<point x="315" y="-110" type="line"/>
			<point x="270" y="-60"/>
			<point x="158" y="93"/>
			<point x="158" y="303" type="curve" smooth="yes"/>
			<point x="158" y="513"/>
			<point x="270" y="666"/>
			<point x="315" y="716" type="curve"/>
			<point x="237" y="716" type="line"/>
			<point x="192" y="666"/>
			<point x="80" y="513"/>
			<point x="80" y="303" type="curve" smooth="yes"/>
			<point x="80" y="93"/>
			<point x="192" y="-60"/>
		</contour>
	</outline>
</glyph>
<glyph name="parenright" format="2">
	<advance width="335"/>
	<unicode hex="0029"/>
	<outline>
		<contour>
			<point x="20" y="-110" type="curve"/>
			<point x="98" y="-110" type="line"/>
			<point x="143" y="-60"/>
			<point x="255" y="93"/>
			<point x="255" y="303" type="curve" smooth="yes"/>
			<point x="255" y="513"/>
			<point x="143" y="666"/>
			<point x="98" y="716" type="curve"/>
			<point x="20" y="716" type="line"/>
			<point x="65" y="666"/>
			<point x="177" y="513"/>
			<point x="177" y="303" type="curve" smooth="yes"/>
			<point x="177" y="93"/>
			<point x="65" y="-60"/>
		</contour>
	</outline>
</glyph>
<glyph name="asterisk" format="2">
	<advance width="520"/>
	<unicode hex="002A"/>
	<outline>
		<contour>
			<point x="363" y="371" type="line"/>
			<point x="406" y="414" type="line"/>
			<point x="261" y="537" type="line"/>
			<point x="137" y="682" type="line"/>
			<point x="94" y="640" type="line"/>
			<point x="239" y="516" type="line"/>
		</contour>
		<contour>
			<point x="138" y="371" type="line"/>
			<point x="261" y="516" type="line"/>
			<point x="406" y="640" type="line"/>
			<point x="364" y="682" type="line"/>
			<point x="240" y="537" type="line"/>
			<point x="95" y="413" type="line"/>
		</contour>
		<contour>
			<point x="220" y="336" type="line"/>
			<point x="280" y="336" type="line"/>
			<point x="265" y="526" type="line"/>
			<point x="280" y="716" type="line"/>
			<point x="220" y="716" type="line"/>
			<point x="235" y="526" type="line"/>
		</contour>
		<contour>
			<point x="60" y="496" type="line"/>
			<point x="250" y="511" type="line"/>
			<point x="440" y="496" type="line"/>
			<point x="440" y="556" type="line"/>
			<point x="250" y="540" type="line"/>
			<point x="60" y="555" type="line"/>
		</contour>
	</outline>
</glyph>
<glyph name="plus" format="2">
	<advance width="599"/>
	<unicode hex="002B"/>
	<outline>
		<contour>
			<point x="263" y="77" type="line"/>
			<point x="336" y="77" type="line"/>
			<point x="336" y="516" type="line"/>
			<point x="263" y="516" type="line"/>
		</contour>
		<contour>
			<point x="80" y="259" type="line"/>
			<point x="519" y="259" type="line"/>
			<point x="519" y="332" type="line"/>
			<point x="80" y="332" type="line"/>
		</contour>
	</outline>
</glyph>
<glyph name="comma" format="2">
	<advance width="240"/>
	<unicode hex="002C"/>
	<outline>
		<contour>
			<point x="55" y="-138" type="line"/>
			<point x="129" y="-138"/>
			<point x="175" y="-98"/>
			<point x="175" y="0" type="curve"/>
			<point x="123" y="0" type="line"/>
			<point x="123" y="-60"/>
			<point x="109" y="-95"/>
			<point x="55" y="-95" type="curve"/>
		</contour>
		<contour>
			<point x="75" y="0" type="line"/>
			<point x="175" y="0" type="line"/>
			<point x="175" y="100" type="line"/>
			<point x="75" y="100" type="line"/>
		</contour>
	</outline>
</glyph>
<glyph name="hyphen" format="2">
	<advance width="495"/>
	<unicode hex="002D"/>
	<outline>
		<contour>
			<point x="80" y="259" type="line"/>
			<point x="415" y="259" type="line"/>
			<point x="415" y="332" type="line"/>
			<point x="80" y="332" type="line"/>
		</contour>
	</outline>
</glyph>
<glyph name="period" format="2">
	<advance width="230"/>
	<unicode hex="002E"/>
	<outline>
		<contour>
			<point x="65" y="0" type="line"/>
			<point x="165" y="0" type="line"/>
			<point x="165" y="100" type="line"/>
			<point x="65" y="100" type="line"/>
		</contour>
	</outline>
</glyph>
<glyph name="slash" format="2">
	<advance width="492"/>
	<unicode hex="002F"/>
	<outline>
		<contour>
			<point x="50" y="-110" type="line"/>
			<point x="128" y="-110" type="line"/>
			<point x="442" y="716" type="line"/>
			<point x="364" y="716" type="line"/>
		</contour>
	</outline>
</glyph>
<glyph name="zero" format="2">
	<advance width="666"/>
	<unicode hex="0030"/>
	<outline>
		<contour>
			<point x="333" y="-16" type="curve" smooth="yes"/>
			<point x="503" y="-16"/>
			<point x="606" y="130"/>
			<point x="606" y="350" type="curve" smooth="yes"/>
			<point x="606" y="570"/>
			<point x="503" y="716"/>
			<point x="333" y="716" type="curve" smooth="yes"/>
			<point x="163" y="716"/>
			<point x="60" y="570"/>
			<point x="60" y="350" type="curve" smooth="yes"/>
			<point x="60" y="130"/>
			<point x="163" y="-16"/>
		</contour>
		<contour>
			<point x="333" y="57" type="curve" smooth="yes"/>
			<point x="193" y="57"/>
			<point x="138" y="200"/>
			<point x="138" y="350" type="curve" smooth="yes"/>
			<point x="138" y="500"/>
			<point x="193" y="643"/>
			<point x="333" y="643" type="curve" smooth="yes"/>
			<point x="473" y="643"/>
			<point x="528" y="500"/>
			<point x="528" y="350" type="curve" smooth="yes"/>
			<point x="528" y="200"/>
			<point x="473" y="57"/>
		</contour>
	</outline>
</glyph>
<glyph name="one" format="2">
	<advance width="548"/>
	<unicode hex="0031"/>
	<outline>
		<contour>
			<point x="260" y="43" type="line"/>
			<point x="338" y="43" type="line"/>
			<point x="338" y="700" type="line"/>
			<point x="260" y="700" type="line"/>
			<point x="260" y="560"/>
			<point x="209" y="500"/>
			<point x="109" y="500" type="curve" smooth="yes"/>
			<point x="80" y="500" type="line"/>
			<point x="80" y="427" type="line"/>
			<point x="109" y="427" type="line" smooth="yes"/>
			<point x="210" y="427"/>
			<point x="267" y="480"/>
			<point x="267" y="560" type="curve"/>
			<point x="260" y="560" type="line"/>
		</contour>
		<contour>
			<point x="80" y="0" type="line"/>
			<point x="518" y="0" type="line"/>
			<point x="518" y="73" type="line"/>
			<point x="80" y="73" type="line"/>
		</contour>
	</outline>
</glyph>
<glyph name="two" format="2">
	<advance width="601"/>
	<unicode hex="0032"/>
	<outline>
		<contour>
			<point x="61" y="0" type="line"/>
			<point x="541" y="0" type="line"/>
			<point x="541" y="73" type="line"/>
			<point x="132" y="73" type="line"/>
			<point x="162" y="56" type="line"/>
			<point x="324" y="134"/>
			<point x="525" y="300"/>
			<point x="525" y="500" type="curve" smooth="yes"/>
			<point x="525" y="620"/>
			<point x="442" y="716"/>
			<point x="302" y="716" type="curve" smooth="yes"/>
			<point x="152" y="716"/>
			<point x="60" y="620"/>
			<point x="60" y="500" type="curve"/>
			<point x="138" y="490" type="line"/>
			<point x="138" y="580"/>
			<point x="202" y="643"/>
			<point x="302" y="643" type="curve" smooth="yes"/>
			<point x="392" y="643"/>
			<point x="447" y="580"/>
			<point x="447" y="500" type="curve" smooth="yes"/>
			<point x="447" y="330"/>
			<point x="267" y="176"/>
			<point x="61" y="73" type="curve"/>
		</contour>
	</outline>
</glyph>
<glyph name="three" format="2">
	<advance width="614"/>
	<unicode hex="0033"/>
	<outline>
		<contour>
			<point x="302" y="-16" type="curve" smooth="yes"/>
			<point x="452" y="-16"/>
			<point x="554" y="72"/>
			<point x="554" y="192" type="curve" smooth="yes"/>
			<point x="554" y="312"/>
			<point x="467" y="374"/>
			<point x="367" y="374" type="curve"/>
			<point x="367" y="354" type="line"/>
			<point x="447" y="354"/>
			<point x="528" y="421"/>
			<point x="528" y="521" type="curve" smooth="yes"/>
			<point x="528" y="621"/>
			<point x="452" y="716"/>
			<point x="302" y="716" type="curve" smooth="yes"/>
			<point x="152" y="716"/>
			<point x="77" y="629"/>
			<point x="74" y="539" type="curve"/>
			<point x="152" y="529" type="line"/>
			<point x="155" y="597"/>
			<point x="212" y="643"/>
			<point x="302" y="643" type="curve" smooth="yes"/>
			<point x="392" y="643"/>
			<point x="452" y="591"/>
			<point x="452" y="521" type="curve" smooth="yes"/>
			<point x="452" y="451"/>
			<point x="392" y="400"/>
			<point x="292" y="400" type="curve" smooth="yes"/>
			<point x="222" y="400" type="line"/>
			<point x="222" y="327" type="line"/>
			<point x="292" y="327" type="line" smooth="yes"/>
			<point x="382" y="327"/>
			<point x="476" y="282"/>
			<point x="476" y="192" type="curve" smooth="yes"/>
			<point x="476" y="102"/>
			<point x="382" y="57"/>
			<point x="302" y="57" type="curve" smooth="yes"/>
			<point x="222" y="57"/>
			<point x="128" y="98"/>
			<point x="128" y="204" type="curve"/>
			<point x="50" y="194" type="line"/>
			<point x="50" y="74"/>
			<point x="152" y="-16"/>
		</contour>
	</outline>
</glyph>
<glyph name="four" format="2">
	<advance width="709"/>
	<unicode hex="0034"/>
	<outline>
		<contour>
			<point x="40" y="193" type="line"/>
			<point x="664" y="193" type="line"/>
			<point x="664" y="266" type="line"/>
			<point x="92" y="266" type="line"/>
			<point x="66" y="216" type="line"/>
			<point x="301" y="339"/>
			<point x="316" y="530"/>
			<point x="316" y="700" type="curve"/>
			<point x="238" y="700" type="line"/>
			<point x="238" y="530"/>
			<point x="225" y="385"/>
			<point x="40" y="266" type="curve"/>
		</contour>
		<contour>
			<point x="466" y="0" type="line"/>
			<point x="544" y="0" type="line"/>
			<point x="544" y="700" type="line"/>
			<point x="466" y="700" type="line"/>
		</contour>
	</outline>
</glyph>
<glyph name="five" format="2">
	<advance width="598"/>
	<unicode hex="0035"/>
	<outline>
		<contour>
			<point x="303" y="-16" type="curve" smooth="yes"/>
			<point x="443" y="-16"/>
			<point x="548" y="83"/>
			<point x="548" y="233" type="curve" smooth="yes"/>
			<point x="548" y="383"/>
			<point x="443" y="478"/>
			<point x="313" y="478" type="curve" smooth="yes"/>
			<point x="219" y="478"/>
			<point x="151" y="428"/>
			<point x="141" y="378" type="curve"/>
			<point x="152" y="378" type="line"/>
			<point x="170" y="627" type="line"/>
			<point x="495" y="627" type="line"/>
			<point x="495" y="700" type="line"/>
			<point x="101" y="700" type="line"/>
			<point x="71" y="312" type="line"/>
			<point x="149" y="312" type="line"/>
			<point x="153" y="321"/>
			<point x="193" y="409"/>
			<point x="313" y="409" type="curve" smooth="yes"/>
			<point x="413" y="409"/>
			<point x="470" y="323"/>
			<point x="470" y="233" type="curve" smooth="yes"/>
			<point x="470" y="143"/>
			<point x="413" y="56"/>
			<point x="303" y="56" type="curve" smooth="yes"/>
			<point x="193" y="56"/>
			<point x="138" y="114"/>
			<point x="138" y="204" type="curve"/>
			<point x="60" y="194" type="line"/>
			<point x="60" y="64"/>
			<point x="163" y="-16"/>
		</contour>
	</outline>
</glyph>
<glyph name="six" format="2">
	<advance width="631"/>
	<unicode hex="0036"/>
	<outline>
		<contour>
			<point x="323" y="-16" type="curve" smooth="yes"/>
			<point x="453" y="-16"/>
			<point x="564" y="85"/>
			<point x="564" y="225" type="curve" smooth="yes"/>
			<point x="564" y="375"/>
			<point x="453" y="465"/>
			<point x="323" y="465" type="curve" smooth="yes"/>
			<point x="193" y="465"/>
			<point x="110" y="369"/>
			<point x="120" y="239" type="curve"/>
			<point x="130" y="269" type="line"/>
			<point x="125" y="509"/>
			<point x="183" y="643"/>
			<point x="333" y="643" type="curve" smooth="yes"/>
			<point x="423" y="643"/>
			<point x="463" y="590"/>
			<point x="490" y="519" type="curve"/>
			<point x="571" y="529" type="line"/>
			<point x="531" y="663"/>
			<point x="453" y="716"/>
			<point x="333" y="716" type="curve" smooth="yes"/>
			<point x="183" y="716"/>
			<point x="60" y="601"/>
			<point x="60" y="353" type="curve" smooth="yes"/>
			<point x="60" y="193"/>
			<point x="113" y="-16"/>
		</contour>
		<contour>
			<point x="323" y="57" type="curve" smooth="yes"/>
			<point x="221" y="57"/>
			<point x="157" y="125"/>
			<point x="157" y="225" type="curve" smooth="yes"/>
			<point x="157" y="325"/>
			<point x="223" y="392"/>
			<point x="323" y="392" type="curve" smooth="yes"/>
			<point x="423" y="392"/>
			<point x="486" y="325"/>
			<point x="486" y="225" type="curve" smooth="yes"/>
			<point x="486" y="125"/>
			<point x="423" y="57"/>
		</contour>
	</outline>
</glyph>
<glyph name="seven" format="2">
	<advance width="550"/>
	<unicode hex="0037"/>
	<outline>
		<contour>
			<point x="181" y="0" type="curve"/>
			<point x="259" y="0" type="line"/>
			<point x="259" y="290"/>
			<point x="280" y="486"/>
			<point x="510" y="627" type="curve"/>
			<point x="510" y="700" type="line"/>
			<point x="30" y="700" type="line"/>
			<point x="30" y="627" type="line"/>
			<point x="466" y="627" type="line"/>
			<point x="484" y="681" type="line"/>
			<point x="228" y="567"/>
			<point x="181" y="290"/>
		</contour>
	</outline>
</glyph>
<glyph name="eight" format="2">
	<advance width="618"/>
	<unicode hex="0038"/>
	<outline>
		<contour>
			<point x="309" y="-16" type="curve" smooth="yes"/>
			<point x="439" y="-16"/>
			<point x="568" y="63"/>
			<point x="568" y="193" type="curve" smooth="yes"/>
			<point x="568" y="284"/>
			<point x="489" y="371"/>
			<point x="389" y="371" type="curve"/>
			<point x="389" y="358" type="line"/>
			<point x="469" y="358"/>
			<point x="542" y="451"/>
			<point x="542" y="524" type="curve" smooth="yes"/>
			<point x="542" y="630"/>
			<point x="459" y="716"/>
			<point x="309" y="716" type="curve" smooth="yes"/>
			<point x="159" y="716"/>
			<point x="76" y="630"/>
			<point x="76" y="524" type="curve" smooth="yes"/>
			<point x="76" y="451"/>
			<point x="149" y="358"/>
			<point x="229" y="358" type="curve"/>
			<point x="229" y="371" type="line"/>
			<point x="129" y="373"/>
			<point x="50" y="284"/>
			<point x="50" y="193" type="curve" smooth="yes"/>
			<point x="50" y="63"/>
			<point x="179" y="-16"/>
		</contour>
		<contour>
			<point x="309" y="57" type="curve" smooth="yes"/>
			<point x="209" y="57"/>
			<point x="128" y="103"/>
			<point x="128" y="193" type="curve" smooth="yes"/>
			<point x="128" y="283"/>
			<point x="209" y="328"/>
			<point x="309" y="328" type="curve" smooth="yes"/>
			<point x="409" y="328"/>
			<point x="490" y="283"/>
			<point x="490" y="193" type="curve" smooth="yes"/>
			<point x="490" y="103"/>
			<point x="409" y="57"/>
		</contour>
		<contour>
			<point x="309" y="401" type="curve" smooth="yes"/>
			<point x="209" y="401"/>
			<point x="154" y="454"/>
			<point x="154" y="524" type="curve" smooth="yes"/>
			<point x="154" y="594"/>
			<point x="209" y="643"/>
			<point x="309" y="643" type="curve" smooth="yes"/>
			<point x="409" y="643"/>
			<point x="464" y="594"/>
			<point x="464" y="524" type="curve" smooth="yes"/>
			<point x="464" y="454"/>
			<point x="409" y="401"/>
		</contour>
	</outline>
</glyph>
<glyph name="nine" format="2">
	<advance width="631"/>
	<unicode hex="0039"/>
	<outline>
		<contour>
			<point x="298" y="-16" type="curve" smooth="yes"/>
			<point x="448" y="-16"/>
			<point x="571" y="99"/>
			<point x="571" y="347" type="curve" smooth="yes"/>
			<point x="571" y="507"/>
			<point x="518" y="716"/>
			<point x="308" y="716" type="curve" smooth="yes"/>
			<point x="178" y="716"/>
			<point x="67" y="615"/>
			<point x="67" y="475" type="curve" smooth="yes"/>
			<point x="67" y="325"/>
			<point x="178" y="235"/>
			<point x="308" y="235" type="curve" smooth="yes"/>
			<point x="438" y="235"/>
			<point x="521" y="331"/>
			<point x="511" y="461" type="curve"/>
			<point x="501" y="431" type="line"/>
			<point x="506" y="191"/>
			<point x="448" y="57"/>
			<point x="298" y="57" type="curve" smooth="yes"/>
			<point x="208" y="57"/>
			<point x="168" y="110"/>
			<point x="141" y="181" type="curve"/>
			<point x="60" y="171" type="line"/>
			<point x="100" y="37"/>
			<point x="178" y="-16"/>
		</contour>
		<contour>
			<point x="308" y="308" type="curve" smooth="yes"/>
			<point x="208" y="308"/>
			<point x="145" y="375"/>
			<point x="145" y="475" type="curve" smooth="yes"/>
			<point x="145" y="575"/>
			<point x="208" y="643"/>
			<point x="308" y="643" type="curve" smooth="yes"/>
			<point x="410" y="643"/>
			<point x="474" y="575"/>
			<point x="474" y="475" type="curve" smooth="yes"/>
			<point x="474" y="375"/>
			<point x="408" y="308"/>
		</contour>
	</outline>
</glyph>
<glyph name="less" format="2">
	<advance width="599"/>
	<unicode hex="003C"/>
	<outline>
		<contour>
			<point x="519" y="9" type="line"/>
			<point x="519" y="92" type="line"/>
			<point x="117" y="313" type="line"/>
			<point x="116" y="269" type="line"/>
			<point x="519" y="489" type="line"/>
			<point x="519" y="572" type="line"/>
			<point x="80" y="332" type="line"/>
			<point x="80" y="249" type="line"/>
		</contour>
	</outline>
</glyph>
<glyph name="equal" format="2">
	<advance width="599"/>
	<unicode hex="003D"/>
	<outline>
		<contour>
			<point x="80" y="356" type="line"/>
			<point x="519" y="356" type="line"/>
			<point x="519" y="429" type="line"/>
			<point x="80" y="429" type="line"/>
		</contour>
		<contour>
			<point x="80" y="163" type="line"/>
			<point x="519" y="163" type="line"/>
			<point x="519" y="236" type="line"/>
			<point x="80" y="236" type="line"/>
		</contour>
	</outline>
</glyph>
<glyph name="greater" format="2">
	<advance width="599"/>
	<unicode hex="003E"/>
	<outline>
		<contour>
			<point x="80" y="9" type="line"/>
			<point x="519" y="249" type="line"/>
			<point x="519" y="332" type="line"/>
			<point x="80" y="572" type="line"/>
			<point x="80" y="489" type="line"/>
			<point x="483" y="269" type="line"/>
			<point x="482" y="313" type="line"/>
			<point x="80" y="92" type="line"/>
		</contour>
	</outline>
</glyph>
<glyph name="question" format="2">
	<advance width="545"/>
	<unicode hex="003F"/>
	<outline>
		<contour>
			<point x="212" y="166" type="line"/>
			<point x="285" y="166" type="line"/>
			<point x="285" y="339" type="line"/>
			<point x="247" y="291" type="line"/>
			<point x="357" y="291"/>
			<point x="495" y="362"/>
			<point x="495" y="512" type="curve" smooth="yes"/>
			<point x="495" y="622"/>
			<point x="422" y="716"/>
			<point x="282" y="716" type="curve" smooth="yes"/>
			<point x="142" y="716"/>
			<point x="50" y="618"/>
			<point x="50" y="478" type="curve"/>
			<point x="123" y="464" type="line"/>
			<point x="123" y="584"/>
			<point x="192" y="643"/>
			<point x="282" y="643" type="curve" smooth="yes"/>
			<point x="372" y="643"/>
			<point x="417" y="582"/>
			<point x="417" y="512" type="curve" smooth="yes"/>
			<point x="417" y="412"/>
			<point x="352" y="350"/>
			<point x="212" y="350" type="curve"/>
		</contour>
		<contour>
			<point x="204" y="0" type="line"/>
			<point x="294" y="0" type="line"/>
			<point x="294" y="90" type="line"/>
			<point x="204" y="90" type="line"/>
		</contour>
	</outline>
</glyph>
<glyph name="at" format="2">
	<advance width="863"/>
	<unicode hex="0040"/>
	<outline>
		<contour>
			<point x="431" y="-103" type="curve" smooth="yes"/>
			<point x="532" y="-103"/>
			<point x="624" y="-64"/>
			<point x="692" y="0" type="curve"/>
			<point x="594" y="0" type="line"/>
			<point x="546" y="-28"/>
			<point x="490" y="-44"/>
			<point x="431" y="-44" type="curve" smooth="yes"/>
			<point x="254" y="-44"/>
			<point x="109" y="101"/>
			<point x="109" y="278" type="curve" smooth="yes"/>
			<point x="109" y="456"/>
			<point x="254" y="601"/>
			<point x="431" y="601" type="curve" smooth="yes"/>
			<point x="619" y="601"/>
			<point x="754" y="466"/>
			<point x="754" y="278" type="curve"/>
			<point x="813" y="278" type="line"/>
			<point x="813" y="499"/>
			<point x="652" y="660"/>
			<point x="431" y="660" type="curve" smooth="yes"/>
			<point x="221" y="660"/>
			<point x="50" y="489"/>
			<point x="50" y="278" type="curve" smooth="yes"/>
			<point x="50" y="68"/>
			<point x="221" y="-103"/>
		</contour>
		<contour>
			<point x="412" y="155" type="curve" smooth="yes"/>
			<point x="371" y="155"/>
			<point x="345" y="176"/>
			<point x="345" y="209" type="curve" smooth="yes"/>
			<point x="345" y="262"/>
			<point x="397" y="270"/>
			<point x="446" y="272" type="curve" smooth="yes"/>
			<point x="484" y="273"/>
			<point x="539" y="286"/>
			<point x="533" y="346" type="curve"/>
			<point x="518" y="332" type="line"/>
			<point x="518" y="281" type="line" smooth="yes"/>
			<point x="518" y="192"/>
			<point x="474" y="155"/>
		</contour>
		<contour>
			<point x="663" y="83" type="curve" smooth="yes"/>
			<point x="753" y="83"/>
			<point x="815" y="158"/>
			<point x="813" y="278" type="curve"/>
			<point x="754" y="278" type="line"/>
			<point x="756" y="188"/>
			<point x="713" y="144"/>
			<point x="663" y="144" type="curve" smooth="yes"/>
			<point x="613" y="144"/>
			<point x="578" y="166"/>
			<point x="578" y="246" type="curve" smooth="yes"/>
			<point x="578" y="343" type="line" smooth="yes"/>
			<point x="578" y="444"/>
			<point x="517" y="476"/>
			<point x="439" y="476" type="curve" smooth="yes"/>
			<point x="352" y="476"/>
			<point x="290" y="427"/>
			<point x="292" y="353" type="curve"/>
			<point x="351" y="343" type="line"/>
			<point x="349" y="393"/>
			<point x="382" y="417"/>
			<point x="439" y="417" type="curve" smooth="yes"/>
			<point x="487" y="417"/>
			<point x="509" y="402"/>
			<point x="516" y="375" type="curve" smooth="yes"/>
			<point x="521" y="356"/>
			<point x="515" y="333"/>
			<point x="455" y="331" type="curve" smooth="yes"/>
			<point x="385" y="327"/>
			<point x="283" y="306"/>
			<point x="283" y="209" type="curve" smooth="yes"/>
			<point x="283" y="144"/>
			<point x="333" y="96"/>
			<point x="405" y="96" type="curve" smooth="yes"/>
			<point x="475" y="96"/>
			<point x="522" y="144"/>
			<point x="532" y="211" type="curve"/>
			<point x="520" y="214" type="line"/>
			<point x="522" y="144"/>
			<point x="573" y="83"/>
		</contour>
	</outline>
</glyph>
<glyph name="A" format="2">
	<advance width="635"/>
	<unicode hex="0041"/>
	<outline>
		<contour>
			<point x="20" y="0" type="line"/>
			<point x="99" y="0" type="line"/>
			<point x="333" y="678" type="line"/>
			<point x="303" y="678" type="line"/>
			<point x="536" y="0" type="line"/>
			<point x="615" y="0" type="line"/>
			<point x="374" y="700" type="line"/>
			<point x="261" y="700" type="line"/>
		</contour>
		<contour>
			<point x="161" y="226" type="line"/>
			<point x="474" y="226" type="line"/>
			<point x="474" y="299" type="line"/>
			<point x="161" y="299" type="line"/>
		</contour>
	</outline>
</glyph>
<glyph name="C" format="2">
	<advance width="742"/>
	<unicode hex="0043"/>
	<outline>
		<contour>
			<point x="382" y="-16" type="curve" smooth="yes"/>
			<point x="542" y="-16"/>
			<point x="661" y="98"/>
			<point x="677" y="267" type="curve"/>
			<point x="598" y="277" type="line"/>
			<point x="587" y="159"/>
			<point x="512" y="57"/>
			<point x="382" y="57" type="curve" smooth="yes"/>
			<point x="232" y="57"/>
			<point x="138" y="190"/>
			<point x="138" y="350" type="curve" smooth="yes"/>
			<point x="138" y="510"/>
			<point x="232" y="642"/>
			<point x="382" y="642" type="curve" smooth="yes"/>
			<point x="512" y="642"/>
			<point x="584" y="536"/>
			<point x="597" y="418" type="curve"/>
			<point x="677" y="428" type="line"/>
			<point x="661" y="597"/>
			<point x="542" y="716"/>
			<point x="382" y="716" type="curve" smooth="yes"/>
			<point x="212" y="716"/>
			<point x="60" y="580"/>
			<point x="60" y="350" type="curve" smooth="yes"/>
			<point x="60" y="120"/>
			<point x="212" y="-16"/>
		</contour>
	</outline>
</glyph>
<glyph name="D" format="2">
	<advance width="658"/>
	<unicode hex="0044"/>
	<outline>
		<contour>
			<point x="143" y="0" type="line"/>
			<point x="285" y="0" type="line" smooth="yes"/>
			<point x="485" y="0"/>
			<point x="603" y="110"/>
			<point x="603" y="350" type="curve" smooth="yes"/>
			<point x="603" y="590"/>
			<point x="485" y="700"/>
			<point x="285" y="700" type="curve" smooth="yes"/>
			<point x="143" y="700" type="line"/>
			<point x="143" y="627" type="line"/>
			<point x="285" y="627" type="line" smooth="yes"/>
			<point x="445" y="627"/>
			<point x="525" y="540"/>
			<point x="525" y="350" type="curve" smooth="yes"/>
			<point x="525" y="160"/>
			<point x="445" y="73"/>
			<point x="285" y="73" type="curve" smooth="yes"/>
			<point x="143" y="73" type="line"/>
		</contour>
		<contour>
			<point x="85" y="0" type="line"/>
			<point x="163" y="0" type="line"/>
			<point x="163" y="700" type="line"/>
			<point x="85" y="700" type="line"/>
		</contour>
	</outline>
</glyph>
<glyph name="E" format="2">
	<advance width="548"/>
	<unicode hex="0045"/>
	<outline>
		<contour>
			<point x="85" y="0" type="line"/>
			<point x="163" y="0" type="line"/>
			<point x="163" y="700" type="line"/>
			<point x="85" y="700" type="line"/>
		</contour>
		<contour>
			<point x="153" y="0" type="line"/>
			<point x="493" y="0" type="line"/>
			<point x="493" y="73" type="line"/>
			<point x="153" y="73" type="line"/>
		</contour>
		<contour>
			<point x="153" y="327" type="line"/>
			<point x="433" y="327" type="line"/>
			<point x="433" y="400" type="line"/>
			<point x="153" y="400" type="line"/>
		</contour>
		<contour>
			<point x="153" y="627" type="line"/>
			<point x="493" y="627" type="line"/>
			<point x="493" y="700" type="line"/>
			<point x="153" y="700" type="line"/>
		</contour>
	</outline>
</glyph>
<glyph name="F" format="2">
	<advance width="533"/>
	<unicode hex="0046"/>
	<outline>
		<contour>
			<point x="85" y="0" type="line"/>
			<point x="163" y="0" type="line"/>
			<point x="163" y="700" type="line"/>
			<point x="85" y="700" type="line"/>
		</contour>
		<contour>
			<point x="153" y="327" type="line"/>
			<point x="443" y="327" type="line"/>
			<point x="443" y="400" type="line"/>
			<point x="153" y="400" type="line"/>
		</contour>
		<contour>
			<point x="153" y="627" type="line"/>
			<point x="493" y="627" type="line"/>
			<point x="493" y="700" type="line"/>
			<point x="153" y="700" type="line"/>
		</contour>
	</outline>
</glyph>
<glyph name="G" format="2">
	<advance width="785"/>
	<unicode hex="0047"/>
	<outline>
		<contour>
			<point x="382" y="-16" type="curve" smooth="yes"/>
			<point x="504" y="-16"/>
			<point x="665" y="65"/>
			<point x="665" y="311" type="curve"/>
			<point x="657" y="262" type="line"/>
			<point x="642" y="0" type="line"/>
			<point x="715" y="0" type="line"/>
			<point x="715" y="354" type="line"/>
			<point x="387" y="354" type="line"/>
			<point x="387" y="281" type="line"/>
			<point x="630" y="281" type="line"/>
			<point x="610" y="149"/>
			<point x="498" y="57"/>
			<point x="382" y="57" type="curve" smooth="yes"/>
			<point x="232" y="57"/>
			<point x="138" y="190"/>
			<point x="138" y="350" type="curve" smooth="yes"/>
			<point x="138" y="510"/>
			<point x="232" y="642"/>
			<point x="382" y="642" type="curve" smooth="yes"/>
			<point x="522" y="642"/>
			<point x="605" y="531"/>
			<point x="612" y="421" type="curve"/>
			<point x="690" y="431" type="line"/>
			<point x="677" y="601"/>
			<point x="538" y="715"/>
			<point x="382" y="715" type="curve" smooth="yes"/>
			<point x="212" y="715"/>
			<point x="60" y="580"/>
			<point x="60" y="350" type="curve" smooth="yes"/>
			<point x="60" y="120"/>
			<point x="212" y="-16"/>
		</contour>
	</outline>
</glyph>
<glyph name="H" format="2">
	<advance width="666"/>
	<unicode hex="0048"/>
	<outline>
		<contour>
			<point x="503" y="0" type="line"/>
			<point x="581" y="0" type="line"/>
			<point x="581" y="700" type="line"/>
			<point x="503" y="700" type="line"/>
		</contour>
		<contour>
			<point x="85" y="0" type="line"/>
			<point x="163" y="0" type="line"/>
			<point x="163" y="700" type="line"/>
			<point x="85" y="700" type="line"/>
		</contour>
		<contour>
			<point x="153" y="327" type="line"/>
			<point x="513" y="327" type="line"/>
			<point x="513" y="400" type="line"/>
			<point x="153" y="400" type="line"/>
		</contour>
	</outline>
</glyph>
<glyph name="I" format="2">
	<advance width="248"/>
	<unicode hex="0049"/>
	<outline>
		<contour>
			<point x="85" y="0" type="line"/>
			<point x="163" y="0" type="line"/>
			<point x="163" y="700" type="line"/>
			<point x="85" y="700" type="line"/>
		</contour>
	</outline>
</glyph>
<glyph name="J" format="2">
	<advance width="555"/>
	<unicode hex="004A"/>
	<outline>
		<contour>
			<point x="258" y="-16" type="curve" smooth="yes"/>
			<point x="388" y="-16"/>
			<point x="475" y="72"/>
			<point x="475" y="212" type="curve" smooth="yes"/>
			<point x="475" y="700" type="line"/>
			<point x="397" y="700" type="line"/>
			<point x="397" y="212" type="line" smooth="yes"/>
			<point x="397" y="112"/>
			<point x="338" y="57"/>
			<point x="258" y="57" type="curve" smooth="yes"/>
			<point x="178" y="57"/>
			<point x="118" y="112"/>
			<point x="118" y="212" type="curve" smooth="yes"/>
			<point x="118" y="270" type="line"/>
			<point x="40" y="270" type="line"/>
			<point x="40" y="212" type="line" smooth="yes"/>
			<point x="40" y="72"/>
			<point x="128" y="-16"/>
		</contour>
	</outline>
</glyph>
<glyph name="K" format="2">
	<advance width="606"/>
	<unicode hex="004B"/>
	<outline>
		<contour>
			<point x="154" y="234" type="line"/>
			<point x="557" y="700" type="line"/>
			<point x="467" y="700" type="line"/>
			<point x="101" y="280" type="line"/>
		</contour>
		<contour>
			<point x="85" y="0" type="line"/>
			<point x="163" y="0" type="line"/>
			<point x="163" y="700" type="line"/>
			<point x="85" y="700" type="line"/>
		</contour>
		<contour>
			<point x="496" y="0" type="line"/>
			<point x="586" y="0" type="line"/>
			<point x="307" y="422" type="line"/>
			<point x="239" y="392" type="line"/>
		</contour>
	</outline>
</glyph>
<glyph name="L" format="2">
	<advance width="508"/>
	<unicode hex="004C"/>
	<outline>
		<contour>
			<point x="85" y="0" type="line"/>
			<point x="163" y="0" type="line"/>
			<point x="163" y="700" type="line"/>
			<point x="85" y="700" type="line"/>
		</contour>
		<contour>
			<point x="148" y="0" type="line"/>
			<point x="488" y="0" type="line"/>
			<point x="488" y="73" type="line"/>
			<point x="148" y="73" type="line"/>
		</contour>
	</outline>
</glyph>
<glyph name="M" format="2">
	<advance width="848"/>
	<unicode hex="004D"/>
	<outline>
		<contour>
			<point x="85" y="0" type="line"/>
			<point x="163" y="0" type="line"/>
			<point x="163" y="612" type="line"/>
			<point x="165" y="612" type="line"/>
			<point x="386" y="0" type="line"/>
			<point x="462" y="0" type="line"/>
			<point x="683" y="612" type="line"/>
			<point x="685" y="612" type="line"/>
			<point x="685" y="0" type="line"/>
			<point x="763" y="0" type="line"/>
			<point x="763" y="700" type="line"/>
			<point x="641" y="700" type="line"/>
			<point x="425" y="101" type="line"/>
			<point x="423" y="101" type="line"/>
			<point x="206" y="700" type="line"/>
			<point x="85" y="700" type="line"/>
		</contour>
	</outline>
</glyph>
<glyph name="N" format="2">
	<advance width="716"/>
	<unicode hex="004E"/>
	<outline>
		<contour>
			<point x="532" y="0" type="line"/>
			<point x="611" y="0" type="line"/>
			<point x="184" y="700" type="line"/>
			<point x="105" y="700" type="line"/>
		</contour>
		<contour>
			<point x="85" y="0" type="line"/>
			<point x="164" y="0" type="line"/>
			<point x="164" y="700" type="line"/>
			<point x="85" y="700" type="line"/>
		</contour>
		<contour>
			<point x="552" y="0" type="line"/>
			<point x="631" y="0" type="line"/>
			<point x="631" y="700" type="line"/>
			<point x="552" y="700" type="line"/>
		</contour>
	</outline>
</glyph>
<glyph name="O" format="2">
	<advance width="764"/>
	<unicode hex="004F"/>
	<outline>
		<contour>
			<point x="382" y="-16" type="curve" smooth="yes"/>
			<point x="552" y="-16"/>
			<point x="704" y="120"/>
			<point x="704" y="350" type="curve" smooth="yes"/>
			<point x="704" y="580"/>
			<point x="552" y="716"/>
			<point x="382" y="716" type="curve" smooth="yes"/>
			<point x="212" y="716"/>
			<point x="60" y="580"/>
			<point x="60" y="350" type="curve" smooth="yes"/>
			<point x="60" y="120"/>
			<point x="212" y="-16"/>
		</contour>
		<contour>
			<point x="382" y="57" type="curve" smooth="yes"/>
			<point x="232" y="57"/>
			<point x="138" y="190"/>
			<point x="138" y="350" type="curve" smooth="yes"/>
			<point x="138" y="510"/>
			<point x="232" y="643"/>
			<point x="382" y="643" type="curve" smooth="yes"/>
			<point x="532" y="643"/>
			<point x="626" y="510"/>
			<point x="626" y="350" type="curve" smooth="yes"/>
			<point x="626" y="190"/>
			<point x="532" y="57"/>
		</contour>
	</outline>
</glyph>
<glyph name="Q" format="2">
	<advance width="791"/>
	<unicode hex="0051"/>
	<outline>
		<contour>
			<point x="663" y="-66" type="line"/>
			<point x="751" y="-66" type="line"/>
			<point x="416" y="346" type="line"/>
			<point x="328" y="346" type="line"/>
		</contour>
		<component base="O"/>
	</outline>
</glyph>
<glyph name="R" format="2">
	<advance width="611"/>
	<unicode hex="0052"/>
	<outline>
		<contour>
			<point x="85" y="0" type="line"/>
			<point x="163" y="0" type="line"/>
			<point x="163" y="309" type="line"/>
			<point x="326" y="309" type="line" smooth="yes"/>
			<point x="441" y="309"/>
			<point x="451" y="256"/>
			<point x="456" y="174" type="curve" smooth="yes"/>
			<point x="466" y="0" type="line"/>
			<point x="546" y="0" type="line"/>
			<point x="536" y="159" type="line" smooth="yes"/>
			<point x="526" y="312"/>
			<point x="490" y="342"/>
			<point x="350" y="342" type="curve"/>
			<point x="350" y="340" type="line"/>
			<point x="450" y="340"/>
			<point x="536" y="385"/>
			<point x="536" y="504" type="curve" smooth="yes"/>
			<point x="536" y="639"/>
			<point x="435" y="700"/>
			<point x="305" y="700" type="curve" smooth="yes"/>
			<point x="85" y="700" type="line"/>
		</contour>
		<contour>
			<point x="163" y="382" type="line"/>
			<point x="163" y="627" type="line"/>
			<point x="305" y="627" type="line" smooth="yes"/>
			<point x="395" y="627"/>
			<point x="458" y="594"/>
			<point x="458" y="504" type="curve" smooth="yes"/>
			<point x="458" y="414"/>
			<point x="395" y="382"/>
			<point x="305" y="382" type="curve" smooth="yes"/>
		</contour>
	</outline>
</glyph>
<glyph name="S" format="2">
	<advance width="591"/>
	<unicode hex="0053"/>
	<outline>
		<contour>
			<point x="310" y="-16" type="curve" smooth="yes"/>
			<point x="450" y="-16"/>
			<point x="541" y="81"/>
			<point x="541" y="181" type="curve" smooth="yes"/>
			<point x="541" y="445"/>
			<point x="162" y="364"/>
			<point x="162" y="538" type="curve" smooth="yes"/>
			<point x="162" y="608"/>
			<point x="220" y="643"/>
			<point x="300" y="643" type="curve" smooth="yes"/>
			<point x="390" y="643"/>
			<point x="436" y="588"/>
			<point x="436" y="498" type="curve"/>
			<point x="514" y="508" type="line"/>
			<point x="514" y="628"/>
			<point x="430" y="716"/>
			<point x="300" y="716" type="curve" smooth="yes"/>
			<point x="180" y="716"/>
			<point x="84" y="648"/>
			<point x="84" y="538" type="curve" smooth="yes"/>
			<point x="84" y="290"/>
			<point x="463" y="387"/>
			<point x="463" y="181" type="curve" smooth="yes"/>
			<point x="463" y="101"/>
			<point x="390" y="57"/>
			<point x="310" y="57" type="curve" smooth="yes"/>
			<point x="190" y="57"/>
			<point x="123" y="146"/>
			<point x="123" y="276" type="curve"/>
			<point x="45" y="266" type="line"/>
			<point x="45" y="116"/>
			<point x="130" y="-16"/>
		</contour>
	</outline>
</glyph>
<glyph name="T" format="2">
	<advance width="618"/>
	<unicode hex="0054"/>
	<outline>
		<contour>
			<point x="270" y="0" type="line"/>
			<point x="348" y="0" type="line"/>
			<point x="348" y="627" type="line"/>
			<point x="270" y="627" type="line"/>
		</contour>
		<contour>
			<point x="20" y="627" type="line"/>
			<point x="598" y="627" type="line"/>
			<point x="598" y="700" type="line"/>
			<point x="20" y="700" type="line"/>
		</contour>
	</outline>
</glyph>
<glyph name="U" format="2">
	<advance width="655"/>
	<unicode hex="0055"/>
	<outline>
		<contour>
			<point x="328" y="-16" type="curve" smooth="yes"/>
			<point x="468" y="-16"/>
			<point x="575" y="72"/>
			<point x="575" y="242" type="curve" smooth="yes"/>
			<point x="575" y="700" type="line"/>
			<point x="497" y="700" type="line"/>
			<point x="497" y="242" type="line" smooth="yes"/>
			<point x="497" y="112"/>
			<point x="418" y="57"/>
			<point x="328" y="57" type="curve" smooth="yes"/>
			<point x="238" y="57"/>
			<point x="158" y="112"/>
			<point x="158" y="242" type="curve" smooth="yes"/>
			<point x="158" y="700" type="line"/>
			<point x="80" y="700" type="line"/>
			<point x="80" y="242" type="line" smooth="yes"/>
			<point x="80" y="72"/>
			<point x="188" y="-16"/>
		</contour>
	</outline>
</glyph>
<glyph name="V" format="2">
	<advance width="608"/>
	<unicode hex="0056"/>
	<outline>
		<contour>
			<point x="253" y="0" type="line"/>
			<point x="355" y="0" type="line"/>
			<point x="588" y="700" type="line"/>
			<point x="510" y="700" type="line"/>
			<point x="289" y="36" type="line"/>
			<point x="318" y="36" type="line"/>
			<point x="98" y="700" type="line"/>
			<point x="20" y="700" type="line"/>
		</contour>
	</outline>
</glyph>
<glyph name="W" format="2">
	<advance width="856"/>
	<unicode hex="0057"/>
	<outline>
		<contour>
			<point x="207" y="0" type="line"/>
			<point x="310" y="0" type="line"/>
			<point x="438" y="587" type="line"/>
			<point x="418" y="587" type="line"/>
			<point x="546" y="0" type="line"/>
			<point x="649" y="0" type="line"/>
			<point x="821" y="700" type="line"/>
			<point x="748" y="700" type="line"/>
			<point x="585" y="38" type="line"/>
			<point x="606" y="38" type="line"/>
			<point x="462" y="700" type="line"/>
			<point x="394" y="700" type="line"/>
			<point x="250" y="38" type="line"/>
			<point x="271" y="38" type="line"/>
			<point x="108" y="700" type="line"/>
			<point x="35" y="700" type="line"/>
		</contour>
	</outline>
</glyph>
<glyph name="X" format="2">
	<advance width="597"/>
	<unicode hex="0058"/>
	<outline>
		<contour>
			<point x="491" y="0" type="line"/>
			<point x="577" y="0" type="line"/>
			<point x="106" y="700" type="line"/>
			<point x="20" y="700" type="line"/>
		</contour>
		<contour>
			<point x="20" y="0" type="line"/>
			<point x="106" y="0" type="line"/>
			<point x="577" y="700" type="line"/>
			<point x="491" y="700" type="line"/>
		</contour>
	</outline>
</glyph>
<glyph name="Y" format="2">
	<advance width="552"/>
	<unicode hex="0059"/>
	<outline>
		<contour>
			<point x="145" y="0" type="line"/>
			<point x="227" y="0" type="line"/>
			<point x="532" y="700" type="line"/>
			<point x="450" y="700" type="line"/>
		</contour>
		<contour>
			<point x="253" y="165" type="line"/>
			<point x="300" y="246" type="line"/>
			<point x="102" y="700" type="line"/>
			<point x="20" y="700" type="line"/>
		</contour>
	</outline>
</glyph>
<glyph name="Z" format="2">
	<advance width="580"/>
	<unicode hex="005A"/>
	<outline>
		<contour>
			<point x="70" y="73" type="line"/>
			<point x="156" y="73" type="line"/>
			<point x="510" y="627" type="line"/>
			<point x="424" y="627" type="line"/>
		</contour>
		<contour>
			<point x="70" y="0" type="line"/>
			<point x="510" y="0" type="line"/>
			<point x="510" y="73" type="line"/>
			<point x="70" y="73" type="line"/>
		</contour>
		<contour>
			<point x="70" y="627" type="line"/>
			<point x="510" y="627" type="line"/>
			<point x="510" y="700" type="line"/>
			<point x="70" y="700" type="line"/>
		</contour>
	</outline>
</glyph>
<glyph name="bracketleft" format="2">
	<advance width="373"/>
	<unicode hex="005B"/>
	<outline>
		<contour>
			<point x="100" y="-110" type="line"/>
			<point x="175" y="-110" type="line"/>
			<point x="175" y="716" type="line"/>
			<point x="100" y="716" type="line"/>
		</contour>
		<contour>
			<point x="175" y="-110" type="line"/>
			<point x="323" y="-110" type="line"/>
			<point x="323" y="-37" type="line"/>
			<point x="175" y="-37" type="line"/>
		</contour>
		<contour>
			<point x="175" y="644" type="line"/>
			<point x="323" y="644" type="line"/>
			<point x="323" y="716" type="line"/>
			<point x="175" y="716" type="line"/>
		</contour>
	</outline>
</glyph>
<glyph name="backslash" format="2">
	<advance width="492"/>
	<unicode hex="005C"/>
	<outline>
		<contour>
			<point x="364" y="-110" type="line"/>
			<point x="442" y="-110" type="line"/>
			<point x="128" y="716" type="line"/>
			<point x="50" y="716" type="line"/>
		</contour>
	</outline>
</glyph>
<glyph name="bracketright" format="2">
	<advance width="373"/>
	<unicode hex="005D"/>
	<outline>
		<contour>
			<point x="198" y="-110" type="line"/>
			<point x="273" y="-110" type="line"/>
			<point x="273" y="716" type="line"/>
			<point x="198" y="716" type="line"/>
		</contour>
		<contour>
			<point x="50" y="-110" type="line"/>
			<point x="198" y="-110" type="line"/>
			<point x="198" y="-37" type="line"/>
			<point x="50" y="-37" type="line"/>
		</contour>
		<contour>
			<point x="50" y="644" type="line"/>
			<point x="198" y="644" type="line"/>
			<point x="198" y="716" type="line"/>
			<point x="50" y="716" type="line"/>
		</contour>
	</outline>
</glyph>
<glyph name="grave" format="2">
	<advance width="433"/>
	<unicode hex="0060"/>
	<outline>
		<contour>
			<point x="230" y="580" type="line"/>
			<point x="293" y="580" type="line"/>
			<point x="233" y="730" type="line"/>
			<point x="140" y="730" type="line"/>
		</contour>
	</outline>
</glyph>
<glyph name="a" format="2">
	<advance width="526"/>
	<unicode hex="0061"/>
	<outline>
		<contour>
			<point x="219" y="-16" type="curve" smooth="yes"/>
			<point x="329" y="-16"/>
			<point x="396" y="70"/>
			<point x="396" y="180" type="curve"/>
			<point x="386" y="140" type="line"/>
			<point x="386" y="0" type="line"/>
			<point x="461" y="0" type="line"/>
			<point x="461" y="331" type="line" smooth="yes"/>
			<point x="461" y="471"/>
			<point x="378" y="516"/>
			<point x="268" y="516" type="curve" smooth="yes"/>
			<point x="148" y="516"/>
			<point x="63" y="448"/>
			<point x="63" y="348" type="curve"/>
			<point x="136" y="338" type="line"/>
			<point x="136" y="408"/>
			<point x="188" y="443"/>
			<point x="268" y="443" type="curve" smooth="yes"/>
			<point x="338" y="443"/>
			<point x="374" y="418"/>
			<point x="383" y="379" type="curve" smooth="yes"/>
			<point x="390" y="350"/>
			<point x="381" y="312"/>
			<point x="291" y="308" type="curve" smooth="yes"/>
			<point x="181" y="303"/>
			<point x="50" y="275"/>
			<point x="50" y="140" type="curve" smooth="yes"/>
			<point x="50" y="50"/>
			<point x="119" y="-16"/>
		</contour>
		<contour>
			<point x="229" y="57" type="curve" smooth="yes"/>
			<point x="169" y="57"/>
			<point x="128" y="90"/>
			<point x="128" y="140" type="curve" smooth="yes"/>
			<point x="128" y="220"/>
			<point x="208" y="233"/>
			<point x="278" y="235" type="curve" smooth="yes"/>
			<point x="328" y="237"/>
			<point x="396" y="253"/>
			<point x="396" y="323" type="curve"/>
			<point x="386" y="313" type="line"/>
			<point x="386" y="243" type="line" smooth="yes"/>
			<point x="386" y="113"/>
			<point x="319" y="57"/>
		</contour>
	</outline>
</glyph>
<glyph name="c" format="2">
	<advance width="546"/>
	<unicode hex="0063"/>
	<outline>
		<contour>
			<point x="281" y="-16" type="curve" smooth="yes"/>
			<point x="401" y="-16"/>
			<point x="491" y="67"/>
			<point x="501" y="187" type="curve"/>
			<point x="423" y="197" type="line"/>
			<point x="418" y="117"/>
			<point x="371" y="57"/>
			<point x="281" y="57" type="curve" smooth="yes"/>
			<point x="171" y="57"/>
			<point x="123" y="148"/>
			<point x="123" y="248" type="curve" smooth="yes"/>
			<point x="123" y="348"/>
			<point x="171" y="443"/>
			<point x="281" y="443" type="curve" smooth="yes"/>
			<point x="371" y="443"/>
			<point x="418" y="377"/>
			<point x="423" y="297" type="curve"/>
			<point x="501" y="307" type="line"/>
			<point x="491" y="427"/>
			<point x="401" y="516"/>
			<point x="281" y="516" type="curve" smooth="yes"/>
			<point x="161" y="516"/>
			<point x="45" y="428"/>
			<point x="45" y="248" type="curve" smooth="yes"/>
			<point x="45" y="68"/>
			<point x="161" y="-16"/>
		</contour>
	</outline>
</glyph>
<glyph name="d" format="2">
	<advance width="581"/>
	<unicode hex="0064"/>
	<outline>
		<contour>
			<point x="431" y="0" type="line"/>
			<point x="506" y="0" type="line"/>
			<point x="506" y="700" type="line"/>
			<point x="431" y="700" type="line"/>
		</contour>
		<contour>
			<point x="267" y="-16" type="curve" smooth="yes"/>
			<point x="377" y="-16"/>
			<point x="436" y="70"/>
			<point x="436" y="170" type="curve"/>
			<point x="436" y="330" type="line"/>
			<point x="436" y="430"/>
			<point x="377" y="516"/>
			<point x="267" y="516" type="curve" smooth="yes"/>
			<point x="127" y="516"/>
			<point x="45" y="390"/>
			<point x="45" y="250" type="curve" smooth="yes"/>
			<point x="45" y="110"/>
			<point x="127" y="-16"/>
		</contour>
		<contour>
			<point x="277" y="57" type="curve" smooth="yes"/>
			<point x="197" y="57"/>
			<point x="123" y="120"/>
			<point x="123" y="250" type="curve" smooth="yes"/>
			<point x="123" y="380"/>
			<point x="197" y="443"/>
			<point x="277" y="443" type="curve" smooth="yes"/>
			<point x="357" y="443"/>
			<point x="431" y="380"/>
			<point x="431" y="250" type="curve" smooth="yes"/>
			<point x="431" y="120"/>
			<point x="357" y="57"/>
		</contour>
	</outline>
</glyph>
<glyph name="e" format="2">
	<advance width="541"/>
	<unicode hex="0065"/>
	<outline>
		<contour>
			<point x="281" y="-16" type="curve" smooth="yes"/>
			<point x="401" y="-16"/>
			<point x="473" y="46"/>
			<point x="493" y="144" type="curve"/>
			<point x="415" y="154" type="line"/>
			<point x="405" y="114"/>
			<point x="381" y="57"/>
			<point x="281" y="57" type="curve" smooth="yes"/>
			<point x="181" y="57"/>
			<point x="123" y="140"/>
			<point x="123" y="230" type="curve"/>
			<point x="496" y="230" type="line"/>
			<point x="496" y="248" type="line" smooth="yes"/>
			<point x="496" y="428"/>
			<point x="392" y="516"/>
			<point x="272" y="516" type="curve" smooth="yes"/>
			<point x="152" y="516"/>
			<point x="45" y="428"/>
			<point x="45" y="248" type="curve" smooth="yes"/>
			<point x="45" y="68"/>
			<point x="161" y="-16"/>
		</contour>
		<contour>
			<point x="123" y="298" type="line"/>
			<point x="123" y="358"/>
			<point x="162" y="443"/>
			<point x="272" y="443" type="curve" smooth="yes"/>
			<point x="382" y="443"/>
			<point x="418" y="358"/>
			<point x="418" y="298" type="curve"/>
		</contour>
	</outline>
</glyph>
<glyph name="f" format="2">
	<advance width="373"/>
	<unicode hex="0066"/>
	<outline>
		<contour>
			<point x="128" y="0" type="line"/>
			<point x="203" y="0" type="line"/>
			<point x="203" y="577" type="line" smooth="yes"/>
			<point x="203" y="617"/>
			<point x="223" y="637"/>
			<point x="263" y="637" type="curve" smooth="yes"/>
			<point x="353" y="637" type="line"/>
			<point x="353" y="710" type="line"/>
			<point x="268" y="710" type="line" smooth="yes"/>
			<point x="178" y="710"/>
			<point x="128" y="660"/>
			<point x="128" y="570" type="curve" smooth="yes"/>
		</contour>
		<contour>
			<point x="20" y="427" type="line"/>
			<point x="353" y="427" type="line"/>
			<point x="353" y="500" type="line"/>
			<point x="20" y="500" type="line"/>
		</contour>
	</outline>
</glyph>
<glyph name="g" format="2">
	<advance width="581"/>
	<unicode hex="0067"/>
	<outline>
		<contour>
			<point x="277" y="-216" type="curve" smooth="yes"/>
			<point x="417" y="-216"/>
			<point x="506" y="-141"/>
			<point x="506" y="19" type="curve" smooth="yes"/>
			<point x="506" y="500" type="line"/>
			<point x="431" y="500" type="line"/>
			<point x="431" y="19" type="line" smooth="yes"/>
			<point x="431" y="-101"/>
			<point x="367" y="-143"/>
			<point x="277" y="-143" type="curve" smooth="yes"/>
			<point x="177" y="-143"/>
			<point x="138" y="-76"/>
			<point x="138" y="-51" type="curve"/>
			<point x="60" y="-61" type="line"/>
			<point x="60" y="-116"/>
			<point x="137" y="-216"/>
		</contour>
		<contour>
			<point x="267" y="-16" type="curve" smooth="yes"/>
			<point x="377" y="-16"/>
			<point x="436" y="70"/>
			<point x="436" y="170" type="curve"/>
			<point x="436" y="330" type="line"/>
			<point x="436" y="430"/>
			<point x="377" y="516"/>
			<point x="267" y="516" type="curve" smooth="yes"/>
			<point x="127" y="516"/>
			<point x="45" y="390"/>
			<point x="45" y="250" type="curve" smooth="yes"/>
			<point x="45" y="110"/>
			<point x="127" y="-16"/>
		</contour>
		<contour>
			<point x="277" y="57" type="curve" smooth="yes"/>
			<point x="197" y="57"/>
			<point x="123" y="120"/>
			<point x="123" y="250" type="curve" smooth="yes"/>
			<point x="123" y="380"/>
			<point x="197" y="443"/>
			<point x="277" y="443" type="curve" smooth="yes"/>
			<point x="357" y="443"/>
			<point x="431" y="380"/>
			<point x="431" y="250" type="curve" smooth="yes"/>
			<point x="431" y="120"/>
			<point x="357" y="57"/>
		</contour>
	</outline>
</glyph>
<glyph name="k" format="2">
	<advance width="516"/>
	<unicode hex="006B"/>
	<outline>
		<contour>
			<point x="145" y="154" type="line"/>
			<point x="479" y="500" type="line"/>
			<point x="384" y="500" type="line"/>
			<point x="93" y="201" type="line"/>
		</contour>
		<contour>
			<point x="75" y="0" type="line"/>
			<point x="150" y="0" type="line"/>
			<point x="150" y="700" type="line"/>
			<point x="75" y="700" type="line"/>
		</contour>
		<contour>
			<point x="403" y="0" type="line"/>
			<point x="491" y="0" type="line"/>
			<point x="273" y="363" type="line"/>
			<point x="233" y="290" type="line"/>
		</contour>
	</outline>
</glyph>
<glyph name="l" format="2">
	<advance width="225"/>
	<unicode hex="006C"/>
	<outline>
		<contour>
			<point x="75" y="0" type="line"/>
			<point x="150" y="0" type="line"/>
			<point x="150" y="710" type="line"/>
			<point x="75" y="710" type="line"/>
		</contour>
	</outline>
</glyph>
<glyph name="m" format="2">
	<advance width="856"/>
	<unicode hex="006D"/>
	<outline>
		<contour>
			<point x="75" y="0" type="line"/>
			<point x="150" y="0" type="line"/>
			<point x="150" y="500" type="line"/>
			<point x="75" y="500" type="line"/>
		</contour>
		<contour>
			<point x="393" y="0" type="line"/>
			<point x="468" y="0" type="line"/>
			<point x="468" y="349" type="line" smooth="yes"/>
			<point x="468" y="459"/>
			<point x="405" y="516"/>
			<point x="315" y="516" type="curve" smooth="yes"/>
			<point x="215" y="516"/>
			<point x="145" y="449"/>
			<point x="145" y="349" type="curve" smooth="yes"/>
			<point x="150" y="243" type="line"/>
			<point x="150" y="393"/>
			<point x="210" y="443"/>
			<point x="290" y="443" type="curve" smooth="yes"/>
			<point x="360" y="443"/>
			<point x="393" y="399"/>
			<point x="393" y="319" type="curve" smooth="yes"/>
		</contour>
		<contour>
			<point x="711" y="0" type="line"/>
			<point x="786" y="0" type="line"/>
			<point x="786" y="349" type="line" smooth="yes"/>
			<point x="786" y="459"/>
			<point x="723" y="516"/>
			<point x="633" y="516" type="curve" smooth="yes"/>
			<point x="533" y="516"/>
			<point x="458" y="449"/>
			<point x="458" y="349" type="curve"/>
			<point x="468" y="243" type="line"/>
			<point x="468" y="393"/>
			<point x="528" y="443"/>
			<point x="608" y="443" type="curve" smooth="yes"/>
			<point x="678" y="443"/>
			<point x="711" y="399"/>
			<point x="711" y="319" type="curve" smooth="yes"/>
		</contour>
	</outline>
</glyph>
<glyph name="n" format="2">
	<advance width="548"/>
	<unicode hex="006E"/>
	<outline>
		<contour>
			<point x="403" y="0" type="line"/>
			<point x="478" y="0" type="line"/>
			<point x="478" y="349" type="line" smooth="yes"/>
			<point x="478" y="459"/>
			<point x="415" y="516"/>
			<point x="325" y="516" type="curve" smooth="yes"/>
			<point x="225" y="516"/>
			<point x="145" y="449"/>
			<point x="145" y="349" type="curve" smooth="yes"/>
			<point x="150" y="243" type="line"/>
			<point x="150" y="393"/>
			<point x="220" y="443"/>
			<point x="300" y="443" type="curve" smooth="yes"/>
			<point x="370" y="443"/>
			<point x="403" y="399"/>
			<point x="403" y="319" type="curve" smooth="yes"/>
		</contour>
		<contour>
			<point x="75" y="0" type="line"/>
			<point x="150" y="0" type="line"/>
			<point x="150" y="500" type="line"/>
			<point x="75" y="500" type="line"/>
		</contour>
	</outline>
</glyph>
<glyph name="o" format="2">
	<advance width="561"/>
	<unicode hex="006F"/>
	<outline>
		<contour>
			<point x="281" y="-16" type="curve" smooth="yes"/>
			<point x="401" y="-16"/>
			<point x="516" y="68"/>
			<point x="516" y="248" type="curve" smooth="yes"/>
			<point x="516" y="428"/>
			<point x="401" y="516"/>
			<point x="281" y="516" type="curve" smooth="yes"/>
			<point x="161" y="516"/>
			<point x="45" y="428"/>
			<point x="45" y="248" type="curve" smooth="yes"/>
			<point x="45" y="68"/>
			<point x="161" y="-16"/>
		</contour>
		<contour>
			<point x="281" y="57" type="curve" smooth="yes"/>
			<point x="171" y="57"/>
			<point x="123" y="138"/>
			<point x="123" y="248" type="curve" smooth="yes"/>
			<point x="123" y="358"/>
			<point x="171" y="443"/>
			<point x="281" y="443" type="curve" smooth="yes"/>
			<point x="391" y="443"/>
			<point x="439" y="358"/>
			<point x="439" y="248" type="curve" smooth="yes"/>
			<point x="439" y="138"/>
			<point x="391" y="57"/>
		</contour>
	</outline>
</glyph>
<glyph name="p" format="2">
	<advance width="581"/>
	<unicode hex="0070"/>
	<outline>
		<contour>
			<point x="314" y="-16" type="curve" smooth="yes"/>
			<point x="454" y="-16"/>
			<point x="536" y="110"/>
			<point x="536" y="250" type="curve" smooth="yes"/>
			<point x="536" y="390"/>
			<point x="454" y="516"/>
			<point x="314" y="516" type="curve" smooth="yes"/>
			<point x="204" y="516"/>
			<point x="145" y="430"/>
			<point x="145" y="330" type="curve" smooth="yes"/>
			<point x="145" y="170" type="line" smooth="yes"/>
			<point x="145" y="70"/>
			<point x="204" y="-16"/>
		</contour>
		<contour>
			<point x="304" y="57" type="curve" smooth="yes"/>
			<point x="224" y="57"/>
			<point x="150" y="120"/>
			<point x="150" y="250" type="curve" smooth="yes"/>
			<point x="150" y="380"/>
			<point x="224" y="443"/>
			<point x="304" y="443" type="curve" smooth="yes"/>
			<point x="384" y="443"/>
			<point x="458" y="380"/>
			<point x="458" y="250" type="curve" smooth="yes"/>
			<point x="458" y="120"/>
			<point x="384" y="57"/>
		</contour>
		<contour>
			<point x="75" y="-200" type="line"/>
			<point x="150" y="-200" type="line"/>
			<point x="150" y="500" type="line"/>
			<point x="75" y="500" type="line"/>
		</contour>
	</outline>
</glyph>
<glyph name="r" format="2">
	<advance width="378"/>
	<unicode hex="0072"/>
	<outline>
		<contour>
			<point x="80" y="0" type="line"/>
			<point x="155" y="0" type="line"/>
			<point x="155" y="228" type="line" smooth="yes"/>
			<point x="155" y="358"/>
			<point x="196" y="427"/>
			<point x="276" y="427" type="curve" smooth="yes"/>
			<point x="358" y="427" type="line"/>
			<point x="358" y="500" type="line"/>
			<point x="266" y="500" type="line" smooth="yes"/>
			<point x="186" y="500"/>
			<point x="147" y="405"/>
			<point x="147" y="275" type="curve"/>
			<point x="155" y="335" type="line"/>
			<point x="155" y="500" type="line"/>
			<point x="80" y="500" type="line"/>
		</contour>
	</outline>
</glyph>
<glyph name="s" format="2">
	<advance width="508"/>
	<unicode hex="0073"/>
	<outline>
		<contour>
			<point x="261" y="-16" type="curve" smooth="yes"/>
			<point x="373" y="-16"/>
			<point x="463" y="41"/>
			<point x="463" y="151" type="curve" smooth="yes"/>
			<point x="463" y="371"/>
			<point x="139" y="238"/>
			<point x="139" y="368" type="curve" smooth="yes"/>
			<point x="139" y="418"/>
			<point x="181" y="443"/>
			<point x="251" y="443" type="curve" smooth="yes"/>
			<point x="319" y="443"/>
			<point x="370" y="416"/>
			<point x="370" y="362" type="curve"/>
			<point x="443" y="372" type="line"/>
			<point x="443" y="472"/>
			<point x="339" y="516"/>
			<point x="251" y="516" type="curve" smooth="yes"/>
			<point x="149" y="516"/>
			<point x="61" y="458"/>
			<point x="61" y="368" type="curve" smooth="yes"/>
			<point x="61" y="158"/>
			<point x="385" y="291"/>
			<point x="385" y="151" type="curve" smooth="yes"/>
			<point x="385" y="81"/>
			<point x="333" y="57"/>
			<point x="261" y="57" type="curve" smooth="yes"/>
			<point x="173" y="57"/>
			<point x="113" y="101"/>
			<point x="113" y="180" type="curve"/>
			<point x="40" y="170" type="line"/>
			<point x="40" y="51"/>
			<point x="143" y="-16"/>
		</contour>
	</outline>
</glyph>
<glyph name="t" format="2">
	<advance width="378"/>
	<unicode hex="0074"/>
	<outline>
		<contour>
			<point x="263" y="0" type="curve" smooth="yes"/>
			<point x="348" y="0" type="line"/>
			<point x="348" y="73" type="line"/>
			<point x="258" y="73" type="line" smooth="yes"/>
			<point x="218" y="73"/>
			<point x="198" y="93"/>
			<point x="198" y="133" type="curve" smooth="yes"/>
			<point x="198" y="660" type="line"/>
			<point x="123" y="660" type="line"/>
			<point x="123" y="140" type="line" smooth="yes"/>
			<point x="123" y="50"/>
			<point x="173" y="0"/>
		</contour>
		<contour>
			<point x="15" y="427" type="line"/>
			<point x="348" y="427" type="line"/>
			<point x="348" y="500" type="line"/>
			<point x="15" y="500" type="line"/>
		</contour>
	</outline>
</glyph>
<glyph name="u" format="2">
	<advance width="543"/>
	<unicode hex="0075"/>
	<outline>
		<contour>
			<point x="218" y="-16" type="curve" smooth="yes"/>
			<point x="318" y="-16"/>
			<point x="398" y="61"/>
			<point x="398" y="161" type="curve"/>
			<point x="393" y="257" type="line"/>
			<point x="393" y="107"/>
			<point x="323" y="57"/>
			<point x="243" y="57" type="curve" smooth="yes"/>
			<point x="173" y="57"/>
			<point x="140" y="101"/>
			<point x="140" y="181" type="curve" smooth="yes"/>
			<point x="140" y="500" type="line"/>
			<point x="65" y="500" type="line"/>
			<point x="65" y="151" type="line" smooth="yes"/>
			<point x="65" y="41"/>
			<point x="128" y="-16"/>
		</contour>
		<contour>
			<point x="393" y="0" type="line"/>
			<point x="468" y="0" type="line"/>
			<point x="468" y="500" type="line"/>
			<point x="393" y="500" type="line"/>
		</contour>
	</outline>
</glyph>
<glyph name="v" format="2">
	<advance width="490"/>
	<unicode hex="0076"/>
	<outline>
		<contour>
			<point x="193" y="0" type="line"/>
			<point x="287" y="0" type="line"/>
			<point x="475" y="500" type="line"/>
			<point x="397" y="500" type="line"/>
			<point x="225" y="43" type="line"/>
			<point x="256" y="43" type="line"/>
			<point x="93" y="500" type="line"/>
			<point x="15" y="500" type="line"/>
		</contour>
	</outline>
</glyph>
<glyph name="w" format="2">
	<advance width="763"/>
	<unicode hex="0077"/>
	<outline>
		<contour>
			<point x="152" y="0" type="line"/>
			<point x="250" y="0" type="line"/>
			<point x="396" y="446" type="line"/>
			<point x="368" y="446" type="line"/>
			<point x="513" y="0" type="line"/>
			<point x="611" y="0" type="line"/>
			<point x="733" y="500" type="line"/>
			<point x="655" y="500" type="line"/>
			<point x="543" y="40" type="line"/>
			<point x="568" y="41" type="line"/>
			<point x="418" y="500" type="line"/>
			<point x="345" y="500" type="line"/>
			<point x="195" y="41" type="line"/>
			<point x="220" y="40" type="line"/>
			<point x="108" y="500" type="line"/>
			<point x="30" y="500" type="line"/>
		</contour>
	</outline>
</glyph>
<glyph name="x" format="2">
	<advance width="482"/>
	<unicode hex="0078"/>
	<outline>
		<contour>
			<point x="376" y="0" type="line"/>
			<point x="462" y="0" type="line"/>
			<point x="106" y="500" type="line"/>
			<point x="20" y="500" type="line"/>
		</contour>
		<contour>
			<point x="20" y="0" type="line"/>
			<point x="106" y="0" type="line"/>
			<point x="462" y="500" type="line"/>
			<point x="376" y="500" type="line"/>
		</contour>
	</outline>
</glyph>
<glyph name="y" format="2">
	<advance width="506"/>
	<unicode hex="0079"/>
	<outline>
		<contour>
			<point x="204" y="0" type="line"/>
			<point x="281" y="0" type="line"/>
			<point x="92" y="500" type="line"/>
			<point x="15" y="500" type="line"/>
		</contour>
		<contour>
			<point x="120" y="-200" type="line"/>
			<point x="198" y="-200" type="line"/>
			<point x="491" y="500" type="line"/>
			<point x="413" y="500" type="line"/>
		</contour>
	</outline>
</glyph>
<glyph name="z" format="2">
	<advance width="467"/>
	<unicode hex="007A"/>
	<outline>
		<contour>
			<point x="35" y="68" type="line"/>
			<point x="123" y="68" type="line"/>
			<point x="432" y="432" type="line"/>
			<point x="345" y="432" type="line"/>
		</contour>
		<contour>
			<point x="35" y="0" type="line"/>
			<point x="432" y="0" type="line"/>
			<point x="432" y="68" type="line"/>
			<point x="35" y="68" type="line"/>
		</contour>
		<contour>
			<point x="35" y="432" type="line"/>
			<point x="432" y="432" type="line"/>
			<point x="432" y="500" type="line"/>
			<point x="35" y="500" type="line"/>
		</contour>
	</outline>
</glyph>
<glyph name="braceleft" format="2">
	<advance width="443"/>
	<unicode hex="007B"/>
	<outline>
		<contour>
			<point x="100" y="303" type="line"/>
			<point x="172" y="303" type="line"/>
			<point x="212" y="323"/>
			<point x="263" y="358"/>
			<point x="263" y="448" type="curve" smooth="yes"/>
			<point x="263" y="591" type="line" smooth="yes"/>
			<point x="263" y="631"/>
			<point x="285" y="643"/>
			<point x="315" y="643" type="curve" smooth="yes"/>
			<point x="393" y="643" type="line"/>
			<point x="393" y="716" type="line"/>
			<point x="315" y="716" type="line" smooth="yes"/>
			<point x="248" y="716"/>
			<point x="195" y="678"/>
			<point x="195" y="591" type="curve" smooth="yes"/>
			<point x="195" y="458" type="line" smooth="yes"/>
			<point x="195" y="374"/>
			<point x="130" y="336"/>
			<point x="100" y="336" type="curve"/>
		</contour>
		<contour>
			<point x="315" y="-110" type="curve" smooth="yes"/>
			<point x="393" y="-110" type="line"/>
			<point x="393" y="-37" type="line"/>
			<point x="315" y="-37" type="line" smooth="yes"/>
			<point x="285" y="-37"/>
			<point x="263" y="-25"/>
			<point x="263" y="15" type="curve" smooth="yes"/>
			<point x="263" y="158" type="line" smooth="yes"/>
			<point x="263" y="248"/>
			<point x="212" y="283"/>
			<point x="172" y="303" type="curve"/>
			<point x="100" y="303" type="line"/>
			<point x="100" y="270" type="line"/>
			<point x="130" y="270"/>
			<point x="195" y="238"/>
			<point x="195" y="148" type="curve" smooth="yes"/>
			<point x="195" y="15" type="line" smooth="yes"/>
			<point x="195" y="-72"/>
			<point x="248" y="-110"/>
		</contour>
	</outline>
</glyph>
<glyph name="bar" format="2">
	<advance width="273"/>
	<unicode hex="007C"/>
	<outline>
		<contour>
			<point x="100" y="-96" type="line"/>
			<point x="173" y="-96" type="line"/>
			<point x="173" y="780" type="line"/>
			<point x="100" y="780" type="line"/>
		</contour>
	</outline>
</glyph>
<glyph name="braceright" format="2">
	<advance width="443"/>
	<unicode hex="007D"/>
	<outline>
		<contour>
			<point x="271" y="303" type="curve"/>
			<point x="343" y="303" type="line"/>
			<point x="343" y="336" type="line"/>
			<point x="313" y="336"/>
			<point x="248" y="374"/>
			<point x="248" y="458" type="curve" smooth="yes"/>
			<point x="248" y="591" type="line" smooth="yes"/>
			<point x="248" y="678"/>
			<point x="195" y="716"/>
			<point x="128" y="716" type="curve" smooth="yes"/>
			<point x="50" y="716" type="line"/>
			<point x="50" y="643" type="line"/>
			<point x="128" y="643" type="line" smooth="yes"/>
			<point x="158" y="643"/>
			<point x="180" y="631"/>
			<point x="180" y="591" type="curve" smooth="yes"/>
			<point x="180" y="448" type="line" smooth="yes"/>
			<point x="180" y="358"/>
			<point x="231" y="323"/>
		</contour>
		<contour>
			<point x="50" y="-110" type="line"/>
			<point x="128" y="-110" type="line" smooth="yes"/>
			<point x="195" y="-110"/>
			<point x="248" y="-72"/>
			<point x="248" y="15" type="curve" smooth="yes"/>
			<point x="248" y="148" type="line" smooth="yes"/>
			<point x="248" y="238"/>
			<point x="313" y="270"/>
			<point x="343" y="270" type="curve"/>
			<point x="343" y="303" type="line"/>
			<point x="271" y="303" type="line"/>
			<point x="231" y="283"/>
			<point x="180" y="248"/>
			<point x="180" y="158" type="curve" smooth="yes"/>
			<point x="180" y="15" type="line" smooth="yes"/>
			<point x="180" y="-25"/>
			<point x="158" y="-37"/>
			<point x="128" y="-37" type="curve" smooth="yes"/>
			<point x="50" y="-37" type="line"/>
		</contour>
	</outline>
</glyph>
<glyph name="asciitilde" format="2">
	<advance width="482"/>
	<unicode hex="007E"/>
	<outline>
		<contour>
			<point x="133" y="225" type="line"/>
			<point x="133" y="245"/>
			<point x="136" y="291"/>
			<point x="169" y="291" type="curve" smooth="yes"/>
			<point x="209" y="291"/>
			<point x="253" y="235"/>
			<point x="323" y="235" type="curve" smooth="yes"/>
			<point x="383" y="235"/>
			<point x="422" y="284"/>
			<point x="422" y="354" type="curve"/>
			<point x="349" y="364" type="line"/>
			<point x="349" y="344"/>
			<point x="353" y="298"/>
			<point x="313" y="298" type="curve" smooth="yes"/>
			<point x="273" y="298"/>
			<point x="229" y="354"/>
			<point x="159" y="354" type="curve" smooth="yes"/>
			<point x="96" y="354"/>
			<point x="60" y="305"/>
			<point x="60" y="235" type="curve"/>
		</contour>
	</outline>
</glyph>
<glyph name="cent" format="2">
	<advance width="546"/>
	<unicode hex="00A2"/>
	<outline>
		<contour>
			<point x="281" y="76" type="curve" smooth="yes"/>
			<point x="401" y="76"/>
			<point x="491" y="159"/>
			<point x="501" y="279" type="curve"/>
			<point x="423" y="289" type="line"/>
			<point x="418" y="209"/>
			<point x="371" y="149"/>
			<point x="281" y="149" type="curve" smooth="yes"/>
			<point x="171" y="149"/>
			<point x="123" y="240"/>
			<point x="123" y="340" type="curve" smooth="yes"/>
			<point x="123" y="440"/>
			<point x="171" y="535"/>
			<point x="281" y="535" type="curve" smooth="yes"/>
			<point x="371" y="535"/>
			<point x="418" y="469"/>
			<point x="423" y="389" type="curve"/>
			<point x="501" y="399" type="line"/>
			<point x="491" y="519"/>
			<point x="401" y="608"/>
			<point x="281" y="608" type="curve" smooth="yes"/>
			<point x="161" y="608"/>
			<point x="45" y="520"/>
			<point x="45" y="340" type="curve" smooth="yes"/>
			<point x="45" y="160"/>
			<point x="161" y="76"/>
		</contour>
		<contour>
			<point x="250" y="-116" type="line"/>
			<point x="313" y="-116" type="line"/>
			<point x="313" y="800" type="line"/>
			<point x="250" y="800" type="line"/>
		</contour>
	</outline>
</glyph>
<glyph name="sterling" format="2">
	<advance width="682"/>
	<unicode hex="00A3"/>
	<outline>
		<contour>
			<point x="80" y="0" type="line"/>
			<point x="582" y="0" type="line"/>
			<point x="582" y="73" type="line"/>
			<point x="131" y="73" type="line"/>
			<point x="140" y="49" type="line"/>
			<point x="363" y="181"/>
			<point x="215" y="321"/>
			<point x="215" y="504" type="curve" smooth="yes"/>
			<point x="215" y="594"/>
			<point x="290" y="643"/>
			<point x="370" y="643" type="curve" smooth="yes"/>
			<point x="470" y="643"/>
			<point x="529" y="575"/>
			<point x="529" y="485" type="curve"/>
			<point x="602" y="495" type="line"/>
			<point x="602" y="625"/>
			<point x="508" y="716"/>
			<point x="370" y="716" type="curve" smooth="yes"/>
			<point x="230" y="716"/>
			<point x="137" y="623"/>
			<point x="137" y="503" type="curve" smooth="yes"/>
			<point x="137" y="288"/>
			<point x="270" y="218"/>
			<point x="80" y="73" type="curve"/>
		</contour>
		<contour>
			<point x="20" y="297" type="line"/>
			<point x="459" y="297" type="line"/>
			<point x="459" y="370" type="line"/>
			<point x="20" y="370" type="line"/>
		</contour>
	</outline>
</glyph>
<glyph name="currency" format="2">
	<advance width="646"/>
	<unicode hex="00A4"/>
	<outline>
		<contour>
			<point x="323" y="77" type="curve" smooth="yes"/>
			<point x="443" y="77"/>
			<point x="540" y="174"/>
			<point x="540" y="294" type="curve" smooth="yes"/>
			<point x="540" y="414"/>
			<point x="443" y="511"/>
			<point x="323" y="511" type="curve" smooth="yes"/>
			<point x="203" y="511"/>
			<point x="106" y="414"/>
			<point x="106" y="294" type="curve" smooth="yes"/>
			<point x="106" y="174"/>
			<point x="203" y="77"/>
		</contour>
		<contour>
			<point x="131" y="51" type="line"/>
			<point x="219" y="137" type="line"/>
			<point x="181" y="204" type="line"/>
			<point x="80" y="103" type="line"/>
		</contour>
		<contour>
			<point x="515" y="51" type="line"/>
			<point x="566" y="103" type="line"/>
			<point x="476" y="193" type="line"/>
			<point x="417" y="149" type="line"/>
		</contour>
		<contour>
			<point x="323" y="151" type="curve" smooth="yes"/>
			<point x="243" y="151"/>
			<point x="179" y="215"/>
			<point x="179" y="295" type="curve" smooth="yes"/>
			<point x="179" y="374"/>
			<point x="243" y="438"/>
			<point x="323" y="438" type="curve" smooth="yes"/>
			<point x="402" y="438"/>
			<point x="466" y="374"/>
			<point x="466" y="295" type="curve" smooth="yes"/>
			<point x="466" y="215"/>
			<point x="402" y="151"/>
		</contour>
		<contour>
			<point x="172" y="394" type="line"/>
			<point x="227" y="442" type="line"/>
			<point x="132" y="537" type="line"/>
			<point x="80" y="486" type="line"/>
		</contour>
		<contour>
			<point x="476" y="396" type="line"/>
			<point x="566" y="486" type="line"/>
			<point x="514" y="537" type="line"/>
			<point x="423" y="446" type="line"/>
		</contour>
	</outline>
</glyph>
<glyph name="yen" format="2">
	<advance width="628"/>
	<unicode hex="00A5"/>
	<outline>
		<contour>
			<point x="353" y="279" type="line"/>
			<point x="608" y="700" type="line"/>
			<point x="520" y="700" type="line"/>
			<point x="287" y="315" type="line"/>
		</contour>
		<contour>
			<point x="275" y="0" type="line"/>
			<point x="353" y="0" type="line"/>
			<point x="353" y="317" type="line"/>
			<point x="275" y="317" type="line"/>
		</contour>
		<contour>
			<point x="75" y="137" type="line"/>
			<point x="554" y="137" type="line"/>
			<point x="554" y="200" type="line"/>
			<point x="75" y="200" type="line"/>
		</contour>
		<contour>
			<point x="75" y="270" type="line"/>
			<point x="554" y="270" type="line"/>
			<point x="554" y="333" type="line"/>
			<point x="75" y="333" type="line"/>
		</contour>
		<contour>
			<point x="275" y="279" type="line"/>
			<point x="341" y="315" type="line"/>
			<point x="108" y="700" type="line"/>
			<point x="20" y="700" type="line"/>
		</contour>
	</outline>
</glyph>
<glyph name="brokenbar" format="2">
	<advance width="273"/>
	<unicode hex="00A6"/>
	<outline>
		<contour>
			<point x="100" y="392" type="line"/>
			<point x="173" y="392" type="line"/>
			<point x="173" y="780" type="line"/>
			<point x="100" y="780" type="line"/>
		</contour>
		<contour>
			<point x="100" y="-96" type="line"/>
			<point x="173" y="-96" type="line"/>
			<point x="173" y="292" type="line"/>
			<point x="100" y="292" type="line"/>
		</contour>
	</outline>
</glyph>
<glyph name="section" format="2">
	<advance width="480"/>
	<unicode hex="00A7"/>
	<outline>
		<contour>
			<point x="301" y="172" type="line"/>
			<point x="312" y="172"/>
			<point x="430" y="188"/>
			<point x="430" y="288" type="curve" smooth="yes"/>
			<point x="430" y="468"/>
			<point x="141" y="438"/>
			<point x="141" y="558" type="curve" smooth="yes"/>
			<point x="141" y="598"/>
			<point x="176" y="643"/>
			<point x="236" y="643" type="curve" smooth="yes"/>
			<point x="296" y="643"/>
			<point x="342" y="600"/>
			<point x="342" y="530" type="curve"/>
			<point x="420" y="540" type="line"/>
			<point x="420" y="630"/>
			<point x="346" y="716"/>
			<point x="236" y="716" type="curve" smooth="yes"/>
			<point x="126" y="716"/>
			<point x="63" y="638"/>
			<point x="63" y="558" type="curve" smooth="yes"/>
			<point x="63" y="368"/>
			<point x="352" y="418"/>
			<point x="352" y="288" type="curve" smooth="yes"/>
			<point x="352" y="238"/>
			<point x="302" y="205"/>
			<point x="252" y="205" type="curve"/>
		</contour>
		<contour>
			<point x="244" y="-84" type="curve" smooth="yes"/>
			<point x="354" y="-84"/>
			<point x="417" y="-6"/>
			<point x="417" y="74" type="curve" smooth="yes"/>
			<point x="417" y="264"/>
			<point x="128" y="214"/>
			<point x="128" y="344" type="curve" smooth="yes"/>
			<point x="128" y="394"/>
			<point x="178" y="427"/>
			<point x="228" y="427" type="curve"/>
			<point x="179" y="460" type="line"/>
			<point x="168" y="460"/>
			<point x="50" y="444"/>
			<point x="50" y="344" type="curve" smooth="yes"/>
			<point x="50" y="164"/>
			<point x="339" y="194"/>
			<point x="339" y="74" type="curve" smooth="yes"/>
			<point x="339" y="34"/>
			<point x="304" y="-11"/>
			<point x="244" y="-11" type="curve" smooth="yes"/>
			<point x="184" y="-11"/>
			<point x="138" y="32"/>
			<point x="138" y="102" type="curve"/>
			<point x="60" y="92" type="line"/>
			<point x="60" y="2"/>
			<point x="134" y="-84"/>
		</contour>
	</outline>
</glyph>
<glyph name="dieresis" format="2">
	<advance width="508"/>
	<unicode hex="00A8"/>
	<outline>
		<contour>
			<point x="288" y="580" type="line"/>
			<point x="368" y="580" type="line"/>
			<point x="368" y="660" type="line"/>
			<point x="288" y="660" type="line"/>
		</contour>
		<contour>
			<point x="140" y="580" type="line"/>
			<point x="220" y="580" type="line"/>
			<point x="220" y="660" type="line"/>
			<point x="140" y="660" type="line"/>
		</contour>
	</outline>
</glyph>
<glyph name="copyright" format="2">
	<advance width="832"/>
	<unicode hex="00A9"/>
	<outline>
		<contour>
			<point x="422" y="146" type="curve" smooth="yes"/>
			<point x="515" y="146"/>
			<point x="586" y="211"/>
			<point x="591" y="295" type="curve"/>
			<point x="525" y="295" type="line"/>
			<point x="523" y="254"/>
			<point x="490" y="209"/>
			<point x="422" y="209" type="curve" smooth="yes"/>
			<point x="342" y="209"/>
			<point x="308" y="274"/>
			<point x="308" y="348" type="curve" smooth="yes"/>
			<point x="308" y="422"/>
			<point x="342" y="490"/>
			<point x="422" y="490" type="curve" smooth="yes"/>
			<point x="490" y="490"/>
			<point x="523" y="441"/>
			<point x="525" y="398" type="curve"/>
			<point x="591" y="398" type="line"/>
			<point x="586" y="482"/>
			<point x="515" y="553"/>
			<point x="422" y="553" type="curve" smooth="yes"/>
			<point x="330" y="553"/>
			<point x="241" y="485"/>
			<point x="241" y="348" type="curve" smooth="yes"/>
			<point x="241" y="211"/>
			<point x="330" y="146"/>
		</contour>
		<component base="whiteCircle" xOffset="-30"/>
	</outline>
</glyph>
<glyph name="logicalnot" format="2">
	<advance width="661"/>
	<unicode hex="00AC"/>
	<outline>
		<contour>
			<point x="100" y="270" type="line"/>
			<point x="561" y="270" type="line"/>
			<point x="561" y="336" type="line"/>
			<point x="100" y="336" type="line"/>
		</contour>
		<contour>
			<point x="495" y="76" type="line"/>
			<point x="561" y="76" type="line"/>
			<point x="561" y="270" type="line"/>
			<point x="495" y="270" type="line"/>
		</contour>
	</outline>
</glyph>
<glyph name="registered" format="2">
	<advance width="530"/>
	<unicode hex="00AE"/>
	<outline>
		<contour>
			<point x="265" y="286" type="curve" smooth="yes"/>
			<point x="385" y="286"/>
			<point x="480" y="381"/>
			<point x="480" y="501" type="curve" smooth="yes"/>
			<point x="480" y="621"/>
			<point x="385" y="716"/>
			<point x="265" y="716" type="curve" smooth="yes"/>
			<point x="146" y="716"/>
			<point x="50" y="621"/>
			<point x="50" y="501" type="curve" smooth="yes"/>
			<point x="50" y="381"/>
			<point x="146" y="286"/>
		</contour>
		<contour>
			<point x="265" y="323" type="curve" smooth="yes"/>
			<point x="166" y="323"/>
			<point x="87" y="402"/>
			<point x="87" y="501" type="curve" smooth="yes"/>
			<point x="87" y="601"/>
			<point x="166" y="679"/>
			<point x="265" y="679" type="curve" smooth="yes"/>
			<point x="366" y="679"/>
			<point x="443" y="601"/>
			<point x="443" y="501" type="curve" smooth="yes"/>
			<point x="443" y="402"/>
			<point x="366" y="323"/>
		</contour>
		<contour>
			<point x="191" y="393" type="line"/>
			<point x="229" y="393" type="line"/>
			<point x="229" y="480" type="line"/>
			<point x="271" y="480" type="line" smooth="yes"/>
			<point x="299" y="480"/>
			<point x="302" y="470"/>
			<point x="303" y="446" type="curve" smooth="yes"/>
			<point x="306" y="393" type="line"/>
			<point x="344" y="393" type="line"/>
			<point x="341" y="442" type="line" smooth="yes"/>
			<point x="338" y="492"/>
			<point x="323" y="497"/>
			<point x="271" y="497" type="curve"/>
			<point x="271" y="496" type="line"/>
			<point x="306" y="496"/>
			<point x="341" y="502"/>
			<point x="341" y="545" type="curve" smooth="yes"/>
			<point x="341" y="591"/>
			<point x="306" y="611"/>
			<point x="264" y="611" type="curve" smooth="yes"/>
			<point x="191" y="611" type="line"/>
		</contour>
		<contour>
			<point x="229" y="516" type="line"/>
			<point x="229" y="575" type="line"/>
			<point x="264" y="575" type="line" smooth="yes"/>
			<point x="289" y="575"/>
			<point x="303" y="568"/>
			<point x="303" y="545" type="curve" smooth="yes"/>
			<point x="303" y="522"/>
			<point x="289" y="516"/>
			<point x="264" y="516" type="curve" smooth="yes"/>
		</contour>
	</outline>
</glyph>
<glyph name="macron" format="2">
	<advance width="562"/>
	<unicode hex="00AF"/>
	<outline>
		<contour>
			<point x="140" y="580" type="line"/>
			<point x="422" y="580" type="line"/>
			<point x="422" y="643" type="line"/>
			<point x="140" y="643" type="line"/>
		</contour>
	</outline>
</glyph>
<glyph name="degree" format="2">
	<advance width="420"/>
	<unicode hex="00B0"/>
	<outline>
		<contour>
			<point x="210" y="392" type="curve" smooth="yes"/>
			<point x="302" y="392"/>
			<point x="380" y="470"/>
			<point x="380" y="562" type="curve" smooth="yes"/>
			<point x="380" y="654"/>
			<point x="302" y="732"/>
			<point x="210" y="732" type="curve" smooth="yes"/>
			<point x="118" y="732"/>
			<point x="40" y="654"/>
			<point x="40" y="562" type="curve" smooth="yes"/>
			<point x="40" y="470"/>
			<point x="118" y="392"/>
		</contour>
		<contour>
			<point x="210" y="465" type="curve" smooth="yes"/>
			<point x="158" y="465"/>
			<point x="113" y="510"/>
			<point x="113" y="562" type="curve" smooth="yes"/>
			<point x="113" y="614"/>
			<point x="158" y="659"/>
			<point x="210" y="659" type="curve" smooth="yes"/>
			<point x="262" y="659"/>
			<point x="307" y="614"/>
			<point x="307" y="562" type="curve" smooth="yes"/>
			<point x="307" y="510"/>
			<point x="262" y="465"/>
		</contour>
	</outline>
</glyph>
<glyph name="plusminus" format="2">
	<advance width="599"/>
	<unicode hex="00B1"/>
	<outline>
		<contour>
			<point x="263" y="150" type="line"/>
			<point x="336" y="150" type="line"/>
			<point x="336" y="589" type="line"/>
			<point x="263" y="589" type="line"/>
		</contour>
		<contour>
			<point x="80" y="-1" type="line"/>
			<point x="519" y="-1" type="line"/>
			<point x="519" y="72" type="line"/>
			<point x="80" y="72" type="line"/>
		</contour>
		<contour>
			<point x="80" y="332" type="line"/>
			<point x="519" y="332" type="line"/>
			<point x="519" y="405" type="line"/>
			<point x="80" y="405" type="line"/>
		</contour>
	</outline>
</glyph>
<glyph name="acute" format="2">
	<advance width="433"/>
	<unicode hex="00B4"/>
	<outline>
		<contour>
			<point x="140" y="580" type="line"/>
			<point x="203" y="580" type="line"/>
			<point x="293" y="730" type="line"/>
			<point x="200" y="730" type="line"/>
		</contour>
	</outline>
</glyph>
<glyph name="paragraph" format="2">
	<advance width="679"/>
	<unicode hex="00B6"/>
	<outline>
		<contour>
			<point x="281" y="309" type="curve" smooth="yes"/>
			<point x="391" y="309" type="line"/>
			<point x="391" y="382" type="line"/>
			<point x="301" y="382" type="line" smooth="yes"/>
			<point x="191" y="382"/>
			<point x="128" y="414"/>
			<point x="128" y="504" type="curve" smooth="yes"/>
			<point x="128" y="594"/>
			<point x="191" y="627"/>
			<point x="301" y="627" type="curve" smooth="yes"/>
			<point x="619" y="627" type="line"/>
			<point x="619" y="700" type="line"/>
			<point x="281" y="700" type="line" smooth="yes"/>
			<point x="221" y="700"/>
			<point x="50" y="679"/>
			<point x="50" y="504" type="curve" smooth="yes"/>
			<point x="50" y="330"/>
			<point x="221" y="309"/>
		</contour>
		<contour>
			<point x="323" y="-70" type="line"/>
			<point x="401" y="-70" type="line"/>
			<point x="401" y="700" type="line"/>
			<point x="323" y="700" type="line"/>
		</contour>
		<contour>
			<point x="481" y="-70" type="line"/>
			<point x="559" y="-70" type="line"/>
			<point x="559" y="700" type="line"/>
			<point x="481" y="700" type="line"/>
		</contour>
	</outline>
</glyph>
<glyph name="periodcentered" format="2">
	<advance width="240"/>
	<unicode hex="00B7"/>
	<outline>
		<contour>
			<point x="80" y="305" type="line"/>
			<point x="160" y="305" type="line"/>
			<point x="160" y="395" type="line"/>
			<point x="80" y="395" type="line"/>
		</contour>
	</outline>
</glyph>
<glyph name="cedilla" format="2">
	<advance width="458"/>
	<unicode hex="00B8"/>
	<outline>
		<contour>
			<point x="229" y="-216" type="curve" smooth="yes"/>
			<point x="277" y="-216"/>
			<point x="318" y="-177"/>
			<point x="318" y="-127" type="curve" smooth="yes"/>
			<point x="318" y="-77"/>
			<point x="289" y="-38"/>
			<point x="239" y="-38" type="curve" smooth="yes"/>
			<point x="195" y="-38"/>
			<point x="168" y="-70"/>
			<point x="159" y="-88" type="curve"/>
			<point x="200" y="-111" type="line"/>
			<point x="204" y="-102"/>
			<point x="215" y="-94"/>
			<point x="229" y="-94" type="curve" smooth="yes"/>
			<point x="249" y="-94"/>
			<point x="263" y="-107"/>
			<point x="263" y="-127" type="curve" smooth="yes"/>
			<point x="263" y="-147"/>
			<point x="249" y="-161"/>
			<point x="229" y="-161" type="curve" smooth="yes"/>
			<point x="212" y="-161"/>
			<point x="200" y="-151"/>
			<point x="197" y="-135" type="curve"/>
			<point x="140" y="-145" type="line"/>
			<point x="145" y="-189"/>
			<point x="184" y="-216"/>
		</contour>
		<contour>
			<point x="200" y="-111" type="line"/>
			<point x="258" y="25" type="line"/>
			<point x="208" y="25" type="line"/>
			<point x="159" y="-88" type="line"/>
		</contour>
	</outline>
</glyph>
<glyph name="AE" format="2">
	<advance width="850"/>
	<unicode hex="00C6"/>
	<outline>
		<contour>
			<point x="364" y="627" type="line"/>
			<point x="795" y="627" type="line"/>
			<point x="795" y="700" type="line"/>
			<point x="364" y="700" type="line"/>
		</contour>
		<component base="A"/>
		<contour>
			<point x="549" y="0" type="line"/>
			<point x="795" y="0" type="line"/>
			<point x="795" y="73" type="line"/>
			<point x="549" y="73" type="line"/>
		</contour>
		<contour>
			<point x="445" y="327" type="line"/>
			<point x="735" y="327" type="line"/>
			<point x="735" y="400" type="line"/>
			<point x="445" y="400" type="line"/>
		</contour>
	</outline>
</glyph>
<glyph name="Eth" format="2">
	<advance width="658"/>
	<unicode hex="00D0"/>
	<outline>
		<contour>
			<point x="15" y="320" type="line"/>
			<point x="315" y="320" type="line"/>
			<point x="315" y="380" type="line"/>
			<point x="15" y="380" type="line"/>
		</contour>
		<component base="D"/>
	</outline>
</glyph>
<glyph name="multiply" format="2">
	<advance width="551"/>
	<unicode hex="00D7"/>
	<outline>
		<contour>
			<point x="132" y="102" type="line"/>
			<point x="471" y="440" type="line"/>
			<point x="420" y="492" type="line"/>
			<point x="81" y="153" type="line"/>
		</contour>
		<contour>
			<point x="419" y="101" type="line"/>
			<point x="470" y="152" type="line"/>
			<point x="132" y="491" type="line"/>
			<point x="80" y="440" type="line"/>
		</contour>
	</outline>
</glyph>
<glyph name="Oslash" format="2">
	<advance width="763"/>
	<unicode hex="00D8"/>
	<outline>
		<contour>
			<point x="10" y="-66" type="line"/>
			<point x="98" y="-66" type="line"/>
			<point x="753" y="765" type="line"/>
			<point x="665" y="765" type="line"/>
		</contour>
		<component base="O"/>
	</outline>
</glyph>
<glyph name="Thorn" format="2">
	<advance width="596"/>
	<unicode hex="00DE"/>
	<outline>
		<contour>
			<point x="118" y="155" type="line"/>
			<point x="305" y="155" type="line" smooth="yes"/>
			<point x="435" y="155"/>
			<point x="536" y="226"/>
			<point x="536" y="350" type="curve" smooth="yes"/>
			<point x="536" y="485"/>
			<point x="435" y="546"/>
			<point x="305" y="546" type="curve" smooth="yes"/>
			<point x="118" y="546" type="line"/>
			<point x="118" y="473" type="line"/>
			<point x="305" y="473" type="line" smooth="yes"/>
			<point x="395" y="473"/>
			<point x="458" y="440"/>
			<point x="458" y="350" type="curve" smooth="yes"/>
			<point x="458" y="260"/>
			<point x="395" y="228"/>
			<point x="305" y="228" type="curve" smooth="yes"/>
			<point x="118" y="228" type="line"/>
		</contour>
		<contour>
			<point x="85" y="0" type="line"/>
			<point x="163" y="0" type="line"/>
			<point x="163" y="700" type="line"/>
			<point x="85" y="700" type="line"/>
		</contour>
	</outline>
</glyph>
<glyph name="germandbls" format="2">
	<advance width="557"/>
	<unicode hex="00DF"/>
	<outline>
		<contour>
			<point x="240" y="0" type="line"/>
			<point x="280" y="0" type="line" smooth="yes"/>
			<point x="450" y="0"/>
			<point x="512" y="111"/>
			<point x="512" y="201" type="curve" smooth="yes"/>
			<point x="512" y="291"/>
			<point x="450" y="380"/>
			<point x="310" y="380" type="curve"/>
			<point x="310" y="356" type="line"/>
			<point x="410" y="356"/>
			<point x="478" y="447"/>
			<point x="478" y="530" type="curve" smooth="yes"/>
			<point x="478" y="650"/>
			<point x="380" y="716"/>
			<point x="280" y="716" type="curve" smooth="yes"/>
			<point x="170" y="716"/>
			<point x="75" y="650"/>
			<point x="75" y="500" type="curve"/>
			<point x="150" y="500" type="line"/>
			<point x="150" y="600"/>
			<point x="200" y="643"/>
			<point x="280" y="643" type="curve" smooth="yes"/>
			<point x="353" y="643"/>
			<point x="400" y="600"/>
			<point x="400" y="530" type="curve" smooth="yes"/>
			<point x="400" y="460"/>
			<point x="353" y="402"/>
			<point x="275" y="402" type="curve" smooth="yes"/>
			<point x="240" y="402" type="line"/>
			<point x="240" y="329" type="line"/>
			<point x="290" y="329" type="line" smooth="yes"/>
			<point x="390" y="329"/>
			<point x="434" y="261"/>
			<point x="434" y="201" type="curve" smooth="yes"/>
			<point x="434" y="141"/>
			<point x="390" y="73"/>
			<point x="290" y="73" type="curve" smooth="yes"/>
			<point x="240" y="73" type="line"/>
		</contour>
		<contour>
			<point x="75" y="0" type="line"/>
			<point x="150" y="0" type="line"/>
			<point x="150" y="500" type="line"/>
			<point x="75" y="500" type="line"/>
		</contour>
	</outline>
</glyph>
<glyph name="ae" format="2">
	<advance width="872"/>
	<unicode hex="00E6"/>
	<outline>
		<contour>
			<point x="617" y="-16" type="curve" smooth="yes"/>
			<point x="737" y="-16"/>
			<point x="804" y="46"/>
			<point x="824" y="144" type="curve"/>
			<point x="746" y="154" type="line"/>
			<point x="736" y="114"/>
			<point x="717" y="57"/>
			<point x="617" y="57" type="curve" smooth="yes"/>
			<point x="517" y="57"/>
			<point x="464" y="140"/>
			<point x="464" y="230" type="curve"/>
			<point x="827" y="230" type="line"/>
			<point x="827" y="248" type="line" smooth="yes"/>
			<point x="827" y="428"/>
			<point x="728" y="516"/>
			<point x="608" y="516" type="curve" smooth="yes"/>
			<point x="488" y="516"/>
			<point x="386" y="428"/>
			<point x="386" y="248" type="curve" smooth="yes"/>
			<point x="386" y="68"/>
			<point x="497" y="-16"/>
		</contour>
		<contour>
			<point x="229" y="57" type="curve" smooth="yes"/>
			<point x="169" y="57"/>
			<point x="128" y="90"/>
			<point x="128" y="140" type="curve" smooth="yes"/>
			<point x="128" y="220"/>
			<point x="208" y="233"/>
			<point x="278" y="235" type="curve" smooth="yes"/>
			<point x="328" y="237"/>
			<point x="396" y="253"/>
			<point x="396" y="323" type="curve"/>
			<point x="386" y="313" type="line"/>
			<point x="386" y="243" type="line" smooth="yes"/>
			<point x="386" y="113"/>
			<point x="319" y="57"/>
		</contour>
		<contour>
			<point x="219" y="-16" type="curve" smooth="yes"/>
			<point x="329" y="-16"/>
			<point x="426" y="70"/>
			<point x="426" y="180" type="curve"/>
			<point x="461" y="331" type="line"/>
			<point x="461" y="471"/>
			<point x="378" y="516"/>
			<point x="268" y="516" type="curve" smooth="yes"/>
			<point x="148" y="516"/>
			<point x="63" y="448"/>
			<point x="63" y="348" type="curve"/>
			<point x="136" y="338" type="line"/>
			<point x="136" y="408"/>
			<point x="188" y="443"/>
			<point x="268" y="443" type="curve" smooth="yes"/>
			<point x="338" y="443"/>
			<point x="378" y="419"/>
			<point x="384" y="369" type="curve" smooth="yes"/>
			<point x="387" y="339"/>
			<point x="371" y="312"/>
			<point x="291" y="308" type="curve" smooth="yes"/>
			<point x="181" y="303"/>
			<point x="50" y="275"/>
			<point x="50" y="140" type="curve" smooth="yes"/>
			<point x="50" y="50"/>
			<point x="119" y="-16"/>
		</contour>
		<contour>
			<point x="464" y="298" type="line"/>
			<point x="464" y="358"/>
			<point x="498" y="443"/>
			<point x="608" y="443" type="curve" smooth="yes"/>
			<point x="718" y="443"/>
			<point x="749" y="358"/>
			<point x="749" y="298" type="curve"/>
		</contour>
	</outline>
</glyph>
<glyph name="eth" format="2">
	<advance width="589"/>
	<unicode hex="00F0"/>
	<outline>
		<contour>
			<point x="286" y="-16" type="curve" smooth="yes"/>
			<point x="456" y="-16"/>
			<point x="529" y="126"/>
			<point x="529" y="276" type="curve" smooth="yes"/>
			<point x="529" y="576"/>
			<point x="366" y="716"/>
			<point x="166" y="716" type="curve"/>
			<point x="166" y="648" type="line"/>
			<point x="316" y="648"/>
			<point x="459" y="540"/>
			<point x="459" y="280" type="curve"/>
			<point x="474" y="270" type="line"/>
			<point x="474" y="380"/>
			<point x="400" y="465"/>
			<point x="286" y="465" type="curve" smooth="yes"/>
			<point x="153" y="465"/>
			<point x="45" y="357"/>
			<point x="45" y="224" type="curve" smooth="yes"/>
			<point x="45" y="92"/>
			<point x="153" y="-16"/>
		</contour>
		<contour>
			<point x="286" y="57" type="curve" smooth="yes"/>
			<point x="194" y="57"/>
			<point x="123" y="134"/>
			<point x="123" y="226" type="curve" smooth="yes"/>
			<point x="123" y="318"/>
			<point x="194" y="392"/>
			<point x="286" y="392" type="curve" smooth="yes"/>
			<point x="378" y="392"/>
			<point x="452" y="318"/>
			<point x="452" y="226" type="curve" smooth="yes"/>
			<point x="452" y="134"/>
			<point x="378" y="57"/>
		</contour>
		<contour>
			<point x="192" y="505" type="line"/>
			<point x="500" y="650" type="line"/>
			<point x="477" y="695" type="line"/>
			<point x="169" y="550" type="line"/>
		</contour>
	</outline>
</glyph>
<glyph name="divide" format="2">
	<advance width="599"/>
	<unicode hex="00F7"/>
	<outline>
		<contour>
			<point x="80" y="259" type="line"/>
			<point x="519" y="259" type="line"/>
			<point x="519" y="332" type="line"/>
			<point x="80" y="332" type="line"/>
		</contour>
		<contour>
			<point x="300" y="79" type="curve" smooth="yes"/>
			<point x="327" y="79"/>
			<point x="350" y="102"/>
			<point x="350" y="129" type="curve" smooth="yes"/>
			<point x="350" y="156"/>
			<point x="327" y="179"/>
			<point x="300" y="179" type="curve" smooth="yes"/>
			<point x="273" y="179"/>
			<point x="250" y="156"/>
			<point x="250" y="129" type="curve" smooth="yes"/>
			<point x="250" y="102"/>
			<point x="273" y="79"/>
		</contour>
		<contour>
			<point x="300" y="412" type="curve" smooth="yes"/>
			<point x="327" y="412"/>
			<point x="350" y="435"/>
			<point x="350" y="462" type="curve" smooth="yes"/>
			<point x="350" y="489"/>
			<point x="327" y="512"/>
			<point x="300" y="512" type="curve" smooth="yes"/>
			<point x="273" y="512"/>
			<point x="250" y="489"/>
			<point x="250" y="462" type="curve" smooth="yes"/>
			<point x="250" y="435"/>
			<point x="273" y="412"/>
		</contour>
	</outline>
</glyph>
<glyph name="oslash" format="2">
	<advance width="576"/>
	<unicode hex="00F8"/>
	<outline>
		<contour>
			<point x="10" y="-66" type="line"/>
			<point x="88" y="-66" type="line"/>
			<point x="561" y="566" type="line"/>
			<point x="483" y="566" type="line"/>
		</contour>
		<component base="o" xOffset="5"/>
	</outline>
</glyph>
<glyph name="dcroat" format="2">
	<advance width="589"/>
	<unicode hex="0111"/>
	<outline>
		<contour>
			<point x="244" y="573" type="line"/>
			<point x="604" y="573" type="line"/>
			<point x="604" y="627" type="line"/>
			<point x="244" y="627" type="line"/>
		</contour>
		<component base="d"/>
	</outline>
</glyph>
<glyph name="Hbar" format="2">
	<advance width="676"/>
	<unicode hex="0126"/>
	<outline>
		<contour>
			<point x="20" y="530" type="line"/>
			<point x="656" y="530" type="line"/>
			<point x="656" y="590" type="line"/>
			<point x="20" y="590" type="line"/>
		</contour>
		<component base="H" xOffset="5"/>
	</outline>
</glyph>
<glyph name="ibreve" format="2">
	<advance width="170"/>
	<unicode hex="012D"/>
	<outline>
		<contour>
			<point x="85" y="580" type="curve" smooth="yes"/>
			<point x="168" y="580"/>
			<point x="205" y="646"/>
			<point x="205" y="730" type="curve"/>
			<point x="141" y="730" type="line"/>
			<point x="140" y="672"/>
			<point x="122" y="644"/>
			<point x="85" y="644" type="curve" smooth="yes"/>
			<point x="48" y="644"/>
			<point x="30" y="672"/>
			<point x="29" y="730" type="curve"/>
			<point x="-35" y="730" type="line"/>
			<point x="-35" y="646"/>
			<point x="1" y="580"/>
		</contour>
		<component base="idotless" xOffset="-27"/>
	</outline>
</glyph>
<glyph name="Lslash" format="2">
	<advance width="508"/>
	<unicode hex="0141"/>
	<outline>
		<contour>
			<point x="5" y="250" type="line"/>
			<point x="345" y="390" type="line"/>
			<point x="345" y="450" type="line"/>
			<point x="5" y="310" type="line"/>
		</contour>
		<component base="L"/>
	</outline>
</glyph>
<glyph name="lslash" format="2">
	<advance width="290"/>
	<unicode hex="0142"/>
	<outline>
		<component base="l" xOffset="32"/>
		<contour>
			<point x="45" y="265" type="line"/>
			<point x="245" y="385" type="line"/>
			<point x="245" y="445" type="line"/>
			<point x="45" y="325" type="line"/>
		</contour>
	</outline>
</glyph>
<glyph name="Eng" format="2">
	<advance width="716"/>
	<unicode hex="014A"/>
	<outline>
		<contour>
			<point x="423" y="-200" type="line"/>
			<point x="492" y="-200" type="line" smooth="yes"/>
			<point x="578" y="-200"/>
			<point x="631" y="-163"/>
			<point x="631" y="-76" type="curve" smooth="yes"/>
			<point x="631" y="0" type="line"/>
			<point x="553" y="0" type="line"/>
			<point x="553" y="-55" type="line" smooth="yes"/>
			<point x="553" y="-117"/>
			<point x="534" y="-127"/>
			<point x="480" y="-127" type="curve" smooth="yes"/>
			<point x="423" y="-127" type="line"/>
		</contour>
		<component base="N"/>
	</outline>
</glyph>
<glyph name="eng" format="2">
	<advance width="553"/>
	<unicode hex="014B"/>
	<outline>
		<contour>
			<point x="273" y="-200" type="line"/>
			<point x="342" y="-200" type="line" smooth="yes"/>
			<point x="428" y="-200"/>
			<point x="478" y="-163"/>
			<point x="478" y="-76" type="curve" smooth="yes"/>
			<point x="478" y="0" type="line"/>
			<point x="403" y="0" type="line"/>
			<point x="403" y="-55" type="line" smooth="yes"/>
			<point x="403" y="-117"/>
			<point x="384" y="-127"/>
			<point x="330" y="-127" type="curve" smooth="yes"/>
			<point x="273" y="-127" type="line"/>
		</contour>
		<component base="n"/>
	</outline>
</glyph>
<glyph name="Tbar" format="2">
	<advance width="618"/>
	<unicode hex="0166"/>
	<outline>
		<contour>
			<point x="139" y="320" type="line"/>
			<point x="479" y="320" type="line"/>
			<point x="479" y="380" type="line"/>
			<point x="139" y="380" type="line"/>
		</contour>
		<component base="T"/>
	</outline>
</glyph>
<glyph name="tbar" format="2">
	<advance width="378"/>
	<unicode hex="0167"/>
	<outline>
		<contour>
			<point x="15" y="260" type="line"/>
			<point x="348" y="260" type="line"/>
			<point x="348" y="320" type="line"/>
			<point x="15" y="320" type="line"/>
		</contour>
		<component base="t"/>
	</outline>
</glyph>
<glyph name="florin" format="2">
	<advance width="438"/>
	<unicode hex="0192"/>
	<outline>
		<contour>
			<point x="10" y="-216" type="line"/>
			<point x="79" y="-216" type="line" smooth="yes"/>
			<point x="165" y="-216"/>
			<point x="206" y="-179"/>
			<point x="218" y="-62" type="curve" smooth="yes"/>
			<point x="278" y="535" type="line" smooth="yes"/>
			<point x="287" y="627"/>
			<point x="297" y="637"/>
			<point x="351" y="637" type="curve" smooth="yes"/>
			<point x="408" y="637" type="line"/>
			<point x="408" y="710" type="line"/>
			<point x="339" y="710" type="line" smooth="yes"/>
			<point x="253" y="710"/>
			<point x="212" y="673"/>
			<point x="200" y="556" type="curve" smooth="yes"/>
			<point x="140" y="-41" type="line" smooth="yes"/>
			<point x="131" y="-133"/>
			<point x="121" y="-143"/>
			<point x="67" y="-143" type="curve" smooth="yes"/>
			<point x="10" y="-143" type="line"/>
		</contour>
		<contour>
			<point x="83" y="347" type="line"/>
			<point x="371" y="347" type="line"/>
			<point x="371" y="420" type="line"/>
			<point x="83" y="420" type="line"/>
		</contour>
	</outline>
</glyph>
<glyph name="jdotless" format="2">
	<advance width="260"/>
	<unicode hex="0237"/>
	<outline>
		<contour>
			<point x="-40" y="-200" type="line"/>
			<point x="45" y="-200" type="line" smooth="yes"/>
			<point x="135" y="-200"/>
			<point x="185" y="-150"/>
			<point x="185" y="-60" type="curve" smooth="yes"/>
			<point x="185" y="500" type="line"/>
			<point x="110" y="500" type="line"/>
			<point x="110" y="-67" type="line" smooth="yes"/>
			<point x="110" y="-107"/>
			<point x="90" y="-127"/>
			<point x="50" y="-127" type="curve" smooth="yes"/>
			<point x="-40" y="-127" type="line"/>
		</contour>
	</outline>
</glyph>
<glyph name="circumflex" format="2">
	<advance width="534"/>
	<unicode hex="02C6"/>
	<outline>
		<contour>
			<point x="140" y="580" type="line"/>
			<point x="203" y="580" type="line"/>
			<point x="267" y="690" type="line"/>
			<point x="331" y="580" type="line"/>
			<point x="394" y="580" type="line"/>
			<point x="324" y="730" type="line"/>
			<point x="210" y="730" type="line"/>
		</contour>
	</outline>
</glyph>
<glyph name="caron" format="2">
	<advance width="534"/>
	<unicode hex="02C7"/>
	<outline>
		<contour>
			<point x="210" y="580" type="line"/>
			<point x="324" y="580" type="line"/>
			<point x="394" y="730" type="line"/>
			<point x="331" y="730" type="line"/>
			<point x="267" y="620" type="line"/>
			<point x="203" y="730" type="line"/>
			<point x="140" y="730" type="line"/>
		</contour>
	</outline>
</glyph>
<glyph name="breve" format="2">
	<advance width="580"/>
	<unicode hex="02D8"/>
	<outline>
		<contour>
			<point x="290" y="580" type="curve" smooth="yes"/>
			<point x="373" y="580"/>
			<point x="440" y="646"/>
			<point x="440" y="730" type="curve"/>
			<point x="376" y="730" type="line"/>
			<point x="375" y="682"/>
			<point x="337" y="644"/>
			<point x="290" y="644" type="curve" smooth="yes"/>
			<point x="243" y="644"/>
			<point x="205" y="682"/>
			<point x="204" y="730" type="curve"/>
			<point x="140" y="730" type="line"/>
			<point x="140" y="646"/>
			<point x="206" y="580"/>
		</contour>
	</outline>
</glyph>
<glyph name="dotaccent" format="2">
	<advance width="374"/>
	<unicode hex="02D9"/>
	<outline>
		<contour>
			<point x="140" y="580" type="line"/>
			<point x="234" y="580" type="line"/>
			<point x="234" y="674" type="line"/>
			<point x="140" y="674" type="line"/>
		</contour>
	</outline>
</glyph>
<glyph name="ring" format="2">
	<advance width="490"/>
	<unicode hex="02DA"/>
	<outline>
		<contour>
			<point x="245" y="576" type="curve" smooth="yes"/>
			<point x="302" y="576"/>
			<point x="350" y="624"/>
			<point x="350" y="681" type="curve" smooth="yes"/>
			<point x="350" y="738"/>
			<point x="302" y="786"/>
			<point x="245" y="786" type="curve" smooth="yes"/>
			<point x="188" y="786"/>
			<point x="140" y="738"/>
			<point x="140" y="681" type="curve" smooth="yes"/>
			<point x="140" y="624"/>
			<point x="188" y="576"/>
		</contour>
		<contour>
			<point x="245" y="641" type="curve" smooth="yes"/>
			<point x="222" y="641"/>
			<point x="205" y="658"/>
			<point x="205" y="681" type="curve" smooth="yes"/>
			<point x="205" y="704"/>
			<point x="222" y="721"/>
			<point x="245" y="721" type="curve" smooth="yes"/>
			<point x="268" y="721"/>
			<point x="285" y="704"/>
			<point x="285" y="681" type="curve" smooth="yes"/>
			<point x="285" y="658"/>
			<point x="268" y="641"/>
		</contour>
	</outline>
</glyph>
<glyph name="ogonek" format="2">
	<advance width="428"/>
	<unicode hex="02DB"/>
	<outline>
		<contour>
			<point x="214" y="-168" type="curve" smooth="yes"/>
			<point x="254" y="-168"/>
			<point x="288" y="-137"/>
			<point x="288" y="-87" type="curve"/>
			<point x="246" y="-77" type="line"/>
			<point x="246" y="-97"/>
			<point x="238" y="-113"/>
			<point x="218" y="-113" type="curve" smooth="yes"/>
			<point x="198" y="-113"/>
			<point x="190" y="-97"/>
			<point x="190" y="-77" type="curve" smooth="yes"/>
			<point x="190" y="-47"/>
			<point x="212" y="-19"/>
			<point x="247" y="0" type="curve"/>
			<point x="204" y="0" type="line"/>
			<point x="186" y="-8"/>
			<point x="140" y="-49"/>
			<point x="140" y="-99" type="curve" smooth="yes"/>
			<point x="140" y="-139"/>
			<point x="164" y="-168"/>
		</contour>
	</outline>
</glyph>
<glyph name="tilde" format="2">
	<advance width="602"/>
	<unicode hex="02DC"/>
	<outline>
		<contour>
			<point x="213" y="580" type="line"/>
			<point x="213" y="590"/>
			<point x="216" y="636"/>
			<point x="249" y="636" type="curve" smooth="yes"/>
			<point x="279" y="636"/>
			<point x="303" y="580"/>
			<point x="363" y="580" type="curve" smooth="yes"/>
			<point x="423" y="580"/>
			<point x="462" y="629"/>
			<point x="462" y="689" type="curve"/>
			<point x="389" y="699" type="line"/>
			<point x="389" y="689"/>
			<point x="393" y="643"/>
			<point x="353" y="643" type="curve" smooth="yes"/>
			<point x="323" y="643"/>
			<point x="299" y="699"/>
			<point x="239" y="699" type="curve" smooth="yes"/>
			<point x="176" y="699"/>
			<point x="140" y="650"/>
			<point x="140" y="590" type="curve"/>
		</contour>
	</outline>
</glyph>
<glyph name="commaaccentcomb" format="2">
	<advance width="390"/>
	<unicode hex="0326"/>
	<outline>
		<contour>
			<point x="140" y="-238" type="line"/>
			<point x="204" y="-238"/>
			<point x="250" y="-208"/>
			<point x="250" y="-140" type="curve"/>
			<point x="198" y="-140" type="line"/>
			<point x="198" y="-180"/>
			<point x="184" y="-195"/>
			<point x="140" y="-195" type="curve"/>
		</contour>
		<contour>
			<point x="150" y="-140" type="line"/>
			<point x="250" y="-140" type="line"/>
			<point x="250" y="-60" type="line"/>
			<point x="150" y="-60" type="line"/>
		</contour>
	</outline>
</glyph>
<glyph name="Delta" format="2">
	<advance width="778"/>
	<unicode hex="0394"/>
	<outline>
		<contour>
			<point x="100" y="0" type="line"/>
			<point x="678" y="0" type="line"/>
			<point x="445" y="700" type="line"/>
			<point x="343" y="700" type="line"/>
		</contour>
		<contour>
			<point x="188" y="30" type="line"/>
			<point x="408" y="664" type="line"/>
			<point x="379" y="664" type="line"/>
			<point x="590" y="30" type="line"/>
			<point x="621" y="73" type="line"/>
			<point x="158" y="73" type="line"/>
		</contour>
	</outline>
</glyph>
<glyph name="Omega" format="2">
	<advance width="780"/>
	<unicode hex="03A9"/>
	<outline>
		<contour>
			<point x="40" y="0" type="line"/>
			<point x="330" y="0" type="line"/>
			<point x="330" y="74" type="line"/>
			<point x="210" y="174"/>
			<point x="140" y="264"/>
			<point x="140" y="394" type="curve" smooth="yes"/>
			<point x="140" y="524"/>
			<point x="230" y="643"/>
			<point x="390" y="643" type="curve" smooth="yes"/>
			<point x="550" y="643"/>
			<point x="641" y="524"/>
			<point x="640" y="394" type="curve" smooth="yes"/>
			<point x="639" y="264"/>
			<point x="570" y="174"/>
			<point x="450" y="74" type="curve"/>
			<point x="450" y="0" type="line"/>
			<point x="740" y="0" type="line"/>
			<point x="740" y="74" type="line"/>
			<point x="520" y="74" type="line"/>
			<point x="520" y="54" type="line"/>
			<point x="609" y="115"/>
			<point x="718" y="214"/>
			<point x="718" y="394" type="curve" smooth="yes"/>
			<point x="718" y="574"/>
			<point x="590" y="716"/>
			<point x="390" y="716" type="curve" smooth="yes"/>
			<point x="190" y="716"/>
			<point x="62" y="574"/>
			<point x="62" y="394" type="curve" smooth="yes"/>
			<point x="62" y="214"/>
			<point x="171" y="115"/>
			<point x="260" y="54" type="curve"/>
			<point x="260" y="74" type="line"/>
			<point x="40" y="74" type="line"/>
		</contour>
	</outline>
</glyph>
<glyph name="mu" format="2">
	<advance width="553"/>
	<unicode hex="03BC"/>
	<outline>
		<contour>
			<point x="228" y="-16" type="curve" smooth="yes"/>
			<point x="328" y="-16"/>
			<point x="408" y="61"/>
			<point x="408" y="161" type="curve"/>
			<point x="403" y="257" type="line"/>
			<point x="403" y="107"/>
			<point x="333" y="57"/>
			<point x="253" y="57" type="curve" smooth="yes"/>
			<point x="183" y="57"/>
			<point x="150" y="101"/>
			<point x="150" y="181" type="curve" smooth="yes"/>
			<point x="150" y="190" type="line"/>
			<point x="75" y="190" type="line"/>
			<point x="75" y="151" type="line" smooth="yes"/>
			<point x="75" y="41"/>
			<point x="138" y="-16"/>
		</contour>
		<contour>
			<point x="75" y="-200" type="line"/>
			<point x="150" y="-200" type="line"/>
			<point x="150" y="500" type="line"/>
			<point x="75" y="500" type="line"/>
		</contour>
		<contour>
			<point x="403" y="0" type="line"/>
			<point x="478" y="0" type="line"/>
			<point x="478" y="500" type="line"/>
			<point x="403" y="500" type="line"/>
		</contour>
	</outline>
</glyph>
<glyph name="pi" format="2">
	<advance width="690"/>
	<unicode hex="03C0"/>
	<outline>
		<contour>
			<point x="580" y="0" type="curve" smooth="yes"/>
			<point x="615" y="0" type="line"/>
			<point x="615" y="73" type="line"/>
			<point x="575" y="73" type="line" smooth="yes"/>
			<point x="535" y="73"/>
			<point x="515" y="93"/>
			<point x="515" y="133" type="curve" smooth="yes"/>
			<point x="515" y="500" type="line"/>
			<point x="440" y="500" type="line"/>
			<point x="440" y="140" type="line" smooth="yes"/>
			<point x="440" y="50"/>
			<point x="490" y="0"/>
		</contour>
		<contour>
			<point x="175" y="0" type="line"/>
			<point x="250" y="0" type="line"/>
			<point x="250" y="500" type="line"/>
			<point x="175" y="500" type="line"/>
		</contour>
		<contour>
			<point x="75" y="437" type="line"/>
			<point x="615" y="437" type="line"/>
			<point x="615" y="500" type="line"/>
			<point x="75" y="500" type="line"/>
		</contour>
	</outline>
</glyph>
<glyph name="Germandbls" format="2">
	<advance width="690"/>
	<unicode hex="1E9E"/>
	<outline>
		<contour>
			<point x="293" y="0" type="line"/>
			<point x="373" y="0" type="line" smooth="yes"/>
			<point x="526" y="0"/>
			<point x="625" y="77"/>
			<point x="625" y="207" type="curve" smooth="yes"/>
			<point x="625" y="337"/>
			<point x="522" y="410"/>
			<point x="368" y="410" type="curve"/>
			<point x="384" y="379" type="line"/>
			<point x="557" y="587" type="line" smooth="yes"/>
			<point x="598" y="637"/>
			<point x="569" y="700"/>
			<point x="505" y="700" type="curve" smooth="yes"/>
			<point x="115" y="700" type="line"/>
			<point x="115" y="627" type="line"/>
			<point x="494" y="627" type="line"/>
			<point x="323" y="413" type="line"/>
			<point x="323" y="337" type="line"/>
			<point x="373" y="337" type="line" smooth="yes"/>
			<point x="453" y="337"/>
			<point x="547" y="307"/>
			<point x="547" y="207" type="curve" smooth="yes"/>
			<point x="547" y="107"/>
			<point x="453" y="78"/>
			<point x="373" y="78" type="curve" smooth="yes"/>
			<point x="293" y="78" type="line"/>
		</contour>
		<contour>
			<point x="85" y="0" type="line"/>
			<point x="163" y="0" type="line"/>
			<point x="163" y="700" type="line"/>
			<point x="85" y="700" type="line"/>
		</contour>
	</outline>
</glyph>
<glyph name="endash" format="2">
	<advance width="675"/>
	<unicode hex="2013"/>
	<outline>
		<contour>
			<point x="80" y="259" type="line"/>
			<point x="595" y="259" type="line"/>
			<point x="595" y="332" type="line"/>
			<point x="80" y="332" type="line"/>
		</contour>
	</outline>
</glyph>
<glyph name="emdash" format="2">
	<advance width="875"/>
	<unicode hex="2014"/>
	<outline>
		<contour>
			<point x="80" y="259" type="line"/>
			<point x="795" y="259" type="line"/>
			<point x="795" y="332" type="line"/>
			<point x="80" y="332" type="line"/>
		</contour>
	</outline>
</glyph>
<glyph name="dagger" format="2">
	<advance width="403"/>
	<unicode hex="2020"/>
	<outline>
		<contour>
			<point x="170" y="216" type="line"/>
			<point x="233" y="216" type="line"/>
			<point x="233" y="716" type="line"/>
			<point x="170" y="716" type="line"/>
		</contour>
		<contour>
			<point x="40" y="523" type="line"/>
			<point x="363" y="523" type="line"/>
			<point x="363" y="586" type="line"/>
			<point x="40" y="586" type="line"/>
		</contour>
	</outline>
</glyph>
<glyph name="daggerdbl" format="2">
	<advance width="403"/>
	<unicode hex="2021"/>
	<outline>
		<contour>
			<point x="170" y="216" type="line"/>
			<point x="233" y="216" type="line"/>
			<point x="233" y="716" type="line"/>
			<point x="170" y="716" type="line"/>
		</contour>
		<contour>
			<point x="40" y="346" type="line"/>
			<point x="363" y="346" type="line"/>
			<point x="363" y="409" type="line"/>
			<point x="40" y="409" type="line"/>
		</contour>
		<contour>
			<point x="40" y="523" type="line"/>
			<point x="363" y="523" type="line"/>
			<point x="363" y="586" type="line"/>
			<point x="40" y="586" type="line"/>
		</contour>
	</outline>
</glyph>
<glyph name="bullet" format="2">
	<advance width="370"/>
	<unicode hex="2022"/>
	<outline>
		<contour>
			<point x="185" y="245" type="curve" smooth="yes"/>
			<point x="242" y="245"/>
			<point x="290" y="293"/>
			<point x="290" y="350" type="curve" smooth="yes"/>
			<point x="290" y="407"/>
			<point x="242" y="455"/>
			<point x="185" y="455" type="curve" smooth="yes"/>
			<point x="128" y="455"/>
			<point x="80" y="407"/>
			<point x="80" y="350" type="curve" smooth="yes"/>
			<point x="80" y="293"/>
			<point x="128" y="245"/>
		</contour>
	</outline>
</glyph>
<glyph name="perthousand" format="2">
	<advance width="1160"/>
	<unicode hex="2030"/>
	<outline>
		<contour>
			<point x="90" y="0" type="line"/>
			<point x="176" y="0" type="line"/>
			<point x="700" y="716" type="line"/>
			<point x="614" y="716" type="line"/>
		</contour>
		<contour>
			<point x="210" y="376" type="curve" smooth="yes"/>
			<point x="304" y="376"/>
			<point x="380" y="452"/>
			<point x="380" y="546" type="curve" smooth="yes"/>
			<point x="380" y="640"/>
			<point x="304" y="716"/>
			<point x="210" y="716" type="curve" smooth="yes"/>
			<point x="116" y="716"/>
			<point x="40" y="640"/>
			<point x="40" y="546" type="curve" smooth="yes"/>
			<point x="40" y="452"/>
			<point x="116" y="376"/>
		</contour>
		<contour>
			<point x="210" y="449" type="curve" smooth="yes"/>
			<point x="156" y="449"/>
			<point x="113" y="492"/>
			<point x="113" y="546" type="curve" smooth="yes"/>
			<point x="113" y="600"/>
			<point x="156" y="643"/>
			<point x="210" y="643" type="curve" smooth="yes"/>
			<point x="264" y="643"/>
			<point x="307" y="600"/>
			<point x="307" y="546" type="curve" smooth="yes"/>
			<point x="307" y="492"/>
			<point x="264" y="449"/>
		</contour>
		<contour>
			<point x="570" y="-16" type="curve" smooth="yes"/>
			<point x="664" y="-16"/>
			<point x="740" y="60"/>
			<point x="740" y="154" type="curve" smooth="yes"/>
			<point x="740" y="248"/>
			<point x="664" y="324"/>
			<point x="570" y="324" type="curve" smooth="yes"/>
			<point x="476" y="324"/>
			<point x="400" y="248"/>
			<point x="400" y="154" type="curve" smooth="yes"/>
			<point x="400" y="60"/>
			<point x="476" y="-16"/>
		</contour>
		<contour>
			<point x="570" y="57" type="curve" smooth="yes"/>
			<point x="516" y="57"/>
			<point x="473" y="100"/>
			<point x="473" y="154" type="curve" smooth="yes"/>
			<point x="473" y="208"/>
			<point x="516" y="251"/>
			<point x="570" y="251" type="curve" smooth="yes"/>
			<point x="624" y="251"/>
			<point x="667" y="208"/>
			<point x="667" y="154" type="curve" smooth="yes"/>
			<point x="667" y="100"/>
			<point x="624" y="57"/>
		</contour>
		<contour>
			<point x="950" y="-16" type="curve" smooth="yes"/>
			<point x="1044" y="-16"/>
			<point x="1120" y="60"/>
			<point x="1120" y="154" type="curve" smooth="yes"/>
			<point x="1120" y="248"/>
			<point x="1044" y="324"/>
			<point x="950" y="324" type="curve" smooth="yes"/>
			<point x="856" y="324"/>
			<point x="780" y="248"/>
			<point x="780" y="154" type="curve" smooth="yes"/>
			<point x="780" y="60"/>
			<point x="856" y="-16"/>
		</contour>
		<contour>
			<point x="950" y="57" type="curve" smooth="yes"/>
			<point x="896" y="57"/>
			<point x="853" y="100"/>
			<point x="853" y="154" type="curve" smooth="yes"/>
			<point x="853" y="208"/>
			<point x="896" y="251"/>
			<point x="950" y="251" type="curve" smooth="yes"/>
			<point x="1004" y="251"/>
			<point x="1047" y="208"/>
			<point x="1047" y="154" type="curve" smooth="yes"/>
			<point x="1047" y="100"/>
			<point x="1004" y="57"/>
		</contour>
	</outline>
</glyph>
<glyph name="guilsinglleft" format="2">
	<advance width="278"/>
	<unicode hex="2039"/>
	<outline>
		<contour>
			<point x="165" y="70" type="line"/>
			<point x="238" y="70" type="line"/>
			<point x="95" y="309" type="line"/>
			<point x="95" y="231" type="line"/>
			<point x="238" y="470" type="line"/>
			<point x="165" y="470" type="line"/>
			<point x="45" y="270" type="line"/>
		</contour>
	</outline>
</glyph>
<glyph name="guilsinglright" format="2">
	<advance width="278"/>
	<unicode hex="203A"/>
	<outline>
		<contour>
			<point x="40" y="70" type="line"/>
			<point x="113" y="70" type="line"/>
			<point x="233" y="270" type="line"/>
			<point x="113" y="470" type="line"/>
			<point x="40" y="470" type="line"/>
			<point x="183" y="231" type="line"/>
			<point x="183" y="309" type="line"/>
		</contour>
	</outline>
</glyph>
<glyph name="fraction" format="2">
	<advance width="156"/>
	<unicode hex="2044"/>
	<outline>
		<contour>
			<point x="-180" y="0" type="line"/>
			<point x="-117" y="0" type="line"/>
			<point x="386" y="700" type="line"/>
			<point x="323" y="700" type="line"/>
		</contour>
	</outline>
</glyph>
<glyph name="won" format="2">
	<advance width="846"/>
	<unicode hex="20A9"/>
	<outline>
		<contour>
			<point x="207" y="0" type="line"/>
			<point x="300" y="0" type="line"/>
			<point x="428" y="587" type="line"/>
			<point x="418" y="587" type="line"/>
			<point x="546" y="0" type="line"/>
			<point x="639" y="0" type="line"/>
			<point x="811" y="700" type="line"/>
			<point x="743" y="700" type="line"/>
			<point x="580" y="38" type="line"/>
			<point x="601" y="38" type="line"/>
			<point x="457" y="700" type="line"/>
			<point x="389" y="700" type="line"/>
			<point x="245" y="38" type="line"/>
			<point x="266" y="38" type="line"/>
			<point x="103" y="700" type="line"/>
			<point x="35" y="700" type="line"/>
		</contour>
		<contour>
			<point x="45" y="214" type="line"/>
			<point x="801" y="214" type="line"/>
			<point x="801" y="277" type="line"/>
			<point x="45" y="277" type="line"/>
		</contour>
		<contour>
			<point x="45" y="377" type="line"/>
			<point x="801" y="377" type="line"/>
			<point x="801" y="440" type="line"/>
			<point x="45" y="440" type="line"/>
		</contour>
	</outline>
</glyph>
<glyph name="euro" format="2">
	<advance width="803"/>
	<unicode hex="20AC"/>
	<outline>
		<contour>
			<point x="443" y="-16" type="curve" smooth="yes"/>
			<point x="603" y="-16"/>
			<point x="722" y="98"/>
			<point x="738" y="267" type="curve"/>
			<point x="659" y="277" type="line"/>
			<point x="648" y="159"/>
			<point x="573" y="57"/>
			<point x="443" y="57" type="curve" smooth="yes"/>
			<point x="293" y="57"/>
			<point x="199" y="190"/>
			<point x="199" y="350" type="curve" smooth="yes"/>
			<point x="199" y="510"/>
			<point x="293" y="642"/>
			<point x="443" y="642" type="curve" smooth="yes"/>
			<point x="573" y="642"/>
			<point x="645" y="535"/>
			<point x="658" y="417" type="curve"/>
			<point x="738" y="428" type="line"/>
			<point x="722" y="597"/>
			<point x="603" y="716"/>
			<point x="443" y="716" type="curve" smooth="yes"/>
			<point x="273" y="716"/>
			<point x="121" y="580"/>
			<point x="121" y="350" type="curve" smooth="yes"/>
			<point x="121" y="120"/>
			<point x="273" y="-16"/>
		</contour>
		<contour>
			<point x="50" y="244" type="line"/>
			<point x="499" y="244" type="line"/>
			<point x="499" y="307" type="line"/>
			<point x="50" y="307" type="line"/>
		</contour>
		<contour>
			<point x="50" y="387" type="line"/>
			<point x="499" y="387" type="line"/>
			<point x="499" y="450" type="line"/>
			<point x="50" y="450" type="line"/>
		</contour>
	</outline>
</glyph>
<glyph name="rupeeIndian" format="2">
	<advance width="621"/>
	<unicode hex="20B9"/>
	<outline>
		<contour>
			<point x="320" y="0" type="line"/>
			<point x="413" y="0" type="line"/>
			<point x="145" y="345" type="line"/>
			<point x="128" y="309" type="line"/>
			<point x="210" y="309" type="line" smooth="yes"/>
			<point x="270" y="309"/>
			<point x="441" y="330"/>
			<point x="441" y="504" type="curve" smooth="yes"/>
			<point x="441" y="679"/>
			<point x="270" y="700"/>
			<point x="210" y="700" type="curve" smooth="yes"/>
			<point x="80" y="700" type="line"/>
			<point x="80" y="627" type="line"/>
			<point x="190" y="627" type="line" smooth="yes"/>
			<point x="300" y="627"/>
			<point x="363" y="594"/>
			<point x="363" y="504" type="curve" smooth="yes"/>
			<point x="363" y="414"/>
			<point x="300" y="382"/>
			<point x="190" y="382" type="curve" smooth="yes"/>
			<point x="80" y="382" type="line"/>
			<point x="80" y="309" type="line"/>
		</contour>
		<contour>
			<point x="80" y="482" type="line"/>
			<point x="561" y="482" type="line"/>
			<point x="561" y="545" type="line"/>
			<point x="80" y="545" type="line"/>
		</contour>
		<contour>
			<point x="80" y="637" type="line"/>
			<point x="561" y="637" type="line"/>
			<point x="561" y="700" type="line"/>
			<point x="80" y="700" type="line"/>
		</contour>
	</outline>
</glyph>
<glyph name="liraTurkish" format="2">
	<advance width="682"/>
	<unicode hex="20BA"/>
	<outline>
		<contour>
			<point x="177" y="0" type="line"/>
			<point x="410" y="0" type="line" smooth="yes"/>
			<point x="538" y="0"/>
			<point x="642" y="94"/>
			<point x="642" y="221" type="curve"/>
			<point x="569" y="231" type="line"/>
			<point x="569" y="144"/>
			<point x="498" y="73"/>
			<point x="410" y="73" type="curve" smooth="yes"/>
			<point x="255" y="73" type="line"/>
			<point x="255" y="700" type="line"/>
			<point x="177" y="700" type="line"/>
		</contour>
		<contour>
			<point x="60" y="244" type="line"/>
			<point x="499" y="364" type="line"/>
			<point x="499" y="427" type="line"/>
			<point x="60" y="307" type="line"/>
		</contour>
		<contour>
			<point x="60" y="387" type="line"/>
			<point x="499" y="507" type="line"/>
			<point x="499" y="570" type="line"/>
			<point x="60" y="450" type="line"/>
		</contour>
	</outline>
</glyph>
<glyph name="bitcoin" format="2">
	<advance width="596"/>
	<unicode hex="20BF"/>
	<outline>
		<contour>
			<point x="118" y="0" type="line"/>
			<point x="305" y="0" type="line" smooth="yes"/>
			<point x="405" y="0"/>
			<point x="536" y="36"/>
			<point x="536" y="196" type="curve" smooth="yes"/>
			<point x="536" y="304"/>
			<point x="458" y="361"/>
			<point x="373" y="361" type="curve"/>
			<point x="373" y="357" type="line"/>
			<point x="448" y="357"/>
			<point x="496" y="433"/>
			<point x="496" y="510" type="curve" smooth="yes"/>
			<point x="496" y="650"/>
			<point x="375" y="700"/>
			<point x="265" y="700" type="curve" smooth="yes"/>
			<point x="98" y="700" type="line"/>
			<point x="98" y="627" type="line"/>
			<point x="265" y="627" type="line" smooth="yes"/>
			<point x="365" y="627"/>
			<point x="418" y="590"/>
			<point x="418" y="510" type="curve" smooth="yes"/>
			<point x="418" y="430"/>
			<point x="365" y="392"/>
			<point x="265" y="392" type="curve" smooth="yes"/>
			<point x="98" y="392" type="line"/>
			<point x="98" y="319" type="line"/>
			<point x="305" y="319" type="line" smooth="yes"/>
			<point x="395" y="319"/>
			<point x="458" y="286"/>
			<point x="458" y="196" type="curve" smooth="yes"/>
			<point x="458" y="106"/>
			<point x="395" y="73"/>
			<point x="305" y="73" type="curve" smooth="yes"/>
			<point x="118" y="73" type="line"/>
		</contour>
		<contour>
			<point x="163" y="-100" type="line"/>
			<point x="226" y="-100" type="line"/>
			<point x="226" y="53" type="line"/>
			<point x="163" y="53" type="line"/>
		</contour>
		<contour>
			<point x="306" y="-100" type="line"/>
			<point x="369" y="-100" type="line"/>
			<point x="369" y="53" type="line"/>
			<point x="306" y="53" type="line"/>
		</contour>
		<contour>
			<point x="85" y="0" type="line"/>
			<point x="158" y="0" type="line"/>
			<point x="158" y="700" type="line"/>
			<point x="85" y="700" type="line"/>
		</contour>
		<contour>
			<point x="163" y="647" type="line"/>
			<point x="226" y="647" type="line"/>
			<point x="226" y="800" type="line"/>
			<point x="163" y="800" type="line"/>
		</contour>
		<contour>
			<point x="306" y="647" type="line"/>
			<point x="369" y="647" type="line"/>
			<point x="369" y="800" type="line"/>
			<point x="306" y="800" type="line"/>
		</contour>
	</outline>
</glyph>
<glyph name="literSign" format="2">
	<advance width="665"/>
	<unicode hex="2113"/>
	<outline>
		<contour>
			<point x="341" y="-16" type="curve" smooth="yes"/>
			<point x="451" y="-16"/>
			<point x="507" y="81"/>
			<point x="507" y="161" type="curve"/>
			<point x="429" y="171" type="line"/>
			<point x="429" y="101"/>
			<point x="391" y="61"/>
			<point x="341" y="61" type="curve" smooth="yes"/>
			<point x="231" y="61"/>
			<point x="208" y="262"/>
			<point x="239" y="419" type="curve" smooth="yes"/>
			<point x="267" y="556"/>
			<point x="346" y="638"/>
			<point x="416" y="638" type="curve" smooth="yes"/>
			<point x="496" y="638"/>
			<point x="507" y="548"/>
			<point x="468" y="456" type="curve" smooth="yes"/>
			<point x="413" y="327"/>
			<point x="270" y="240"/>
			<point x="60" y="240" type="curve"/>
			<point x="60" y="162" type="line"/>
			<point x="310" y="162"/>
			<point x="472" y="281"/>
			<point x="534" y="428" type="curve" smooth="yes"/>
			<point x="596" y="576"/>
			<point x="566" y="716"/>
			<point x="426" y="716" type="curve" smooth="yes"/>
			<point x="316" y="716"/>
			<point x="199" y="605"/>
			<point x="161" y="419" type="curve" smooth="yes"/>
			<point x="130" y="262"/>
			<point x="151" y="-16"/>
		</contour>
	</outline>
</glyph>
<glyph name="numero" format="2">
	<advance width="1234"/>
	<unicode hex="2116"/>
	<outline>
		<contour>
			<point x="934" y="163" type="curve" smooth="yes"/>
			<point x="1054" y="163"/>
			<point x="1149" y="258"/>
			<point x="1149" y="378" type="curve" smooth="yes"/>
			<point x="1149" y="498"/>
			<point x="1054" y="593"/>
			<point x="934" y="593" type="curve" smooth="yes"/>
			<point x="815" y="593"/>
			<point x="719" y="498"/>
			<point x="719" y="378" type="curve" smooth="yes"/>
			<point x="719" y="258"/>
			<point x="815" y="163"/>
		</contour>
		<component base="N"/>
		<contour>
			<point x="767" y="0" type="line"/>
			<point x="1102" y="0" type="line"/>
			<point x="1102" y="73" type="line"/>
			<point x="767" y="73" type="line"/>
		</contour>
		<contour>
			<point x="934" y="236" type="curve" smooth="yes"/>
			<point x="855" y="236"/>
			<point x="792" y="299"/>
			<point x="792" y="378" type="curve" smooth="yes"/>
			<point x="792" y="458"/>
			<point x="855" y="520"/>
			<point x="934" y="520" type="curve" smooth="yes"/>
			<point x="1015" y="520"/>
			<point x="1076" y="458"/>
			<point x="1076" y="378" type="curve" smooth="yes"/>
			<point x="1076" y="299"/>
			<point x="1015" y="236"/>
		</contour>
	</outline>
</glyph>
<glyph name="published" format="2">
	<advance width="530"/>
	<unicode hex="2117"/>
	<outline>
		<contour>
			<point x="265" y="286" type="curve" smooth="yes"/>
			<point x="385" y="286"/>
			<point x="480" y="381"/>
			<point x="480" y="501" type="curve" smooth="yes"/>
			<point x="480" y="621"/>
			<point x="385" y="716"/>
			<point x="265" y="716" type="curve" smooth="yes"/>
			<point x="146" y="716"/>
			<point x="50" y="621"/>
			<point x="50" y="501" type="curve" smooth="yes"/>
			<point x="50" y="381"/>
			<point x="146" y="286"/>
		</contour>
		<contour>
			<point x="204" y="393" type="line"/>
			<point x="241" y="393" type="line"/>
			<point x="241" y="611" type="line"/>
			<point x="204" y="611" type="line"/>
		</contour>
		<contour>
			<point x="265" y="323" type="curve" smooth="yes"/>
			<point x="166" y="323"/>
			<point x="87" y="402"/>
			<point x="87" y="501" type="curve" smooth="yes"/>
			<point x="87" y="601"/>
			<point x="166" y="679"/>
			<point x="265" y="679" type="curve" smooth="yes"/>
			<point x="366" y="679"/>
			<point x="443" y="601"/>
			<point x="443" y="501" type="curve" smooth="yes"/>
			<point x="443" y="402"/>
			<point x="366" y="323"/>
		</contour>
		<contour>
			<point x="214" y="480" type="line"/>
			<point x="277" y="480" type="line" smooth="yes"/>
			<point x="319" y="480"/>
			<point x="353" y="504"/>
			<point x="353" y="545" type="curve" smooth="yes"/>
			<point x="353" y="591"/>
			<point x="319" y="611"/>
			<point x="277" y="611" type="curve" smooth="yes"/>
			<point x="214" y="611" type="line"/>
			<point x="214" y="575" type="line"/>
			<point x="277" y="575" type="line" smooth="yes"/>
			<point x="302" y="575"/>
			<point x="316" y="568"/>
			<point x="316" y="545" type="curve" smooth="yes"/>
			<point x="316" y="522"/>
			<point x="302" y="516"/>
			<point x="277" y="516" type="curve" smooth="yes"/>
			<point x="214" y="516" type="line"/>
		</contour>
	</outline>
</glyph>
<glyph name="trademark" format="2">
	<advance width="808"/>
	<unicode hex="2122"/>
	<outline>
		<contour>
			<point x="385" y="336" type="line"/>
			<point x="444" y="336" type="line"/>
			<point x="444" y="618" type="line"/>
			<point x="429" y="615" type="line"/>
			<point x="528" y="336" type="line"/>
			<point x="585" y="336" type="line"/>
			<point x="684" y="615" type="line"/>
			<point x="669" y="618" type="line"/>
			<point x="669" y="336" type="line"/>
			<point x="728" y="336" type="line"/>
			<point x="728" y="700" type="line"/>
			<point x="659" y="700" type="line"/>
			<point x="542" y="373" type="line"/>
			<point x="572" y="373" type="line"/>
			<point x="454" y="700" type="line"/>
			<point x="385" y="700" type="line"/>
		</contour>
		<contour>
			<point x="138" y="336" type="line"/>
			<point x="197" y="336" type="line"/>
			<point x="197" y="665" type="line"/>
			<point x="138" y="665" type="line"/>
		</contour>
		<contour>
			<point x="10" y="646" type="line"/>
			<point x="325" y="646" type="line"/>
			<point x="325" y="700" type="line"/>
			<point x="10" y="700" type="line"/>
		</contour>
	</outline>
</glyph>
<glyph name="upArrow" format="2">
	<advance width="670"/>
	<unicode hex="2191"/>
	<outline>
		<contour>
			<point x="80" y="386" type="line"/>
			<point x="240" y="386"/>
			<point x="312" y="487"/>
			<point x="312" y="557" type="curve"/>
			<point x="358" y="557" type="line"/>
			<point x="358" y="487"/>
			<point x="430" y="386"/>
			<point x="590" y="386" type="curve"/>
			<point x="590" y="454" type="line"/>
			<point x="430" y="454"/>
			<point x="368" y="581"/>
			<point x="368" y="649" type="curve"/>
			<point x="302" y="649" type="line"/>
			<point x="302" y="581"/>
			<point x="240" y="454"/>
			<point x="80" y="454" type="curve"/>
		</contour>
		<contour>
			<point x="302" y="-34" type="line"/>
			<point x="368" y="-34" type="line"/>
			<point x="368" y="617" type="line"/>
			<point x="302" y="617" type="line"/>
		</contour>
	</outline>
</glyph>
<glyph name="rightArrow" format="2">
	<advance width="843"/>
	<unicode hex="2192"/>
	<outline>
		<contour>
			<point x="500" y="48" type="curve"/>
			<point x="568" y="48" type="line"/>
			<point x="568" y="208"/>
			<point x="695" y="270"/>
			<point x="763" y="270" type="curve"/>
			<point x="763" y="336" type="line"/>
			<point x="695" y="336"/>
			<point x="568" y="398"/>
			<point x="568" y="558" type="curve"/>
			<point x="500" y="558" type="line"/>
			<point x="500" y="398"/>
			<point x="601" y="326"/>
			<point x="671" y="326" type="curve"/>
			<point x="671" y="280" type="line"/>
			<point x="601" y="280"/>
			<point x="500" y="208"/>
		</contour>
		<contour>
			<point x="80" y="270" type="line"/>
			<point x="731" y="270" type="line"/>
			<point x="731" y="336" type="line"/>
			<point x="80" y="336" type="line"/>
		</contour>
	</outline>
</glyph>
<glyph name="downArrow" format="2">
	<advance width="670"/>
	<unicode hex="2193"/>
	<outline>
		<contour>
			<point x="302" y="-44" type="curve"/>
			<point x="368" y="-44" type="line"/>
			<point x="368" y="24"/>
			<point x="430" y="151"/>
			<point x="590" y="151" type="curve"/>
			<point x="590" y="219" type="line"/>
			<point x="430" y="219"/>
			<point x="358" y="118"/>
			<point x="358" y="48" type="curve"/>
			<point x="312" y="48" type="line"/>
			<point x="312" y="118"/>
			<point x="240" y="219"/>
			<point x="80" y="219" type="curve"/>
			<point x="80" y="151" type="line"/>
			<point x="240" y="151"/>
			<point x="302" y="24"/>
		</contour>
		<contour>
			<point x="302" y="-12" type="line"/>
			<point x="368" y="-12" type="line"/>
			<point x="368" y="639" type="line"/>
			<point x="302" y="639" type="line"/>
		</contour>
	</outline>
</glyph>
<glyph name="leftRightArrow" format="2">
	<advance width="915"/>
	<unicode hex="2194"/>
	<outline>
		<contour>
			<point x="572" y="48" type="curve"/>
			<point x="640" y="48" type="line"/>
			<point x="640" y="208"/>
			<point x="767" y="270"/>
			<point x="835" y="270" type="curve"/>
			<point x="835" y="336" type="line"/>
			<point x="767" y="336"/>
			<point x="640" y="398"/>
			<point x="640" y="558" type="curve"/>
			<point x="572" y="558" type="line"/>
			<point x="572" y="398"/>
			<point x="673" y="326"/>
			<point x="743" y="326" type="curve"/>
			<point x="743" y="280" type="line"/>
			<point x="673" y="280"/>
			<point x="572" y="208"/>
		</contour>
		<contour>
			<point x="275" y="48" type="curve"/>
			<point x="343" y="48" type="line"/>
			<point x="343" y="208"/>
			<point x="242" y="280"/>
			<point x="172" y="280" type="curve"/>
			<point x="172" y="326" type="line"/>
			<point x="242" y="326"/>
			<point x="343" y="398"/>
			<point x="343" y="558" type="curve"/>
			<point x="275" y="558" type="line"/>
			<point x="275" y="398"/>
			<point x="148" y="336"/>
			<point x="80" y="336" type="curve"/>
			<point x="80" y="270" type="line"/>
			<point x="148" y="270"/>
			<point x="275" y="208"/>
		</contour>
		<contour>
			<point x="112" y="270" type="line"/>
			<point x="803" y="270" type="line"/>
			<point x="803" y="336" type="line"/>
			<point x="112" y="336" type="line"/>
		</contour>
	</outline>
</glyph>
<glyph name="upDownArrow" format="2">
	<advance width="670"/>
	<unicode hex="2195"/>
	<outline>
		<contour>
			<point x="80" y="421" type="line"/>
			<point x="240" y="421"/>
			<point x="312" y="522"/>
			<point x="312" y="592" type="curve"/>
			<point x="358" y="592" type="line"/>
			<point x="358" y="522"/>
			<point x="430" y="421"/>
			<point x="590" y="421" type="curve"/>
			<point x="590" y="489" type="line"/>
			<point x="430" y="489"/>
			<point x="368" y="616"/>
			<point x="368" y="684" type="curve"/>
			<point x="302" y="684" type="line"/>
			<point x="302" y="616"/>
			<point x="240" y="489"/>
			<point x="80" y="489" type="curve"/>
		</contour>
		<contour>
			<point x="302" y="-71" type="curve"/>
			<point x="368" y="-71" type="line"/>
			<point x="368" y="-3"/>
			<point x="430" y="124"/>
			<point x="590" y="124" type="curve"/>
			<point x="590" y="192" type="line"/>
			<point x="430" y="192"/>
			<point x="358" y="91"/>
			<point x="358" y="21" type="curve"/>
			<point x="312" y="21" type="line"/>
			<point x="312" y="91"/>
			<point x="240" y="192"/>
			<point x="80" y="192" type="curve"/>
			<point x="80" y="124" type="line"/>
			<point x="240" y="124"/>
			<point x="302" y="-3"/>
		</contour>
		<contour>
			<point x="302" y="-39" type="line"/>
			<point x="368" y="-39" type="line"/>
			<point x="368" y="652" type="line"/>
			<point x="302" y="652" type="line"/>
		</contour>
	</outline>
</glyph>
<glyph name="northWestArrow" format="2">
	<advance width="709"/>
	<unicode hex="2196"/>
	<outline>
		<contour>
			<point x="582" y="42" type="line"/>
			<point x="629" y="89" type="line"/>
			<point x="168" y="549" type="line"/>
			<point x="122" y="502" type="line"/>
		</contour>
		<contour>
			<point x="128" y="182" type="line"/>
			<point x="241" y="295"/>
			<point x="221" y="417"/>
			<point x="171" y="467" type="curve"/>
			<point x="204" y="499" type="line"/>
			<point x="253" y="450"/>
			<point x="375" y="429"/>
			<point x="489" y="542" type="curve"/>
			<point x="440" y="591" type="line"/>
			<point x="327" y="477"/>
			<point x="194" y="523"/>
			<point x="146" y="571" type="curve"/>
			<point x="99" y="525" type="line"/>
			<point x="147" y="477"/>
			<point x="193" y="343"/>
			<point x="80" y="230" type="curve"/>
		</contour>
	</outline>
</glyph>
<glyph name="northEastArrow" format="2">
	<advance width="709"/>
	<unicode hex="2197"/>
	<outline>
		<contour>
			<point x="127" y="42" type="line"/>
			<point x="587" y="502" type="line"/>
			<point x="541" y="549" type="line"/>
			<point x="80" y="89" type="line"/>
		</contour>
		<contour>
			<point x="581" y="182" type="curve"/>
			<point x="629" y="230" type="line"/>
			<point x="516" y="343"/>
			<point x="562" y="477"/>
			<point x="610" y="525" type="curve"/>
			<point x="563" y="571" type="line"/>
			<point x="515" y="523"/>
			<point x="382" y="477"/>
			<point x="269" y="591" type="curve"/>
			<point x="220" y="542" type="line"/>
			<point x="334" y="429"/>
			<point x="456" y="450"/>
			<point x="505" y="499" type="curve"/>
			<point x="538" y="467" type="line"/>
			<point x="488" y="417"/>
			<point x="468" y="295"/>
		</contour>
	</outline>
</glyph>
<glyph name="southEastArrow" format="2">
	<advance width="709"/>
	<unicode hex="2198"/>
	<outline>
		<contour>
			<point x="541" y="71" type="line"/>
			<point x="587" y="118" type="line"/>
			<point x="127" y="578" type="line"/>
			<point x="80" y="531" type="line"/>
		</contour>
		<contour>
			<point x="269" y="29" type="line"/>
			<point x="382" y="143"/>
			<point x="515" y="97"/>
			<point x="563" y="49" type="curve"/>
			<point x="610" y="95" type="line"/>
			<point x="562" y="143"/>
			<point x="516" y="277"/>
			<point x="629" y="390" type="curve"/>
			<point x="581" y="438" type="line"/>
			<point x="468" y="325"/>
			<point x="488" y="203"/>
			<point x="538" y="153" type="curve"/>
			<point x="505" y="121" type="line"/>
			<point x="456" y="170"/>
			<point x="334" y="191"/>
			<point x="220" y="78" type="curve"/>
		</contour>
	</outline>
</glyph>
<glyph name="southWestArrow" format="2">
	<advance width="709"/>
	<unicode hex="2199"/>
	<outline>
		<contour>
			<point x="168" y="71" type="line"/>
			<point x="629" y="531" type="line"/>
			<point x="582" y="578" type="line"/>
			<point x="122" y="118" type="line"/>
		</contour>
		<contour>
			<point x="440" y="29" type="curve"/>
			<point x="489" y="78" type="line"/>
			<point x="375" y="191"/>
			<point x="253" y="170"/>
			<point x="204" y="121" type="curve"/>
			<point x="171" y="153" type="line"/>
			<point x="221" y="203"/>
			<point x="241" y="325"/>
			<point x="128" y="438" type="curve"/>
			<point x="80" y="390" type="line"/>
			<point x="193" y="277"/>
			<point x="147" y="143"/>
			<point x="99" y="95" type="curve"/>
			<point x="146" y="49" type="line"/>
			<point x="194" y="97"/>
			<point x="327" y="143"/>
		</contour>
	</outline>
</glyph>
<glyph name="leftHookArrow" format="2">
	<advance width="1064"/>
	<unicode hex="21A9"/>
	<outline>
		<contour>
			<point x="112" y="270" type="line"/>
			<point x="763" y="270" type="line" smooth="yes"/>
			<point x="886" y="270"/>
			<point x="984" y="368"/>
			<point x="984" y="490" type="curve" smooth="yes"/>
			<point x="984" y="612"/>
			<point x="886" y="710"/>
			<point x="763" y="710" type="curve" smooth="yes"/>
			<point x="593" y="710" type="line"/>
			<point x="593" y="644" type="line"/>
			<point x="763" y="644" type="line" smooth="yes"/>
			<point x="849" y="644"/>
			<point x="918" y="575"/>
			<point x="918" y="490" type="curve" smooth="yes"/>
			<point x="918" y="405"/>
			<point x="849" y="336"/>
			<point x="763" y="336" type="curve" smooth="yes"/>
			<point x="112" y="336" type="line"/>
		</contour>
		<contour>
			<point x="275" y="48" type="curve"/>
			<point x="343" y="48" type="line"/>
			<point x="343" y="208"/>
			<point x="242" y="280"/>
			<point x="172" y="280" type="curve"/>
			<point x="172" y="326" type="line"/>
			<point x="242" y="326"/>
			<point x="343" y="398"/>
			<point x="343" y="558" type="curve"/>
			<point x="275" y="558" type="line"/>
			<point x="275" y="398"/>
			<point x="148" y="336"/>
			<point x="80" y="336" type="curve"/>
			<point x="80" y="270" type="line"/>
			<point x="148" y="270"/>
			<point x="275" y="208"/>
		</contour>
	</outline>
</glyph>
<glyph name="rightHookArrow" format="2">
	<advance width="1064"/>
	<unicode hex="21AA"/>
	<outline>
		<contour>
			<point x="301" y="270" type="curve" smooth="yes"/>
			<point x="952" y="270" type="line"/>
			<point x="952" y="336" type="line"/>
			<point x="301" y="336" type="line" smooth="yes"/>
			<point x="215" y="336"/>
			<point x="146" y="405"/>
			<point x="146" y="490" type="curve" smooth="yes"/>
			<point x="146" y="575"/>
			<point x="215" y="644"/>
			<point x="301" y="644" type="curve" smooth="yes"/>
			<point x="471" y="644" type="line"/>
			<point x="471" y="710" type="line"/>
			<point x="301" y="710" type="line" smooth="yes"/>
			<point x="178" y="710"/>
			<point x="80" y="612"/>
			<point x="80" y="490" type="curve" smooth="yes"/>
			<point x="80" y="368"/>
			<point x="178" y="270"/>
		</contour>
		<contour>
			<point x="721" y="48" type="curve"/>
			<point x="789" y="48" type="line"/>
			<point x="789" y="208"/>
			<point x="916" y="270"/>
			<point x="984" y="270" type="curve"/>
			<point x="984" y="336" type="line"/>
			<point x="916" y="336"/>
			<point x="789" y="398"/>
			<point x="789" y="558" type="curve"/>
			<point x="721" y="558" type="line"/>
			<point x="721" y="398"/>
			<point x="822" y="326"/>
			<point x="892" y="326" type="curve"/>
			<point x="892" y="280" type="line"/>
			<point x="822" y="280"/>
			<point x="721" y="208"/>
		</contour>
	</outline>
</glyph>
<glyph name="upTipLeftArrow" format="2">
	<advance width="783"/>
	<unicode hex="21B0"/>
	<outline>
		<contour>
			<point x="275" y="48" type="curve"/>
			<point x="343" y="48" type="line"/>
			<point x="343" y="208"/>
			<point x="242" y="280"/>
			<point x="172" y="280" type="curve"/>
			<point x="172" y="326" type="line"/>
			<point x="242" y="326"/>
			<point x="343" y="398"/>
			<point x="343" y="558" type="curve"/>
			<point x="275" y="558" type="line"/>
			<point x="275" y="398"/>
			<point x="148" y="336"/>
			<point x="80" y="336" type="curve"/>
			<point x="80" y="270" type="line"/>
			<point x="148" y="270"/>
			<point x="275" y="208"/>
		</contour>
		<contour>
			<point x="112" y="270" type="line"/>
			<point x="703" y="270" type="line"/>
			<point x="703" y="336" type="line"/>
			<point x="112" y="336" type="line"/>
		</contour>
		<contour>
			<point x="637" y="-94" type="line"/>
			<point x="703" y="-94" type="line"/>
			<point x="703" y="270" type="line"/>
			<point x="637" y="270" type="line"/>
		</contour>
	</outline>
</glyph>
<glyph name="downTipRightArrow" format="2">
	<advance width="783"/>
	<unicode hex="21B3"/>
	<outline>
		<contour>
			<point x="440" y="48" type="curve"/>
			<point x="508" y="48" type="line"/>
			<point x="508" y="208"/>
			<point x="635" y="270"/>
			<point x="703" y="270" type="curve"/>
			<point x="703" y="336" type="line"/>
			<point x="635" y="336"/>
			<point x="508" y="398"/>
			<point x="508" y="558" type="curve"/>
			<point x="440" y="558" type="line"/>
			<point x="440" y="398"/>
			<point x="541" y="326"/>
			<point x="611" y="326" type="curve"/>
			<point x="611" y="280" type="line"/>
			<point x="541" y="280"/>
			<point x="440" y="208"/>
		</contour>
		<contour>
			<point x="80" y="336" type="line"/>
			<point x="146" y="336" type="line"/>
			<point x="146" y="700" type="line"/>
			<point x="80" y="700" type="line"/>
		</contour>
		<contour>
			<point x="80" y="270" type="line"/>
			<point x="671" y="270" type="line"/>
			<point x="671" y="336" type="line"/>
			<point x="80" y="336" type="line"/>
		</contour>
	</outline>
</glyph>
<glyph name="partialdiff" format="2">
	<advance width="684"/>
	<unicode hex="2202"/>
	<outline>
		<contour>
			<point x="341" y="-16" type="curve" smooth="yes"/>
			<point x="521" y="-16"/>
			<point x="584" y="126"/>
			<point x="584" y="256" type="curve" smooth="yes"/>
			<point x="584" y="526"/>
			<point x="451" y="716"/>
			<point x="281" y="716" type="curve"/>
			<point x="281" y="648" type="line"/>
			<point x="391" y="648"/>
			<point x="506" y="520"/>
			<point x="514" y="280" type="curve"/>
			<point x="529" y="270" type="line"/>
			<point x="529" y="380"/>
			<point x="455" y="465"/>
			<point x="341" y="465" type="curve" smooth="yes"/>
			<point x="208" y="465"/>
			<point x="100" y="357"/>
			<point x="100" y="224" type="curve" smooth="yes"/>
			<point x="100" y="92"/>
			<point x="208" y="-16"/>
		</contour>
		<contour>
			<point x="341" y="57" type="curve" smooth="yes"/>
			<point x="249" y="57"/>
			<point x="178" y="134"/>
			<point x="178" y="226" type="curve" smooth="yes"/>
			<point x="178" y="318"/>
			<point x="249" y="392"/>
			<point x="341" y="392" type="curve" smooth="yes"/>
			<point x="433" y="392"/>
			<point x="507" y="318"/>
			<point x="507" y="226" type="curve" smooth="yes"/>
			<point x="507" y="134"/>
			<point x="433" y="57"/>
		</contour>
	</outline>
</glyph>
<glyph name="emptyset" format="2">
	<advance width="932"/>
	<unicode hex="2205"/>
	<outline>
		<contour>
			<point x="188" y="0" type="line"/>
			<point x="790" y="654" type="line"/>
			<point x="744" y="700" type="line"/>
			<point x="142" y="46" type="line"/>
		</contour>
		<contour>
			<point x="466" y="-16" type="curve" smooth="yes"/>
			<point x="668" y="-16"/>
			<point x="832" y="148"/>
			<point x="832" y="350" type="curve" smooth="yes"/>
			<point x="832" y="552"/>
			<point x="668" y="716"/>
			<point x="466" y="716" type="curve" smooth="yes"/>
			<point x="264" y="716"/>
			<point x="100" y="552"/>
			<point x="100" y="350" type="curve" smooth="yes"/>
			<point x="100" y="148"/>
			<point x="264" y="-16"/>
		</contour>
		<contour>
			<point x="466" y="62" type="curve" smooth="yes"/>
			<point x="307" y="62"/>
			<point x="178" y="191"/>
			<point x="178" y="350" type="curve" smooth="yes"/>
			<point x="178" y="509"/>
			<point x="307" y="638"/>
			<point x="466" y="638" type="curve" smooth="yes"/>
			<point x="624" y="638"/>
			<point x="754" y="509"/>
			<point x="754" y="350" type="curve" smooth="yes"/>
			<point x="754" y="191"/>
			<point x="624" y="62"/>
		</contour>
	</outline>
</glyph>
<glyph name="product" format="2">
	<advance width="706"/>
	<unicode hex="220F"/>
	<outline>
		<contour>
			<point x="528" y="-216" type="line"/>
			<point x="606" y="-216" type="line"/>
			<point x="606" y="700" type="line"/>
			<point x="528" y="700" type="line"/>
		</contour>
		<contour>
			<point x="100" y="-216" type="line"/>
			<point x="178" y="-216" type="line"/>
			<point x="178" y="700" type="line"/>
			<point x="100" y="700" type="line"/>
		</contour>
		<contour>
			<point x="100" y="627" type="line"/>
			<point x="606" y="627" type="line"/>
			<point x="606" y="700" type="line"/>
			<point x="100" y="700" type="line"/>
		</contour>
	</outline>
</glyph>
<glyph name="summation" format="2">
	<advance width="682"/>
	<unicode hex="2211"/>
	<outline>
		<contour>
			<point x="100" y="-216" type="line"/>
			<point x="582" y="-216" type="line"/>
			<point x="582" y="-143" type="line"/>
			<point x="141" y="-143" type="line"/>
			<point x="160" y="-180" type="line"/>
			<point x="455" y="242" type="line"/>
			<point x="160" y="664" type="line"/>
			<point x="141" y="627" type="line"/>
			<point x="582" y="627" type="line"/>
			<point x="582" y="700" type="line"/>
			<point x="100" y="700" type="line"/>
			<point x="100" y="627" type="line"/>
			<point x="395" y="205" type="line"/>
			<point x="395" y="279" type="line"/>
			<point x="100" y="-143" type="line"/>
		</contour>
	</outline>
</glyph>
<glyph name="minus" format="2">
	<advance width="599"/>
	<unicode hex="2212"/>
	<outline>
		<contour>
			<point x="80" y="259" type="line"/>
			<point x="519" y="259" type="line"/>
			<point x="519" y="332" type="line"/>
			<point x="80" y="332" type="line"/>
		</contour>
	</outline>
</glyph>
<glyph name="radical" format="2">
	<advance width="651"/>
	<unicode hex="221A"/>
	<outline>
		<contour>
			<point x="266" y="-216" type="line"/>
			<point x="368" y="-216" type="line"/>
			<point x="601" y="700" type="line"/>
			<point x="523" y="700" type="line"/>
			<point x="305" y="-157" type="line"/>
			<point x="327" y="-157" type="line"/>
			<point x="208" y="298" type="line"/>
			<point x="50" y="298" type="line"/>
			<point x="50" y="230" type="line"/>
			<point x="193" y="230" type="line"/>
			<point x="136" y="274" type="line"/>
		</contour>
	</outline>
</glyph>
<glyph name="infinity" format="2">
	<advance width="906"/>
	<unicode hex="221E"/>
	<outline>
		<contour>
			<point x="630" y="55" type="curve" smooth="yes"/>
			<point x="730" y="55"/>
			<point x="826" y="130"/>
			<point x="826" y="261" type="curve" smooth="yes"/>
			<point x="826" y="390"/>
			<point x="730" y="467"/>
			<point x="630" y="467" type="curve" smooth="yes"/>
			<point x="410" y="467"/>
			<point x="446" y="128"/>
			<point x="276" y="128" type="curve" smooth="yes"/>
			<point x="196" y="128"/>
			<point x="158" y="191"/>
			<point x="158" y="261" type="curve" smooth="yes"/>
			<point x="158" y="331"/>
			<point x="196" y="394"/>
			<point x="276" y="394" type="curve" smooth="yes"/>
			<point x="446" y="394"/>
			<point x="400" y="55"/>
		</contour>
		<contour>
			<point x="276" y="55" type="curve" smooth="yes"/>
			<point x="496" y="55"/>
			<point x="460" y="394"/>
			<point x="630" y="394" type="curve" smooth="yes"/>
			<point x="710" y="394"/>
			<point x="748" y="331"/>
			<point x="748" y="261" type="curve" smooth="yes"/>
			<point x="748" y="191"/>
			<point x="710" y="128"/>
			<point x="630" y="128" type="curve" smooth="yes"/>
			<point x="460" y="128"/>
			<point x="506" y="467"/>
			<point x="276" y="467" type="curve" smooth="yes"/>
			<point x="176" y="467"/>
			<point x="80" y="390"/>
			<point x="80" y="261" type="curve" smooth="yes"/>
			<point x="80" y="130"/>
			<point x="176" y="55"/>
		</contour>
	</outline>
</glyph>
<glyph name="integral" format="2">
	<advance width="598"/>
	<unicode hex="222B"/>
	<outline>
		<contour>
			<point x="100" y="-216" type="line"/>
			<point x="169" y="-216" type="line" smooth="yes"/>
			<point x="255" y="-216"/>
			<point x="296" y="-179"/>
			<point x="308" y="-62" type="curve" smooth="yes"/>
			<point x="368" y="535" type="line" smooth="yes"/>
			<point x="377" y="627"/>
			<point x="387" y="637"/>
			<point x="441" y="637" type="curve" smooth="yes"/>
			<point x="498" y="637" type="line"/>
			<point x="498" y="710" type="line"/>
			<point x="429" y="710" type="line" smooth="yes"/>
			<point x="343" y="710"/>
			<point x="302" y="673"/>
			<point x="290" y="556" type="curve" smooth="yes"/>
			<point x="230" y="-41" type="line" smooth="yes"/>
			<point x="221" y="-133"/>
			<point x="211" y="-143"/>
			<point x="157" y="-143" type="curve" smooth="yes"/>
			<point x="100" y="-143" type="line"/>
		</contour>
	</outline>
</glyph>
<glyph name="approxequal" format="2">
	<advance width="599"/>
	<unicode hex="2248"/>
	<outline>
		<contour>
			<point x="80" y="359" type="line"/>
			<point x="90" y="369"/>
			<point x="120" y="399"/>
			<point x="200" y="399" type="curve" smooth="yes"/>
			<point x="280" y="399"/>
			<point x="319" y="339"/>
			<point x="399" y="339" type="curve" smooth="yes"/>
			<point x="479" y="339"/>
			<point x="509" y="369"/>
			<point x="519" y="379" type="curve"/>
			<point x="519" y="452" type="line"/>
			<point x="509" y="442"/>
			<point x="479" y="412"/>
			<point x="399" y="412" type="curve" smooth="yes"/>
			<point x="319" y="412"/>
			<point x="280" y="472"/>
			<point x="200" y="472" type="curve" smooth="yes"/>
			<point x="120" y="472"/>
			<point x="90" y="442"/>
			<point x="80" y="432" type="curve"/>
		</contour>
		<contour>
			<point x="80" y="126" type="line"/>
			<point x="90" y="136"/>
			<point x="120" y="166"/>
			<point x="200" y="166" type="curve" smooth="yes"/>
			<point x="280" y="166"/>
			<point x="319" y="106"/>
			<point x="399" y="106" type="curve" smooth="yes"/>
			<point x="479" y="106"/>
			<point x="509" y="136"/>
			<point x="519" y="146" type="curve"/>
			<point x="519" y="219" type="line"/>
			<point x="509" y="209"/>
			<point x="479" y="179"/>
			<point x="399" y="179" type="curve" smooth="yes"/>
			<point x="319" y="179"/>
			<point x="280" y="239"/>
			<point x="200" y="239" type="curve" smooth="yes"/>
			<point x="120" y="239"/>
			<point x="90" y="209"/>
			<point x="80" y="199" type="curve"/>
		</contour>
	</outline>
</glyph>
<glyph name="notequal" format="2">
	<advance width="599"/>
	<unicode hex="2260"/>
	<outline>
		<contour>
			<point x="158" y="22" type="line"/>
			<point x="228" y="22" type="line"/>
			<point x="440" y="579" type="line"/>
			<point x="371" y="579" type="line"/>
		</contour>
		<contour>
			<point x="80" y="143" type="line"/>
			<point x="519" y="143" type="line"/>
			<point x="519" y="216" type="line"/>
			<point x="80" y="216" type="line"/>
		</contour>
		<contour>
			<point x="80" y="376" type="line"/>
			<point x="519" y="376" type="line"/>
			<point x="519" y="449" type="line"/>
			<point x="80" y="449" type="line"/>
		</contour>
	</outline>
</glyph>
<glyph name="greaterequal" format="2">
	<advance width="599"/>
	<unicode hex="2265"/>
	<outline>
		<contour>
			<point x="80" y="166" type="line"/>
			<point x="519" y="336" type="line"/>
			<point x="519" y="419" type="line"/>
			<point x="80" y="589" type="line"/>
			<point x="80" y="506" type="line"/>
			<point x="454" y="362" type="line"/>
			<point x="454" y="394" type="line"/>
			<point x="80" y="249" type="line"/>
		</contour>
		<contour>
			<point x="80" y="-1" type="line"/>
			<point x="519" y="-1" type="line"/>
			<point x="519" y="72" type="line"/>
			<point x="80" y="72" type="line"/>
		</contour>
	</outline>
</glyph>
<glyph name="two.circled" format="2">
	<advance width="892"/>
	<unicode hex="2461"/>
	<outline>
		<contour>
			<point x="333" y="190" type="line"/>
			<point x="565" y="190" type="line"/>
			<point x="565" y="239" type="line"/>
			<point x="375" y="239" type="line"/>
			<point x="385" y="214" type="line"/>
			<point x="460" y="249"/>
			<point x="558" y="327"/>
			<point x="558" y="423" type="curve" smooth="yes"/>
			<point x="558" y="481"/>
			<point x="517" y="528"/>
			<point x="449" y="528" type="curve" smooth="yes"/>
			<point x="375" y="528"/>
			<point x="332" y="476"/>
			<point x="332" y="416" type="curve"/>
			<point x="383" y="411" type="line"/>
			<point x="383" y="451"/>
			<point x="404" y="479"/>
			<point x="449" y="479" type="curve" smooth="yes"/>
			<point x="486" y="479"/>
			<point x="506" y="456"/>
			<point x="506" y="423" type="curve" smooth="yes"/>
			<point x="506" y="349"/>
			<point x="426" y="282"/>
			<point x="333" y="239" type="curve"/>
		</contour>
		<component base="whiteCircle"/>
	</outline>
</glyph>
<glyph name="three.circled" format="2">
	<advance width="892"/>
	<unicode hex="2462"/>
	<outline>
		<contour>
			<point x="446" y="182" type="curve" smooth="yes"/>
			<point x="517" y="182"/>
			<point x="567" y="225"/>
			<point x="567" y="284" type="curve" smooth="yes"/>
			<point x="567" y="346"/>
			<point x="517" y="371"/>
			<point x="467" y="371" type="curve"/>
			<point x="467" y="352" type="line"/>
			<point x="507" y="352"/>
			<point x="556" y="379"/>
			<point x="556" y="432" type="curve" smooth="yes"/>
			<point x="556" y="481"/>
			<point x="516" y="528"/>
			<point x="446" y="528" type="curve" smooth="yes"/>
			<point x="371" y="528"/>
			<point x="335" y="483"/>
			<point x="335" y="433" type="curve"/>
			<point x="388" y="428" type="line"/>
			<point x="388" y="458"/>
			<point x="405" y="479"/>
			<point x="446" y="479" type="curve" smooth="yes"/>
			<point x="483" y="479"/>
			<point x="505" y="459"/>
			<point x="505" y="432" type="curve" smooth="yes"/>
			<point x="505" y="404"/>
			<point x="487" y="385"/>
			<point x="447" y="385" type="curve" smooth="yes"/>
			<point x="412" y="385" type="line"/>
			<point x="412" y="337" type="line"/>
			<point x="447" y="337" type="line" smooth="yes"/>
			<point x="487" y="337"/>
			<point x="516" y="319"/>
			<point x="516" y="284" type="curve" smooth="yes"/>
			<point x="516" y="248"/>
			<point x="480" y="231"/>
			<point x="446" y="231" type="curve" smooth="yes"/>
			<point x="409" y="231"/>
			<point x="377" y="247"/>
			<point x="377" y="297" type="curve"/>
			<point x="325" y="292" type="line"/>
			<point x="325" y="232"/>
			<point x="372" y="182"/>
		</contour>
		<component base="whiteCircle"/>
	</outline>
</glyph>
<glyph name="four.circled" format="2">
	<advance width="892"/>
	<unicode hex="2463"/>
	<outline>
		<contour>
			<point x="288" y="276" type="line"/>
			<point x="584" y="276" type="line"/>
			<point x="584" y="325" type="line"/>
			<point x="314" y="325" type="line"/>
			<point x="298" y="287" type="line"/>
			<point x="424" y="335"/>
			<point x="428" y="437"/>
			<point x="428" y="521" type="curve"/>
			<point x="377" y="521" type="line"/>
			<point x="377" y="439"/>
			<point x="374" y="376"/>
			<point x="288" y="321" type="curve"/>
		</contour>
		<component base="whiteCircle"/>
		<contour>
			<point x="479" y="190" type="line"/>
			<point x="530" y="190" type="line"/>
			<point x="530" y="521" type="line"/>
			<point x="479" y="521" type="line"/>
		</contour>
	</outline>
</glyph>
<glyph name="five.circled" format="2">
	<advance width="892"/>
	<unicode hex="2464"/>
	<outline>
		<contour>
			<point x="446" y="182" type="curve" smooth="yes"/>
			<point x="513" y="182"/>
			<point x="564" y="230"/>
			<point x="564" y="302" type="curve" smooth="yes"/>
			<point x="564" y="374"/>
			<point x="513" y="420"/>
			<point x="450" y="420" type="curve" smooth="yes"/>
			<point x="405" y="420"/>
			<point x="370" y="396"/>
			<point x="364" y="359" type="curve"/>
			<point x="386" y="359" type="line"/>
			<point x="394" y="471" type="line"/>
			<point x="540" y="471" type="line"/>
			<point x="540" y="520" type="line"/>
			<point x="348" y="520" type="line"/>
			<point x="332" y="330" type="line"/>
			<point x="381" y="330" type="line"/>
			<point x="385" y="339"/>
			<point x="401" y="373"/>
			<point x="450" y="373" type="curve" smooth="yes"/>
			<point x="491" y="373"/>
			<point x="513" y="340"/>
			<point x="513" y="302" type="curve" smooth="yes"/>
			<point x="513" y="263"/>
			<point x="491" y="230"/>
			<point x="446" y="230" type="curve" smooth="yes"/>
			<point x="396" y="230"/>
			<point x="379" y="256"/>
			<point x="379" y="296" type="curve"/>
			<point x="328" y="291" type="line"/>
			<point x="328" y="221"/>
			<point x="377" y="182"/>
		</contour>
		<component base="whiteCircle"/>
	</outline>
</glyph>
<glyph name="six.circled" format="2">
	<advance width="892"/>
	<unicode hex="2465"/>
	<outline>
		<contour>
			<point x="444" y="182" type="curve" smooth="yes"/>
			<point x="506" y="182"/>
			<point x="560" y="231"/>
			<point x="560" y="299" type="curve" smooth="yes"/>
			<point x="560" y="371"/>
			<point x="506" y="415"/>
			<point x="444" y="415" type="curve" smooth="yes"/>
			<point x="380" y="415"/>
			<point x="340" y="368"/>
			<point x="349" y="261" type="curve"/>
			<point x="365" y="318" type="line"/>
			<point x="363" y="425"/>
			<point x="386" y="479"/>
			<point x="448" y="479" type="curve" smooth="yes"/>
			<point x="487" y="479"/>
			<point x="502" y="457"/>
			<point x="514" y="424" type="curve"/>
			<point x="565" y="429" type="line"/>
			<point x="547" y="499"/>
			<point x="508" y="528"/>
			<point x="448" y="528" type="curve" smooth="yes"/>
			<point x="377" y="528"/>
			<point x="318" y="472"/>
			<point x="318" y="356" type="curve" smooth="yes"/>
			<point x="318" y="256"/>
			<point x="354" y="182"/>
		</contour>
		<contour>
			<point x="444" y="231" type="curve" smooth="yes"/>
			<point x="401" y="231"/>
			<point x="377" y="257"/>
			<point x="377" y="299" type="curve" smooth="yes"/>
			<point x="377" y="341"/>
			<point x="402" y="366"/>
			<point x="444" y="366" type="curve" smooth="yes"/>
			<point x="486" y="366"/>
			<point x="509" y="341"/>
			<point x="509" y="299" type="curve" smooth="yes"/>
			<point x="509" y="257"/>
			<point x="485" y="231"/>
		</contour>
		<component base="whiteCircle"/>
	</outline>
</glyph>
<glyph name="seven.circled" format="2">
	<advance width="892"/>
	<unicode hex="2466"/>
	<outline>
		<contour>
			<point x="393" y="190" type="curve"/>
			<point x="444" y="190" type="line"/>
			<point x="444" y="326"/>
			<point x="452" y="412"/>
			<point x="557" y="476" type="curve"/>
			<point x="557" y="521" type="line"/>
			<point x="325" y="521" type="line"/>
			<point x="325" y="472" type="line"/>
			<point x="535" y="472" type="line"/>
			<point x="550" y="508" type="line"/>
			<point x="414" y="469"/>
			<point x="392" y="330"/>
		</contour>
		<component base="whiteCircle"/>
	</outline>
</glyph>
<glyph name="eight.circled" format="2">
	<advance width="892"/>
	<unicode hex="2467"/>
	<outline>
		<contour>
			<point x="446" y="182" type="curve" smooth="yes"/>
			<point x="507" y="182"/>
			<point x="571" y="221"/>
			<point x="571" y="284" type="curve" smooth="yes"/>
			<point x="571" y="329"/>
			<point x="534" y="372"/>
			<point x="474" y="372" type="curve"/>
			<point x="474" y="352" type="line"/>
			<point x="524" y="352"/>
			<point x="559" y="394"/>
			<point x="559" y="433" type="curve" smooth="yes"/>
			<point x="559" y="485"/>
			<point x="517" y="528"/>
			<point x="446" y="528" type="curve" smooth="yes"/>
			<point x="375" y="528"/>
			<point x="333" y="485"/>
			<point x="333" y="433" type="curve" smooth="yes"/>
			<point x="333" y="396"/>
			<point x="368" y="351"/>
			<point x="418" y="351" type="curve"/>
			<point x="418" y="371" type="line"/>
			<point x="358" y="371"/>
			<point x="321" y="331"/>
			<point x="321" y="284" type="curve" smooth="yes"/>
			<point x="321" y="221"/>
			<point x="385" y="182"/>
		</contour>
		<contour>
			<point x="446" y="231" type="curve" smooth="yes"/>
			<point x="403" y="231"/>
			<point x="373" y="249"/>
			<point x="373" y="284" type="curve" smooth="yes"/>
			<point x="373" y="320"/>
			<point x="403" y="337"/>
			<point x="446" y="337" type="curve" smooth="yes"/>
			<point x="489" y="337"/>
			<point x="519" y="320"/>
			<point x="519" y="284" type="curve" smooth="yes"/>
			<point x="519" y="249"/>
			<point x="489" y="231"/>
		</contour>
		<component base="whiteCircle"/>
		<contour>
			<point x="446" y="386" type="curve" smooth="yes"/>
			<point x="404" y="386"/>
			<point x="384" y="405"/>
			<point x="384" y="433" type="curve" smooth="yes"/>
			<point x="384" y="461"/>
			<point x="404" y="479"/>
			<point x="446" y="479" type="curve" smooth="yes"/>
			<point x="488" y="479"/>
			<point x="508" y="461"/>
			<point x="508" y="433" type="curve" smooth="yes"/>
			<point x="508" y="405"/>
			<point x="488" y="386"/>
		</contour>
	</outline>
</glyph>
<glyph name="nine.circled" format="2">
	<advance width="892"/>
	<unicode hex="2468"/>
	<outline>
		<contour>
			<point x="445" y="182" type="curve" smooth="yes"/>
			<point x="516" y="182"/>
			<point x="575" y="238"/>
			<point x="575" y="354" type="curve" smooth="yes"/>
			<point x="575" y="454"/>
			<point x="539" y="528"/>
			<point x="449" y="528" type="curve" smooth="yes"/>
			<point x="387" y="528"/>
			<point x="333" y="479"/>
			<point x="333" y="411" type="curve" smooth="yes"/>
			<point x="333" y="339"/>
			<point x="387" y="295"/>
			<point x="449" y="295" type="curve" smooth="yes"/>
			<point x="513" y="295"/>
			<point x="553" y="342"/>
			<point x="544" y="449" type="curve"/>
			<point x="528" y="392" type="line"/>
			<point x="530" y="285"/>
			<point x="507" y="231"/>
			<point x="445" y="231" type="curve" smooth="yes"/>
			<point x="406" y="231"/>
			<point x="391" y="253"/>
			<point x="379" y="286" type="curve"/>
			<point x="328" y="281" type="line"/>
			<point x="346" y="211"/>
			<point x="385" y="182"/>
		</contour>
		<component base="whiteCircle"/>
		<contour>
			<point x="449" y="344" type="curve" smooth="yes"/>
			<point x="407" y="344"/>
			<point x="384" y="369"/>
			<point x="384" y="411" type="curve" smooth="yes"/>
			<point x="384" y="453"/>
			<point x="408" y="479"/>
			<point x="449" y="479" type="curve" smooth="yes"/>
			<point x="492" y="479"/>
			<point x="516" y="453"/>
			<point x="516" y="411" type="curve" smooth="yes"/>
			<point x="516" y="369"/>
			<point x="491" y="344"/>
		</contour>
	</outline>
</glyph>
<glyph name="zero.circled" format="2">
	<advance width="892"/>
	<unicode hex="24EA"/>
	<outline>
		<contour>
			<point x="446" y="182" type="curve" smooth="yes"/>
			<point x="527" y="182"/>
			<point x="577" y="252"/>
			<point x="577" y="355" type="curve" smooth="yes"/>
			<point x="577" y="458"/>
			<point x="527" y="528"/>
			<point x="446" y="528" type="curve" smooth="yes"/>
			<point x="365" y="528"/>
			<point x="315" y="458"/>
			<point x="315" y="355" type="curve" smooth="yes"/>
			<point x="315" y="252"/>
			<point x="365" y="182"/>
		</contour>
		<component base="whiteCircle"/>
		<contour>
			<point x="446" y="231" type="curve" smooth="yes"/>
			<point x="388" y="231"/>
			<point x="366" y="289"/>
			<point x="366" y="355" type="curve" smooth="yes"/>
			<point x="366" y="421"/>
			<point x="388" y="479"/>
			<point x="446" y="479" type="curve" smooth="yes"/>
			<point x="504" y="479"/>
			<point x="526" y="421"/>
			<point x="526" y="355" type="curve" smooth="yes"/>
			<point x="526" y="289"/>
			<point x="504" y="231"/>
		</contour>
	</outline>
</glyph>
<glyph name="zero.blackCircled" format="2">
	<advance width="892"/>
	<unicode hex="24FF"/>
	<outline>
		<contour>
			<point x="447" y="-16" type="curve" smooth="yes"/>
			<point x="648" y="-16"/>
			<point x="812" y="148"/>
			<point x="812" y="350" type="curve" smooth="yes"/>
			<point x="812" y="552"/>
			<point x="648" y="716"/>
			<point x="447" y="716" type="curve" smooth="yes"/>
			<point x="244" y="716"/>
			<point x="80" y="552"/>
			<point x="80" y="350" type="curve" smooth="yes"/>
			<point x="80" y="148"/>
			<point x="244" y="-16"/>
		</contour>
		<contour>
			<point x="446" y="182" type="curve" smooth="yes"/>
			<point x="365" y="182"/>
			<point x="315" y="252"/>
			<point x="315" y="355" type="curve" smooth="yes"/>
			<point x="315" y="458"/>
			<point x="365" y="528"/>
			<point x="446" y="528" type="curve" smooth="yes"/>
			<point x="527" y="528"/>
			<point x="577" y="458"/>
			<point x="577" y="355" type="curve" smooth="yes"/>
			<point x="577" y="252"/>
			<point x="527" y="182"/>
		</contour>
		<contour>
			<point x="446" y="231" type="curve" smooth="yes"/>
			<point x="504" y="231"/>
			<point x="526" y="289"/>
			<point x="526" y="355" type="curve" smooth="yes"/>
			<point x="526" y="421"/>
			<point x="504" y="479"/>
			<point x="446" y="479" type="curve" smooth="yes"/>
			<point x="388" y="479"/>
			<point x="366" y="421"/>
			<point x="366" y="355" type="curve" smooth="yes"/>
			<point x="366" y="289"/>
			<point x="388" y="231"/>
		</contour>
	</outline>
</glyph>
<glyph name="lozenge" format="2">
	<advance width="580"/>
	<unicode hex="25CA"/>
	<outline>
		<contour>
			<point x="243" y="0" type="line"/>
			<point x="327" y="0" type="line"/>
			<point x="500" y="350" type="line"/>
			<point x="327" y="700" type="line"/>
			<point x="243" y="700" type="line"/>
			<point x="80" y="350" type="line"/>
		</contour>
		<contour>
			<point x="305" y="24" type="line"/>
			<point x="134" y="391" type="line"/>
			<point x="134" y="309" type="line"/>
			<point x="305" y="676" type="line"/>
			<point x="266" y="675" type="line"/>
			<point x="447" y="310" type="line"/>
			<point x="447" y="390" type="line"/>
			<point x="266" y="25" type="line"/>
		</contour>
	</outline>
</glyph>
<glyph name="whiteCircle" format="2">
	<advance width="892"/>
	<unicode hex="25CB"/>
	<outline>
		<contour>
			<point x="447" y="-16" type="curve" smooth="yes"/>
			<point x="648" y="-16"/>
			<point x="812" y="148"/>
			<point x="812" y="350" type="curve" smooth="yes"/>
			<point x="812" y="552"/>
			<point x="648" y="716"/>
			<point x="447" y="716" type="curve" smooth="yes"/>
			<point x="244" y="716"/>
			<point x="80" y="552"/>
			<point x="80" y="350" type="curve" smooth="yes"/>
			<point x="80" y="148"/>
			<point x="244" y="-16"/>
		</contour>
		<contour>
			<point x="447" y="33" type="curve"/>
			<point x="273" y="33"/>
			<point x="129" y="177"/>
			<point x="129" y="350" type="curve"/>
			<point x="129" y="523"/>
			<point x="273" y="667"/>
			<point x="447" y="667" type="curve"/>
			<point x="619" y="667"/>
			<point x="763" y="523"/>
			<point x="763" y="350" type="curve"/>
			<point x="763" y="177"/>
			<point x="619" y="33"/>
		</contour>
	</outline>
</glyph>
<glyph name="blackCircle" format="2">
	<advance width="892"/>
	<unicode hex="25CF"/>
	<outline>
		<contour>
			<point x="447" y="-16" type="curve" smooth="yes"/>
			<point x="648" y="-16"/>
			<point x="812" y="148"/>
			<point x="812" y="350" type="curve" smooth="yes"/>
			<point x="812" y="552"/>
			<point x="648" y="716"/>
			<point x="447" y="716" type="curve" smooth="yes"/>
			<point x="244" y="716"/>
			<point x="80" y="552"/>
			<point x="80" y="350" type="curve" smooth="yes"/>
			<point x="80" y="148"/>
			<point x="244" y="-16"/>
		</contour>
	</outline>
</glyph>
<glyph name="one.blackCircled" format="2">
	<advance width="892"/>
	<unicode hex="2776"/>
	<outline>
		<contour>
			<point x="447" y="-16" type="curve" smooth="yes"/>
			<point x="648" y="-16"/>
			<point x="812" y="148"/>
			<point x="812" y="350" type="curve" smooth="yes"/>
			<point x="812" y="552"/>
			<point x="648" y="716"/>
			<point x="447" y="716" type="curve" smooth="yes"/>
			<point x="244" y="716"/>
			<point x="80" y="552"/>
			<point x="80" y="350" type="curve" smooth="yes"/>
			<point x="80" y="148"/>
			<point x="244" y="-16"/>
		</contour>
		<contour>
			<point x="341" y="190" type="line"/>
			<point x="341" y="239" type="line"/>
			<point x="432" y="239" type="line"/>
			<point x="432" y="416" type="line"/>
			<point x="422" y="395"/>
			<point x="403" y="382"/>
			<point x="373" y="382" type="curve" smooth="yes"/>
			<point x="341" y="382" type="line"/>
			<point x="341" y="431" type="line"/>
			<point x="373" y="431" type="line" smooth="yes"/>
			<point x="416" y="431"/>
			<point x="432" y="455"/>
			<point x="432" y="521" type="curve"/>
			<point x="484" y="521" type="line"/>
			<point x="484" y="239" type="line"/>
			<point x="575" y="239" type="line"/>
			<point x="575" y="190" type="line"/>
		</contour>
	</outline>
</glyph>
<glyph name="two.blackCircled" format="2">
	<advance width="892"/>
	<unicode hex="2777"/>
	<outline>
		<contour>
			<point x="447" y="-16" type="curve" smooth="yes"/>
			<point x="648" y="-16"/>
			<point x="812" y="148"/>
			<point x="812" y="350" type="curve" smooth="yes"/>
			<point x="812" y="552"/>
			<point x="648" y="716"/>
			<point x="447" y="716" type="curve" smooth="yes"/>
			<point x="244" y="716"/>
			<point x="80" y="552"/>
			<point x="80" y="350" type="curve" smooth="yes"/>
			<point x="80" y="148"/>
			<point x="244" y="-16"/>
		</contour>
		<contour>
			<point x="333" y="190" type="line"/>
			<point x="333" y="236" type="line"/>
			<point x="426" y="282"/>
			<point x="506" y="349"/>
			<point x="506" y="423" type="curve" smooth="yes"/>
			<point x="506" y="456"/>
			<point x="486" y="479"/>
			<point x="449" y="479" type="curve" smooth="yes"/>
			<point x="404" y="479"/>
			<point x="379" y="452"/>
			<point x="383" y="409" type="curve"/>
			<point x="332" y="416" type="line"/>
			<point x="328" y="477"/>
			<point x="375" y="528"/>
			<point x="449" y="528" type="curve" smooth="yes"/>
			<point x="517" y="528"/>
			<point x="558" y="481"/>
			<point x="558" y="423" type="curve" smooth="yes"/>
			<point x="558" y="327"/>
			<point x="460" y="249"/>
			<point x="385" y="214" type="curve"/>
			<point x="375" y="239" type="line"/>
			<point x="565" y="239" type="line"/>
			<point x="565" y="190" type="line"/>
		</contour>
	</outline>
</glyph>
<glyph name="three.blackCircled" format="2">
	<advance width="892"/>
	<unicode hex="2778"/>
	<outline>
		<contour>
			<point x="447" y="-16" type="curve" smooth="yes"/>
			<point x="648" y="-16"/>
			<point x="812" y="148"/>
			<point x="812" y="350" type="curve" smooth="yes"/>
			<point x="812" y="552"/>
			<point x="648" y="716"/>
			<point x="447" y="716" type="curve" smooth="yes"/>
			<point x="244" y="716"/>
			<point x="80" y="552"/>
			<point x="80" y="350" type="curve" smooth="yes"/>
			<point x="80" y="148"/>
			<point x="244" y="-16"/>
		</contour>
		<contour>
			<point x="446" y="182" type="curve" smooth="yes"/>
			<point x="372" y="182"/>
			<point x="325" y="232"/>
			<point x="325" y="292" type="curve"/>
			<point x="377" y="297" type="line"/>
			<point x="377" y="247"/>
			<point x="409" y="231"/>
			<point x="446" y="231" type="curve" smooth="yes"/>
			<point x="480" y="231"/>
			<point x="516" y="248"/>
			<point x="516" y="284" type="curve" smooth="yes"/>
			<point x="516" y="319"/>
			<point x="487" y="337"/>
			<point x="447" y="337" type="curve" smooth="yes"/>
			<point x="412" y="337" type="line"/>
			<point x="412" y="385" type="line"/>
			<point x="447" y="385" type="line" smooth="yes"/>
			<point x="487" y="385"/>
			<point x="505" y="404"/>
			<point x="505" y="432" type="curve" smooth="yes"/>
			<point x="505" y="459"/>
			<point x="483" y="479"/>
			<point x="446" y="479" type="curve" smooth="yes"/>
			<point x="405" y="479"/>
			<point x="388" y="458"/>
			<point x="388" y="428" type="curve"/>
			<point x="335" y="433" type="line"/>
			<point x="335" y="483"/>
			<point x="371" y="528"/>
			<point x="446" y="528" type="curve" smooth="yes"/>
			<point x="516" y="528"/>
			<point x="556" y="481"/>
			<point x="556" y="432" type="curve" smooth="yes"/>
			<point x="556" y="379"/>
			<point x="507" y="352"/>
			<point x="467" y="352" type="curve"/>
			<point x="467" y="371" type="line"/>
			<point x="517" y="371"/>
			<point x="567" y="346"/>
			<point x="567" y="284" type="curve" smooth="yes"/>
			<point x="567" y="225"/>
			<point x="517" y="182"/>
		</contour>
	</outline>
</glyph>
<glyph name="four.blackCircled" format="2">
	<advance width="892"/>
	<unicode hex="2779"/>
	<outline>
		<contour>
			<point x="447" y="-16" type="curve" smooth="yes"/>
			<point x="648" y="-16"/>
			<point x="812" y="148"/>
			<point x="812" y="350" type="curve" smooth="yes"/>
			<point x="812" y="552"/>
			<point x="648" y="716"/>
			<point x="447" y="716" type="curve" smooth="yes"/>
			<point x="244" y="716"/>
			<point x="80" y="552"/>
			<point x="80" y="350" type="curve" smooth="yes"/>
			<point x="80" y="148"/>
			<point x="244" y="-16"/>
		</contour>
		<contour>
			<point x="479" y="190" type="line"/>
			<point x="479" y="276" type="line"/>
			<point x="288" y="276" type="line"/>
			<point x="288" y="321" type="line"/>
			<point x="374" y="376"/>
			<point x="377" y="439"/>
			<point x="377" y="521" type="curve"/>
			<point x="428" y="521" type="line"/>
			<point x="428" y="455"/>
			<point x="426" y="378"/>
			<point x="364" y="325" type="curve"/>
			<point x="479" y="325" type="line"/>
			<point x="479" y="521" type="line"/>
			<point x="530" y="521" type="line"/>
			<point x="530" y="325" type="line"/>
			<point x="584" y="325" type="line"/>
			<point x="584" y="276" type="line"/>
			<point x="530" y="276" type="line"/>
			<point x="530" y="190" type="line"/>
		</contour>
	</outline>
</glyph>
<glyph name="five.blackCircled" format="2">
	<advance width="892"/>
	<unicode hex="277A"/>
	<outline>
		<contour>
			<point x="447" y="-16" type="curve" smooth="yes"/>
			<point x="648" y="-16"/>
			<point x="812" y="148"/>
			<point x="812" y="350" type="curve" smooth="yes"/>
			<point x="812" y="552"/>
			<point x="648" y="716"/>
			<point x="447" y="716" type="curve" smooth="yes"/>
			<point x="244" y="716"/>
			<point x="80" y="552"/>
			<point x="80" y="350" type="curve" smooth="yes"/>
			<point x="80" y="148"/>
			<point x="244" y="-16"/>
		</contour>
		<contour>
			<point x="446" y="182" type="curve" smooth="yes"/>
			<point x="377" y="182"/>
			<point x="324" y="224"/>
			<point x="328" y="291" type="curve"/>
			<point x="379" y="298" type="line"/>
			<point x="376" y="255"/>
			<point x="396" y="230"/>
			<point x="446" y="230" type="curve" smooth="yes"/>
			<point x="491" y="230"/>
			<point x="513" y="263"/>
			<point x="513" y="302" type="curve" smooth="yes"/>
			<point x="513" y="340"/>
			<point x="491" y="373"/>
			<point x="450" y="373" type="curve" smooth="yes"/>
			<point x="401" y="373"/>
			<point x="385" y="339"/>
			<point x="381" y="330" type="curve"/>
			<point x="332" y="330" type="line"/>
			<point x="348" y="520" type="line"/>
			<point x="540" y="520" type="line"/>
			<point x="540" y="471" type="line"/>
			<point x="394" y="471" type="line"/>
			<point x="389" y="401" type="line"/>
			<point x="404" y="413"/>
			<point x="426" y="420"/>
			<point x="450" y="420" type="curve" smooth="yes"/>
			<point x="513" y="420"/>
			<point x="564" y="374"/>
			<point x="564" y="302" type="curve" smooth="yes"/>
			<point x="564" y="230"/>
			<point x="513" y="182"/>
		</contour>
	</outline>
</glyph>
<glyph name="six.blackCircled" format="2">
	<advance width="892"/>
	<unicode hex="277B"/>
	<outline>
		<contour>
			<point x="447" y="-16" type="curve" smooth="yes"/>
			<point x="648" y="-16"/>
			<point x="812" y="148"/>
			<point x="812" y="350" type="curve" smooth="yes"/>
			<point x="812" y="552"/>
			<point x="648" y="716"/>
			<point x="447" y="716" type="curve" smooth="yes"/>
			<point x="244" y="716"/>
			<point x="80" y="552"/>
			<point x="80" y="350" type="curve" smooth="yes"/>
			<point x="80" y="148"/>
			<point x="244" y="-16"/>
		</contour>
		<contour>
			<point x="444" y="229" type="curve" smooth="yes"/>
			<point x="485" y="229"/>
			<point x="511" y="257"/>
			<point x="511" y="299" type="curve" smooth="yes"/>
			<point x="511" y="341"/>
			<point x="486" y="368"/>
			<point x="444" y="368" type="curve" smooth="yes"/>
			<point x="402" y="368"/>
			<point x="375" y="341"/>
			<point x="375" y="299" type="curve" smooth="yes"/>
			<point x="375" y="257"/>
			<point x="401" y="229"/>
		</contour>
		<contour>
			<point x="444" y="182" type="curve" smooth="yes"/>
			<point x="354" y="182"/>
			<point x="318" y="256"/>
			<point x="318" y="356" type="curve" smooth="yes"/>
			<point x="318" y="472"/>
			<point x="377" y="528"/>
			<point x="448" y="528" type="curve" smooth="yes"/>
			<point x="508" y="528"/>
			<point x="547" y="499"/>
			<point x="565" y="429" type="curve"/>
			<point x="514" y="422" type="line"/>
			<point x="502" y="457"/>
			<point x="487" y="479"/>
			<point x="448" y="479" type="curve" smooth="yes"/>
			<point x="386" y="479"/>
			<point x="363" y="425"/>
			<point x="365" y="318" type="curve"/>
			<point x="349" y="261" type="line"/>
			<point x="340" y="368"/>
			<point x="380" y="415"/>
			<point x="444" y="415" type="curve" smooth="yes"/>
			<point x="506" y="415"/>
			<point x="560" y="371"/>
			<point x="560" y="299" type="curve" smooth="yes"/>
			<point x="560" y="231"/>
			<point x="506" y="182"/>
		</contour>
	</outline>
</glyph>
<glyph name="seven.blackCircled" format="2">
	<advance width="892"/>
	<unicode hex="277C"/>
	<outline>
		<contour>
			<point x="447" y="-16" type="curve" smooth="yes"/>
			<point x="648" y="-16"/>
			<point x="812" y="148"/>
			<point x="812" y="350" type="curve" smooth="yes"/>
			<point x="812" y="552"/>
			<point x="648" y="716"/>
			<point x="447" y="716" type="curve" smooth="yes"/>
			<point x="244" y="716"/>
			<point x="80" y="552"/>
			<point x="80" y="350" type="curve" smooth="yes"/>
			<point x="80" y="148"/>
			<point x="244" y="-16"/>
		</contour>
		<contour>
			<point x="393" y="190" type="line"/>
			<point x="392" y="301"/>
			<point x="406" y="412"/>
			<point x="480" y="472" type="curve"/>
			<point x="325" y="472" type="line"/>
			<point x="325" y="521" type="line"/>
			<point x="557" y="521" type="line"/>
			<point x="557" y="476" type="line"/>
			<point x="452" y="412"/>
			<point x="444" y="326"/>
			<point x="444" y="190" type="curve"/>
		</contour>
	</outline>
</glyph>
<glyph name="eight.blackCircled" format="2">
	<advance width="892"/>
	<unicode hex="277D"/>
	<outline>
		<contour>
			<point x="447" y="-16" type="curve" smooth="yes"/>
			<point x="648" y="-16"/>
			<point x="812" y="148"/>
			<point x="812" y="350" type="curve" smooth="yes"/>
			<point x="812" y="552"/>
			<point x="648" y="716"/>
			<point x="447" y="716" type="curve" smooth="yes"/>
			<point x="244" y="716"/>
			<point x="80" y="552"/>
			<point x="80" y="350" type="curve" smooth="yes"/>
			<point x="80" y="148"/>
			<point x="244" y="-16"/>
		</contour>
		<contour>
			<point x="446" y="229" type="curve" smooth="yes"/>
			<point x="489" y="229"/>
			<point x="521" y="249"/>
			<point x="521" y="284" type="curve" smooth="yes"/>
			<point x="521" y="320"/>
			<point x="489" y="339"/>
			<point x="446" y="339" type="curve" smooth="yes"/>
			<point x="403" y="339"/>
			<point x="371" y="320"/>
			<point x="371" y="284" type="curve" smooth="yes"/>
			<point x="371" y="249"/>
			<point x="403" y="229"/>
		</contour>
		<contour>
			<point x="446" y="182" type="curve" smooth="yes"/>
			<point x="385" y="182"/>
			<point x="321" y="221"/>
			<point x="321" y="284" type="curve" smooth="yes"/>
			<point x="321" y="331"/>
			<point x="358" y="371"/>
			<point x="418" y="371" type="curve"/>
			<point x="418" y="351" type="line"/>
			<point x="368" y="351"/>
			<point x="333" y="396"/>
			<point x="333" y="433" type="curve" smooth="yes"/>
			<point x="333" y="485"/>
			<point x="375" y="528"/>
			<point x="446" y="528" type="curve" smooth="yes"/>
			<point x="517" y="528"/>
			<point x="559" y="485"/>
			<point x="559" y="433" type="curve" smooth="yes"/>
			<point x="559" y="394"/>
			<point x="524" y="352"/>
			<point x="474" y="352" type="curve"/>
			<point x="474" y="372" type="line"/>
			<point x="534" y="372"/>
			<point x="571" y="329"/>
			<point x="571" y="284" type="curve" smooth="yes"/>
			<point x="571" y="221"/>
			<point x="507" y="182"/>
		</contour>
		<contour>
			<point x="446" y="384" type="curve" smooth="yes"/>
			<point x="488" y="384"/>
			<point x="510" y="405"/>
			<point x="510" y="433" type="curve" smooth="yes"/>
			<point x="510" y="461"/>
			<point x="488" y="481"/>
			<point x="446" y="481" type="curve" smooth="yes"/>
			<point x="404" y="481"/>
			<point x="382" y="461"/>
			<point x="382" y="433" type="curve" smooth="yes"/>
			<point x="382" y="405"/>
			<point x="404" y="384"/>
		</contour>
	</outline>
</glyph>
<glyph name="nine.blackCircled" format="2">
	<advance width="892"/>
	<unicode hex="277E"/>
	<outline>
		<contour>
			<point x="447" y="-16" type="curve" smooth="yes"/>
			<point x="648" y="-16"/>
			<point x="812" y="148"/>
			<point x="812" y="350" type="curve" smooth="yes"/>
			<point x="812" y="552"/>
			<point x="648" y="716"/>
			<point x="447" y="716" type="curve" smooth="yes"/>
			<point x="244" y="716"/>
			<point x="80" y="552"/>
			<point x="80" y="350" type="curve" smooth="yes"/>
			<point x="80" y="148"/>
			<point x="244" y="-16"/>
		</contour>
		<contour>
			<point x="445" y="182" type="curve" smooth="yes"/>
			<point x="385" y="182"/>
			<point x="346" y="211"/>
			<point x="328" y="281" type="curve"/>
			<point x="379" y="288" type="line"/>
			<point x="391" y="253"/>
			<point x="406" y="231"/>
			<point x="445" y="231" type="curve" smooth="yes"/>
			<point x="507" y="231"/>
			<point x="530" y="285"/>
			<point x="528" y="392" type="curve"/>
			<point x="544" y="449" type="line"/>
			<point x="553" y="342"/>
			<point x="513" y="295"/>
			<point x="449" y="295" type="curve" smooth="yes"/>
			<point x="387" y="295"/>
			<point x="333" y="339"/>
			<point x="333" y="411" type="curve" smooth="yes"/>
			<point x="333" y="479"/>
			<point x="387" y="528"/>
			<point x="449" y="528" type="curve" smooth="yes"/>
			<point x="539" y="528"/>
			<point x="575" y="454"/>
			<point x="575" y="354" type="curve" smooth="yes"/>
			<point x="575" y="238"/>
			<point x="516" y="182"/>
		</contour>
		<contour>
			<point x="449" y="342" type="curve" smooth="yes"/>
			<point x="491" y="342"/>
			<point x="518" y="369"/>
			<point x="518" y="411" type="curve" smooth="yes"/>
			<point x="518" y="453"/>
			<point x="492" y="481"/>
			<point x="449" y="481" type="curve" smooth="yes"/>
			<point x="408" y="481"/>
			<point x="382" y="453"/>
			<point x="382" y="411" type="curve" smooth="yes"/>
			<point x="382" y="369"/>
			<point x="407" y="342"/>
		</contour>
	</outline>
</glyph>
<glyph name="Oslash.ss03" format="2">
	<advance width="763"/>
	<outline>
		<contour>
			<point x="10" y="0" type="line"/>
			<point x="98" y="0" type="line"/>
			<point x="753" y="700" type="line"/>
			<point x="665" y="700" type="line"/>
		</contour>
		<component base="O"/>
	</outline>
</glyph>
<glyph name="Q.ss03" format="2">
	<advance width="772"/>
	<outline>
		<contour>
			<point x="629" y="0" type="line"/>
			<point x="717" y="0" type="line"/>
			<point x="416" y="346" type="line"/>
			<point x="328" y="346" type="line"/>
		</contour>
		<component base="O"/>
	</outline>
</glyph>
<glyph name="R.ss01" format="2">
	<advance width="595"/>
	<outline>
		<contour>
			<point x="118" y="309" type="line"/>
			<point x="305" y="309" type="line" smooth="yes"/>
			<point x="435" y="309"/>
			<point x="536" y="380"/>
			<point x="536" y="504" type="curve" smooth="yes"/>
			<point x="536" y="639"/>
			<point x="435" y="700"/>
			<point x="305" y="700" type="curve" smooth="yes"/>
			<point x="118" y="700" type="line"/>
			<point x="118" y="627" type="line"/>
			<point x="305" y="627" type="line" smooth="yes"/>
			<point x="395" y="627"/>
			<point x="458" y="594"/>
			<point x="458" y="504" type="curve" smooth="yes"/>
			<point x="458" y="414"/>
			<point x="395" y="382"/>
			<point x="305" y="382" type="curve" smooth="yes"/>
			<point x="118" y="382" type="line"/>
		</contour>
		<contour>
			<point x="85" y="0" type="line"/>
			<point x="163" y="0" type="line"/>
			<point x="163" y="700" type="line"/>
			<point x="85" y="700" type="line"/>
		</contour>
		<contour>
			<point x="461" y="0" type="line"/>
			<point x="550" y="0" type="line"/>
			<point x="366" y="350" type="line"/>
			<point x="282" y="343" type="line"/>
		</contour>
	</outline>
</glyph>
<glyph name="Y.ss02" format="2">
	<advance width="588"/>
	<outline>
		<contour>
			<point x="333" y="279" type="line"/>
			<point x="588" y="700" type="line"/>
			<point x="500" y="700" type="line"/>
			<point x="267" y="315" type="line"/>
		</contour>
		<contour>
			<point x="255" y="0" type="line"/>
			<point x="333" y="0" type="line"/>
			<point x="333" y="317" type="line"/>
			<point x="255" y="317" type="line"/>
		</contour>
		<contour>
			<point x="255" y="279" type="line"/>
			<point x="321" y="315" type="line"/>
			<point x="88" y="700" type="line"/>
			<point x="0" y="700" type="line"/>
		</contour>
	</outline>
</glyph>
<glyph name="asterisk.ss06" format="2">
	<advance width="496"/>
	<outline>
		<contour>
			<point x="317" y="354" type="line"/>
			<point x="366" y="387" type="line"/>
			<point x="256" y="544" type="line"/>
			<point x="208" y="510" type="line"/>
		</contour>
		<contour>
			<point x="139" y="354" type="line"/>
			<point x="248" y="510" type="line"/>
			<point x="200" y="544" type="line"/>
			<point x="90" y="387" type="line"/>
		</contour>
		<contour>
			<point x="213" y="496" type="line"/>
			<point x="238" y="550" type="line"/>
			<point x="65" y="630" type="line"/>
			<point x="40" y="576" type="line"/>
		</contour>
		<contour>
			<point x="198" y="516" type="line"/>
			<point x="258" y="516" type="line"/>
			<point x="258" y="716" type="line"/>
			<point x="198" y="716" type="line"/>
		</contour>
		<contour>
			<point x="243" y="496" type="line"/>
			<point x="416" y="576" type="line"/>
			<point x="391" y="630" type="line"/>
			<point x="218" y="550" type="line"/>
		</contour>
	</outline>
</glyph>
<glyph name="comma.ss07" format="2">
	<advance width="240"/>
	<outline>
		<contour>
			<point x="50" y="-133" type="line"/>
			<point x="120" y="-133"/>
			<point x="180" y="-70"/>
			<point x="180" y="20" type="curve" smooth="yes"/>
			<point x="180" y="70"/>
			<point x="155" y="105"/>
			<point x="115" y="105" type="curve" smooth="yes"/>
			<point x="85" y="105"/>
			<point x="60" y="80"/>
			<point x="60" y="50" type="curve" smooth="yes"/>
			<point x="60" y="20"/>
			<point x="85" y="-5"/>
			<point x="115" y="-5" type="curve" smooth="yes"/>
			<point x="125" y="-5" type="line"/>
			<point x="125" y="-35"/>
			<point x="110" y="-90"/>
			<point x="50" y="-90" type="curve"/>
		</contour>
	</outline>
</glyph>
<glyph name="commaaccentcomb.ss07" format="2">
	<advance width="390"/>
	<outline>
		<contour>
			<point x="140" y="-238" type="line"/>
			<point x="210" y="-238"/>
			<point x="250" y="-194"/>
			<point x="250" y="-124" type="curve" smooth="yes"/>
			<point x="250" y="-84"/>
			<point x="231" y="-49"/>
			<point x="191" y="-49" type="curve" smooth="yes"/>
			<point x="163" y="-49"/>
			<point x="140" y="-71"/>
			<point x="140" y="-99" type="curve" smooth="yes"/>
			<point x="140" y="-126"/>
			<point x="163" y="-149"/>
			<point x="191" y="-149" type="curve" smooth="yes"/>
			<point x="205" y="-149" type="line"/>
			<point x="205" y="-179"/>
			<point x="170" y="-195"/>
			<point x="140" y="-195" type="curve"/>
		</contour>
	</outline>
</glyph>
<glyph name="dieresis.ss07" format="2">
	<advance width="524"/>
	<outline>
		<contour>
			<point x="191" y="569" type="curve" smooth="yes"/>
			<point x="219" y="569"/>
			<point x="242" y="592"/>
			<point x="242" y="620" type="curve" smooth="yes"/>
			<point x="242" y="648"/>
			<point x="219" y="671"/>
			<point x="191" y="671" type="curve" smooth="yes"/>
			<point x="163" y="671"/>
			<point x="140" y="648"/>
			<point x="140" y="620" type="curve" smooth="yes"/>
			<point x="140" y="592"/>
			<point x="163" y="569"/>
		</contour>
		<contour>
			<point x="333" y="569" type="curve" smooth="yes"/>
			<point x="361" y="569"/>
			<point x="384" y="592"/>
			<point x="384" y="620" type="curve" smooth="yes"/>
			<point x="384" y="648"/>
			<point x="361" y="671"/>
			<point x="333" y="671" type="curve" smooth="yes"/>
			<point x="305" y="671"/>
			<point x="282" y="648"/>
			<point x="282" y="620" type="curve" smooth="yes"/>
			<point x="282" y="592"/>
			<point x="305" y="569"/>
		</contour>
	</outline>
</glyph>
<glyph name="dotaccent.ss07" format="2">
	<advance width="390"/>
	<outline>
		<contour>
			<point x="195" y="572" type="curve" smooth="yes"/>
			<point x="226" y="572"/>
			<point x="250" y="596"/>
			<point x="250" y="627" type="curve" smooth="yes"/>
			<point x="250" y="658"/>
			<point x="226" y="682"/>
			<point x="195" y="682" type="curve" smooth="yes"/>
			<point x="164" y="682"/>
			<point x="140" y="658"/>
			<point x="140" y="627" type="curve" smooth="yes"/>
			<point x="140" y="596"/>
			<point x="164" y="572"/>
		</contour>
	</outline>
</glyph>
<glyph name="downArrow.ss08" format="2">
	<advance width="711"/>
	<outline>
		<contour>
			<point x="356" y="-77" type="line"/>
			<point x="631" y="199" type="line"/>
			<point x="586" y="244" type="line"/>
			<point x="332" y="-11" type="line"/>
			<point x="380" y="-11" type="line"/>
			<point x="125" y="244" type="line"/>
			<point x="80" y="199" type="line"/>
		</contour>
		<contour>
			<point x="322" y="0" type="line"/>
			<point x="389" y="0" type="line"/>
			<point x="389" y="639" type="line"/>
			<point x="322" y="639" type="line"/>
		</contour>
	</outline>
</glyph>
<glyph name="downTipLeftArrow.ss08" format="2">
	<advance width="817"/>
	<outline>
		<contour>
			<point x="356" y="27" type="line"/>
			<point x="401" y="72" type="line"/>
			<point x="146" y="327" type="line"/>
			<point x="146" y="279" type="line"/>
			<point x="401" y="533" type="line"/>
			<point x="356" y="579" type="line"/>
			<point x="80" y="303" type="line"/>
		</contour>
		<contour>
			<point x="146" y="270" type="line"/>
			<point x="737" y="270" type="line"/>
			<point x="737" y="336" type="line"/>
			<point x="146" y="336" type="line"/>
		</contour>
		<contour>
			<point x="671" y="336" type="line"/>
			<point x="737" y="336" type="line"/>
			<point x="737" y="700" type="line"/>
			<point x="671" y="700" type="line"/>
		</contour>
	</outline>
</glyph>
<glyph name="downTipRightArrow.ss08" format="2">
	<advance width="817"/>
	<outline>
		<contour>
			<point x="461" y="27" type="line"/>
			<point x="737" y="303" type="line"/>
			<point x="461" y="579" type="line"/>
			<point x="416" y="533" type="line"/>
			<point x="671" y="279" type="line"/>
			<point x="671" y="327" type="line"/>
			<point x="416" y="72" type="line"/>
		</contour>
		<contour>
			<point x="80" y="336" type="line"/>
			<point x="146" y="336" type="line"/>
			<point x="146" y="700" type="line"/>
			<point x="80" y="700" type="line"/>
		</contour>
		<contour>
			<point x="80" y="270" type="line"/>
			<point x="671" y="270" type="line"/>
			<point x="671" y="336" type="line"/>
			<point x="80" y="336" type="line"/>
		</contour>
	</outline>
</glyph>
<glyph name="eight.dnom" format="2">
	<advance width="355"/>
	<outline>
		<contour>
			<point x="177" y="-8" type="curve" smooth="yes"/>
			<point x="245" y="-8"/>
			<point x="315" y="35"/>
			<point x="315" y="105" type="curve" smooth="yes"/>
			<point x="315" y="154"/>
			<point x="269" y="199"/>
			<point x="209" y="199" type="curve"/>
			<point x="209" y="183" type="line"/>
			<point x="259" y="183"/>
			<point x="302" y="228"/>
			<point x="302" y="270" type="curve" smooth="yes"/>
			<point x="302" y="327"/>
			<point x="256" y="374"/>
			<point x="177" y="374" type="curve" smooth="yes"/>
			<point x="98" y="374"/>
			<point x="53" y="327"/>
			<point x="53" y="270" type="curve" smooth="yes"/>
			<point x="53" y="230"/>
			<point x="95" y="182"/>
			<point x="145" y="182" type="curve"/>
			<point x="145" y="199" type="line"/>
			<point x="85" y="199"/>
			<point x="40" y="156"/>
			<point x="40" y="105" type="curve" smooth="yes"/>
			<point x="40" y="35"/>
			<point x="109" y="-8"/>
		</contour>
		<contour>
			<point x="177" y="45" type="curve" smooth="yes"/>
			<point x="129" y="45"/>
			<point x="95" y="65"/>
			<point x="95" y="105" type="curve" smooth="yes"/>
			<point x="95" y="145"/>
			<point x="129" y="164"/>
			<point x="177" y="164" type="curve" smooth="yes"/>
			<point x="225" y="164"/>
			<point x="260" y="145"/>
			<point x="260" y="105" type="curve" smooth="yes"/>
			<point x="260" y="65"/>
			<point x="225" y="45"/>
		</contour>
		<contour>
			<point x="177" y="217" type="curve" smooth="yes"/>
			<point x="130" y="217"/>
			<point x="108" y="238"/>
			<point x="108" y="270" type="curve" smooth="yes"/>
			<point x="108" y="302"/>
			<point x="130" y="322"/>
			<point x="177" y="322" type="curve" smooth="yes"/>
			<point x="224" y="322"/>
			<point x="247" y="301"/>
			<point x="247" y="270" type="curve" smooth="yes"/>
			<point x="247" y="238"/>
			<point x="224" y="217"/>
		</contour>
	</outline>
</glyph>
